<svg width="64" height="71" viewBox="0 0 64 71" fill="none" xmlns="http://www.w3.org/2000/svg">
<path d="M49.3633 48.875C48.6797 49.5586 47.9961 49.9688 48.6797 52.0195C49.3633 54.0703 50.0469 56.8047 50.0469 56.8047C50.0469 56.8047 37.0586 54.0703 35.6914 53.6602C34.4609 53.5234 33.2305 54.0703 33.2305 55.4375C33.2305 56.8047 34.0508 70.75 34.0508 70.75H29.9492C29.9492 70.75 30.6328 56.8047 30.6328 55.4375C30.6328 54.0703 29.4023 53.5234 28.1719 53.6602C26.8047 54.0703 13.8164 56.8047 13.8164 56.8047C13.8164 56.8047 14.5 54.0703 15.1836 52.0195C15.8672 49.9688 15.1836 49.5586 14.5 48.875C14.0898 48.6016 0.144531 36.2969 0.144531 36.2969L2.46875 35.2031C3.83594 34.5195 3.42578 33.6992 3.15234 32.8789C2.87891 31.7852 0.417969 23.582 0.417969 23.582C0.417969 23.582 6.98047 24.9492 8.34766 25.3594C9.30469 25.6328 9.71484 24.9492 9.98828 24.2656C10.3984 23.582 12.0391 19.8906 12.0391 19.8906C12.0391 19.8906 19.2852 28.0938 19.5586 28.3672C20.9258 29.4609 22.293 28.3672 22.0195 27C22.0195 25.6328 18.1914 9.36328 18.1914 9.36328C18.1914 9.36328 22.293 11.6875 23.6602 12.3711C24.7539 13.0547 25.4375 13.0547 26.1211 11.6875C26.8047 10.7305 31.8633 0.75 31.8633 0.75C31.8633 0.75 37.0586 10.7305 37.7422 11.6875C38.4258 13.0547 39.1094 13.0547 40.2031 12.3711C41.5703 11.6875 45.6719 9.36328 45.6719 9.36328C45.6719 9.36328 41.8438 25.6328 41.8438 27C41.5703 28.3672 42.9375 29.4609 44.3047 28.3672C44.5781 28.0938 51.8242 19.8906 51.8242 19.8906C51.8242 19.8906 53.4648 23.7188 53.875 24.4023C54.1484 25.0859 54.5586 25.6328 55.5156 25.3594C56.8828 25.0859 63.4453 23.7188 63.4453 23.7188C63.4453 23.7188 60.9844 31.7852 60.7109 32.8789C60.4375 33.6992 60.0273 34.5195 61.3945 35.2031L63.8555 36.2969C63.8555 36.2969 49.7734 48.6016 49.3633 48.875Z" fill="#D52B1E"/>
</svg>
