<svg width="35" height="35" viewBox="0 0 35 35" fill="none" xmlns="http://www.w3.org/2000/svg">
<path d="M35 17.5C35 27.165 27.165 35 17.5 35C7.83502 35 0 27.165 0 17.5C0 7.83502 7.83502 0 17.5 0C27.165 0 35 7.83502 35 17.5Z" fill="white"/>
<path d="M25.3125 10.5C26.2266 10.5 27 11.2734 27 12.1875C27 12.75 26.7188 13.2422 26.2969 13.5586L18.668 19.2891C18.2461 19.6055 17.7188 19.6055 17.2969 19.2891L9.66797 13.5586C9.24609 13.2422 9 12.75 9 12.1875C9 11.2734 9.73828 10.5 10.6875 10.5H25.3125ZM16.6289 20.2031C17.4375 20.8008 18.5273 20.8008 19.3359 20.2031L27 14.4375V21.75C27 23.0156 25.9805 24 24.75 24H11.25C9.98438 24 9 23.0156 9 21.75V14.4375L16.6289 20.2031Z" fill="#D52B1E"/>
</svg>
