<svg width="35" height="35" viewBox="0 0 35 35" fill="none" xmlns="http://www.w3.org/2000/svg">
<circle cx="17.5" cy="17.5" r="17.5" fill="white"/>
<path d="M25.9648 21.8555L25.1211 25.4062C25.0156 25.9336 24.5938 26.2852 24.0664 26.2852C15.207 26.25 8 19.043 8 10.1836C8 9.65625 8.31641 9.23438 8.84375 9.12891L12.3945 8.28516C12.8867 8.17969 13.4141 8.46094 13.625 8.91797L15.2773 12.75C15.4531 13.207 15.3477 13.7344 14.9609 14.0156L13.0625 15.5625C14.2578 17.9883 16.2266 19.957 18.6875 21.1523L20.2344 19.2539C20.5156 18.9023 21.043 18.7617 21.5 18.9375L25.332 20.5898C25.7891 20.8359 26.0703 21.3633 25.9648 21.8555Z" fill="#D52B1E"/>
</svg>
