<svg width="24" height="24" viewBox="0 0 24 24" fill="none" xmlns="http://www.w3.org/2000/svg">
<path fill-rule="evenodd" clip-rule="evenodd" d="M6.5393 6C6.5993 6.89 6.7493 7.76 6.9893 8.59L5.7893 9.79C5.3793 8.59 5.1193 7.32 5.0293 6H6.5393ZM16.3992 18.02C17.2492 18.26 18.1192 18.41 18.9992 18.47V19.96C17.6792 19.87 16.4092 19.61 15.1992 19.21L16.3992 18.02ZM7.5 4H4C3.45 4 3 4.45 3 5C3 14.39 10.61 22 20 22C20.55 22 21 21.55 21 21V17.51C21 16.96 20.55 16.51 20 16.51C18.76 16.51 17.55 16.31 16.43 15.94C16.33 15.9 16.22 15.89 16.12 15.89C15.86 15.89 15.61 15.99 15.41 16.18L13.21 18.38C10.38 16.93 8.06 14.62 6.62 11.79L8.82 9.59C9.1 9.31 9.18 8.92 9.07 8.57C8.7 7.45 8.5 6.25 8.5 5C8.5 4.45 8.05 4 7.5 4Z" fill="#D52B1E"/>
</svg>
