<svg width="109" height="93" viewBox="0 0 109 93" fill="none" xmlns="http://www.w3.org/2000/svg">
<path d="M73.2724 40.9329V44.592C73.2724 45.2384 72.9073 45.8294 72.3291 46.1185L71.5659 46.5H92.0476L90.5206 45.7365C89.3644 45.1585 88.6339 43.9766 88.6337 42.6841L88.6314 14.0754H63.0332V27.7279C63.0332 34.0869 67.3872 39.4152 73.2724 40.9329Z" fill="#F5B97D"/>
<path d="M15.2492 22.6082C20.9042 22.6082 25.4886 18.0239 25.4886 12.3688C25.4886 6.71373 20.9042 2.12939 15.2492 2.12939C9.5941 2.12939 5.00977 6.71373 5.00977 12.3688C5.00977 18.0239 9.5941 22.6082 15.2492 22.6082Z" fill="#FFC269"/>
<path d="M44.2024 26.0212C44.2024 15.6536 37.5617 7.24915 27.1939 7.24915C16.8262 7.24915 8.42188 15.6536 8.42188 26.0212C8.42188 34.5541 16.8264 39.6737 27.1939 39.6737C37.5615 39.6737 44.2024 34.5541 44.2024 26.0212Z" fill="#FFA95F"/>
<path d="M20.3678 19.195C18.0754 17.7676 15.631 15.7279 14.1591 12.53C10.627 15.9435 8.42188 20.7212 8.42188 26.0213C8.42188 34.5082 16.7384 39.614 27.0289 39.6687L20.3678 19.195Z" fill="#FF8B5A"/>
<path d="M32.3147 49.9131H18.6622C11.1223 49.9131 5.00977 56.0256 5.00977 63.5655V84.0443H40.8476V58.446C40.8476 53.7334 37.0272 49.9131 32.3147 49.9131Z" fill="#95D6A4"/>
<path d="M18.6622 55.0329H22.0753V53.3264V49.9133H18.6622C11.1223 49.9133 5.00977 56.0258 5.00977 63.5658V84.0446H10.1294V63.5658C10.1296 58.8607 13.9573 55.0329 18.6622 55.0329Z" fill="#78C2A4"/>
<path d="M25.4884 56.7394C21.7184 56.7394 18.6621 53.6831 18.6621 49.9132V41.3804H32.3146V49.9132C32.3146 53.6831 29.2585 56.7394 25.4884 56.7394Z" fill="#F7D291"/>
<path d="M18.6621 49.3453C21.1625 50.784 24.0519 51.6198 27.1377 51.6198C28.9426 51.6198 30.6804 51.3335 32.3146 50.8119V43.0872H18.6621V49.3453Z" fill="#ECBD83"/>
<path d="M47.6733 60.1525H16.9551V84.0443H47.6731C49.558 84.0443 51.0861 82.5162 51.0861 80.6313V63.5657C51.0863 61.6806 49.5582 60.1525 47.6733 60.1525Z" fill="#ECEAEC"/>
<path d="M16.956 60.1525C15.0711 60.1525 13.543 61.6806 13.543 63.5655V80.6311C13.543 82.516 15.0711 84.0441 16.956 84.0441H47.674C49.559 84.0441 51.0871 82.516 51.0871 80.6311H51.0867L51.0871 78.9245H23.7824C20.9548 78.9245 18.6628 76.6323 18.6628 73.8049V60.1525H16.956Z" fill="#DAD8DB"/>
<path d="M20.3107 19.1951C25.736 23.042 33.4874 24.2891 37.7279 24.6921C39.4713 24.8577 40.7893 26.335 40.7893 28.0862V32.8475C40.7893 40.3875 34.6768 46.5 27.1368 46.5C19.5969 46.5 13.4844 40.3875 13.4844 32.8475V32.8446C13.4844 28.911 14.9467 25.1177 17.5872 22.2022L20.3107 19.1951Z" fill="#FFE1A0"/>
<path d="M32.3154 75.5114C34.2004 75.5114 35.7285 73.9834 35.7285 72.0984C35.7285 70.2134 34.2004 68.6853 32.3154 68.6853C30.4304 68.6853 28.9023 70.2134 28.9023 72.0984C28.9023 73.9834 30.4304 75.5114 32.3154 75.5114Z" fill="white"/>
<path d="M98.511 49.7315L92.0481 46.5H71.5665L61.6876 51.4395C59.3749 52.5957 57.9141 54.9594 57.9141 57.545V90.8705H102.285V55.8372C102.285 53.2514 100.824 50.8879 98.511 49.7315Z" fill="#C3DDFF"/>
<path d="M69.8583 65.96C69.8583 63.3679 68.6799 60.9162 66.6557 59.297L59.3136 53.4233C58.4277 54.5898 57.9121 56.0251 57.9121 57.5449V90.8704H69.858L69.8583 65.96Z" fill="#A4CCFF"/>
<path d="M100.577 66.9788H76.6857C72.9156 66.9788 69.8594 70.035 69.8594 73.8051L74.979 90.8706H107.404V73.8051C107.404 70.0348 104.347 66.9788 100.577 66.9788Z" fill="#9B959D"/>
<path d="M73.2726 40.9329V14.0754H63.0332V27.7279C63.0334 34.0869 67.3875 39.4152 73.2726 40.9329Z" fill="#E3AA75"/>
<path d="M81.8045 3.83606H68.152C63.4395 3.83606 59.6191 7.65638 59.6191 12.3689C59.6191 14.2539 61.1473 15.782 63.0322 15.782H64.7387C67.5663 15.782 69.8583 18.0742 69.8583 20.9016V26.0212C69.8583 30.7337 73.6787 34.554 78.3912 34.554H86.9241C90.6941 34.554 93.7504 31.4978 93.7504 27.7277V15.782C93.7504 9.1843 88.402 3.83606 81.8045 3.83606Z" fill="#9F6E50"/>
<path d="M81.8053 66.9788H76.6857C72.9156 66.9788 69.8594 70.035 69.8594 73.8051V90.8706H74.979V73.8051C74.9792 70.0348 78.0352 66.9788 81.8053 66.9788Z" fill="#857E87"/>
<path d="M68.152 3.83606C63.4395 3.83606 59.6191 7.65638 59.6191 12.3689C59.6191 14.2539 61.1473 15.782 63.0322 15.782H64.7387C67.5663 15.782 69.8583 18.0742 69.8583 20.9016V3.83606H68.152Z" fill="#785353"/>
<path d="M18.663 32.8475V21.0161L17.5889 22.2019C14.9485 25.1174 13.4863 28.9107 13.4863 32.8443V32.8475C13.4863 40.3875 19.5986 46.5 27.1388 46.5C28.0246 46.5 28.8883 46.4086 29.7271 46.2475C23.426 45.0372 18.663 39.5018 18.663 32.8475Z" fill="#F7D291"/>
<path d="M23.9748 37.3125C23.6131 38.1168 23.9721 39.0619 24.7764 39.4236C25.9894 39.969 27.3962 40.2575 28.8443 40.2575C30.2924 40.2575 31.6992 39.9692 32.9122 39.4236C33.7165 39.0619 34.0752 38.1168 33.7137 37.3125C33.352 36.5085 32.407 36.1497 31.6027 36.511C30.7982 36.8727 29.8444 37.0639 28.8443 37.0639C27.8441 37.0639 26.8904 36.8727 26.0859 36.511C25.2816 36.1493 24.3363 36.508 23.9748 37.3125Z" fill="black"/>
<path d="M23.7256 32.7377C24.6074 32.7377 25.3223 32.0228 25.3223 31.141V29.4344C25.3223 28.5527 24.6074 27.8378 23.7256 27.8378C22.8438 27.8378 22.1289 28.5527 22.1289 29.4344V31.141C22.1289 32.0228 22.8438 32.7377 23.7256 32.7377Z" fill="black"/>
<path d="M33.9639 32.7377C34.8457 32.7377 35.5605 32.0228 35.5605 31.141V29.4344C35.5605 28.5527 34.8457 27.8378 33.9639 27.8378C33.0821 27.8378 32.3672 28.5527 32.3672 29.4344V31.141C32.3672 32.0228 33.0821 32.7377 33.9639 32.7377Z" fill="black"/>
<path d="M32.3144 67.0884C29.552 67.0884 27.3047 69.3359 27.3047 72.0981C27.3047 74.8606 29.5522 77.1081 32.3144 77.1081C35.0767 77.1081 37.3242 74.8606 37.3242 72.0981C37.3242 69.3359 35.0767 67.0884 32.3144 67.0884ZM32.3144 73.9147C31.3128 73.9147 30.498 73.0998 30.498 72.0981C30.498 71.0965 31.313 70.2817 32.3144 70.2817C33.3159 70.2817 34.1308 71.0967 34.1308 72.0981C34.1308 73.1 33.3159 73.9147 32.3144 73.9147Z" fill="black"/>
<path d="M103.88 66.0576V55.8371C103.88 52.6261 102.096 49.7393 99.2243 48.3034L91.2343 44.3083C90.6152 43.9987 90.2305 43.3764 90.2303 42.6841L90.2282 35.475C93.2352 34.1879 95.3475 31.2002 95.3475 27.7277V15.7818C95.3475 8.31441 89.2723 2.23916 81.8049 2.23916H68.1525C62.5671 2.23916 58.0229 6.78331 58.0229 12.3687C58.0229 14.5728 59.4544 16.4477 61.436 17.1162V27.7279C61.436 34.2566 65.5878 40.006 71.6754 42.1174V44.6597L60.9725 50.0112C58.1006 51.4471 56.3164 54.3339 56.3164 57.545V82.4476H52.2879C52.5423 81.8364 52.6834 81.1669 52.6834 80.4645V63.7322C52.6834 60.878 50.3612 58.5558 47.507 58.5558H42.444V58.4459C42.444 53.4038 38.7406 49.2113 33.9109 48.4435V46.5044C38.2769 44.3302 41.4611 40.126 42.2149 35.1335C44.5274 32.6887 45.7998 29.4685 45.7998 26.0214C45.7998 20.5005 44.01 15.413 40.7603 11.6964C37.3523 7.79901 32.5144 5.65243 27.1376 5.65243C26.4199 5.65243 25.7112 5.69033 25.0127 5.76292C22.8244 2.51676 19.138 0.532837 15.1919 0.532837C8.6655 0.532837 3.35579 5.84233 3.35579 12.3689C3.35579 15.7871 4.79962 18.9779 7.34047 21.2264C6.96791 22.7648 6.76886 24.3702 6.76886 26.0214C6.76886 30.4255 8.83922 34.3984 12.453 36.9476C13.2573 39.8242 14.8842 42.359 17.0653 44.2825V48.4004C9.40487 49.2013 3.41306 55.6966 3.41306 63.5655V82.4476H1.59668C0.714887 82.4476 0 83.1625 0 84.0443C0 84.9261 0.714887 85.641 1.59668 85.641H56.3164V90.8704C56.3164 91.7522 57.0313 92.4671 57.9131 92.4671C58.7949 92.4671 59.5097 91.7522 59.5097 90.8704V57.545C59.5097 56.8703 59.6394 56.2199 59.8763 55.6185L65.7666 60.5271C67.3526 61.8488 68.2623 63.791 68.2623 65.8556V90.8704C68.2623 91.7522 68.9772 92.4671 69.859 92.4671C70.7408 92.4671 71.4557 91.7522 71.4557 90.8704V73.8049C71.4557 70.9213 73.8017 68.5752 76.6851 68.5752H100.577C103.461 68.5752 105.806 70.9213 105.806 73.8049V90.8704C105.806 91.7522 106.521 92.4671 107.403 92.4671C108.285 92.4671 109 91.7522 109 90.8704V73.8049C109 70.3324 106.887 67.3445 103.88 66.0576ZM6.54937 12.3687C6.54937 7.60315 10.4263 3.72598 15.1921 3.72598C17.5973 3.72598 19.8682 4.7387 21.4839 6.45141C15.6619 8.13623 10.906 12.3542 8.49136 17.8287C7.24233 16.3021 6.54937 14.3903 6.54937 12.3687ZM11.908 32.0279C10.6409 30.3252 9.96243 28.2733 9.96243 26.0214C9.96243 16.5507 17.6674 8.84579 27.1378 8.84579C31.6441 8.84579 35.5234 10.5583 38.3565 13.7985C41.0973 16.9329 42.6067 21.2737 42.6067 26.0214C42.6067 26.7661 42.5311 27.4882 42.387 28.1843V28.0862C42.387 25.4894 40.4494 23.3468 37.8801 23.1027C33.8703 22.7214 26.3759 21.5377 21.2352 17.8924C20.5755 17.4249 19.6707 17.5239 19.1282 18.1229L16.4049 21.13C13.6763 24.1428 12.0967 27.9847 11.908 32.0279ZM15.082 32.8443C15.082 29.2999 16.3924 25.9009 18.7718 23.2738L20.5763 21.2814C26.2075 24.7419 33.5418 25.8979 37.578 26.2815C38.4991 26.369 39.1936 27.1448 39.1936 28.086V32.8473C39.1936 39.4948 33.7853 44.9031 27.1378 44.9031C20.4903 44.9031 15.082 39.495 15.082 32.8443ZM30.718 47.6681V48.2065C30.718 51.0901 28.3719 53.4359 25.4883 53.4359C22.6047 53.4359 20.2589 51.0899 20.2589 48.2065V46.4502C22.3273 47.5006 24.6636 48.0967 27.138 48.0967C28.3709 48.0967 29.5688 47.9457 30.718 47.6681ZM49.4903 80.4645C49.4903 81.558 48.6006 82.4476 47.5072 82.4476H17.1224C16.029 82.4476 15.1393 81.558 15.1393 80.4645V72.0984C15.1393 71.2166 14.4244 70.5017 13.5426 70.5017C12.6608 70.5017 11.9459 71.2166 11.9459 72.0984V80.4645C11.9459 81.1669 12.0871 81.8364 12.3415 82.4476H6.60642V63.5655C6.60642 57.2224 11.5314 52.0117 17.7578 51.5472C19.0537 54.5343 22.0303 56.6293 25.4883 56.6293C28.9376 56.6293 31.9078 54.5443 33.2088 51.5691C36.6123 52.0094 39.2509 54.9243 39.2509 58.4457V58.5555H17.1224C14.2681 58.5555 11.9459 60.8778 11.9459 63.732V65.2718C11.9459 66.1536 12.6608 66.8685 13.5426 66.8685C14.4244 66.8685 15.1393 66.1536 15.1393 65.2718V63.732C15.1393 62.6386 16.029 61.7489 17.1224 61.7489H40.8414C40.8435 61.7489 40.8454 61.7491 40.8475 61.7491C40.8497 61.7491 40.8516 61.7489 40.8537 61.7489H47.5072C48.6006 61.7489 49.4903 62.6386 49.4903 63.732V80.4645ZM64.6295 27.7279V17.3787H64.7394C66.682 17.3787 68.2623 18.9592 68.2623 20.9018V26.0214C68.2623 31.6068 72.8065 36.1509 78.3919 36.1509H80.0982C80.98 36.1509 81.6949 35.436 81.6949 34.5543C81.6949 33.6725 80.98 32.9576 80.0982 32.9576H78.3919C74.5673 32.9576 71.4557 29.846 71.4557 26.0214V20.9018C71.4557 17.1983 68.4428 14.1853 64.7394 14.1853H63.0329C62.0312 14.1853 61.2165 13.3704 61.2165 12.3689C61.2165 8.54434 64.3281 5.43273 68.1527 5.43273H81.8051C87.5117 5.43273 92.1544 10.0754 92.1544 15.782V27.7279C92.1544 30.6115 89.8083 32.9574 86.9249 32.9574C86.0432 32.9574 85.3283 33.6722 85.3283 34.554C85.3283 35.4358 86.0432 36.1507 86.9249 36.1507C86.962 36.1507 86.9984 36.1484 87.0352 36.1479L87.0371 42.6852C87.0374 43.4735 87.2211 44.2278 87.5538 44.9033H74.8692V40.9329C74.8692 40.2046 74.3763 39.5687 73.6712 39.3869C68.3475 38.0139 64.6295 33.2196 64.6295 27.7279ZM100.687 65.3847C100.65 65.3842 100.614 65.3819 100.577 65.3819H76.6851C74.7104 65.3819 72.8933 66.0667 71.4557 67.2093V65.8556C71.4557 62.8404 70.1272 60.0041 67.811 58.0738L61.9056 53.1526C62.0646 53.0504 62.2286 52.9535 62.4006 52.8675L71.9423 48.0967H91.6705L97.7962 51.1597C99.5794 52.0513 100.687 53.8434 100.687 55.8371V65.3847Z" fill="black"/>
</svg>
