<svg width="105" height="93" viewBox="0 0 105 93" fill="none" xmlns="http://www.w3.org/2000/svg">
<path d="M73.7375 55.8618H58.083C60.7579 49.0143 60.2511 42.4231 58.2249 35.782C57.7264 34.1482 56.2076 33.0393 54.4993 33.0393C52.266 33.0393 50.4886 34.9119 50.6044 37.1423C51.2738 50.0315 41.7073 50.8419 34.1582 59.4673V87.5396C37.3681 87.7302 40.0091 88.1356 42.5049 90.0492C43.4511 90.7747 44.6051 91.1785 45.7974 91.1785H73.7375V55.8618Z" fill="#FFCEBF"/>
<path d="M40.3099 84.7443V60.66C40.3099 59.862 40.6239 59.0987 41.1745 58.521C48.5682 50.7631 57.4005 49.5439 56.7564 37.1422C56.7055 36.1621 57.0201 35.2512 57.5783 34.5379C56.8136 33.5581 55.5962 32.9754 54.2895 33.0448C52.1405 33.1588 50.5011 35.0543 50.6077 37.2035C51.2437 50.0338 41.6954 50.8554 34.1582 59.4672V87.5395C37.3681 87.7303 40.0091 88.1355 42.5049 90.0491C43.4511 90.7747 44.6051 91.1785 45.7974 91.1785H51.9493C50.757 91.1785 49.603 90.7744 48.6568 90.0491C46.8831 88.689 45.036 88.0908 42.9636 87.7901C41.4438 87.5699 40.3099 86.2795 40.3099 84.7443Z" fill="#FFB09E"/>
<path d="M20.1699 52.6835H34.1546V91.1744H20.1699V52.6835Z" fill="#F25E6C"/>
<path d="M26.3219 52.6874H20.1699V91.1783L26.3219 91.1748V52.6874Z" fill="#E8465E"/>
<path d="M53.7714 2.85031L55.718 6.79479C55.9271 7.21848 56.3312 7.51215 56.7987 7.58003L61.1517 8.21249C62.3291 8.38353 62.7993 9.83056 61.9472 10.6609L58.7974 13.7311C58.459 14.0609 58.3048 14.5361 58.3846 15.0016L59.1282 19.337C59.3294 20.5096 58.0985 21.4037 57.0454 20.8502L53.152 18.8033C52.7339 18.5835 52.2343 18.5835 51.8162 18.8033L47.9227 20.8502C46.8697 21.4039 45.6388 20.5096 45.84 19.337L46.5836 15.0016C46.6634 14.5359 46.5091 14.0609 46.1708 13.7311L43.021 10.6609C42.1691 9.83056 42.6391 8.38353 43.8165 8.21249L48.1695 7.58003C48.637 7.51215 49.0412 7.21848 49.2502 6.79479L51.1968 2.85031C51.7237 1.78329 53.2449 1.78329 53.7714 2.85031Z" fill="#FED44C"/>
<path d="M58.3846 15.0016L59.1282 19.337C59.3294 20.5096 58.0985 21.4038 57.0454 20.8503L53.152 18.8034C52.7339 18.5835 52.2343 18.5835 51.8162 18.8034L47.9227 20.8503C46.8697 21.404 45.6388 20.5096 45.84 19.337L46.5836 15.0016C46.6634 14.5359 46.5091 14.061 46.1708 13.7312L43.021 10.661C42.1691 9.8306 42.6391 8.38357 43.8165 8.21254L48.1695 7.58008C50.8679 12.2323 52.4841 14.7658 58.3846 15.0016Z" fill="#F2B84C"/>
<path d="M31.1327 11.0528L33.0793 14.9973C33.2885 15.421 33.6925 15.7146 34.1601 15.7825L38.5131 16.415C39.6904 16.586 40.1606 18.033 39.3085 18.8634L36.1588 21.9336C35.8204 22.2634 35.6662 22.7386 35.7459 23.2041L36.4895 27.5394C36.6907 28.7121 35.4598 29.6062 34.4068 29.0527L30.5134 27.0058C30.0952 26.786 29.5956 26.786 29.1775 27.0058L25.2841 29.0527C24.231 29.6064 23.0001 28.7121 23.2013 27.5394L23.9449 23.2041C24.0247 22.7384 23.8705 22.2634 23.5321 21.9336L20.3823 18.8634C19.5304 18.033 20.0004 16.586 21.1778 16.415L25.5308 15.7825C25.9984 15.7146 26.4026 15.421 26.6115 14.9973L28.5581 11.0528C29.0848 9.98598 30.6063 9.98598 31.1327 11.0528Z" fill="#FED44C"/>
<path d="M35.7459 23.204L36.4895 27.5394C36.6907 28.712 35.4598 29.6062 34.4068 29.0527L30.5134 27.0058C30.0952 26.7859 29.5956 26.7859 29.1775 27.0058L25.2841 29.0527C24.231 29.6064 23.0001 28.712 23.2013 27.5394L23.9449 23.204C24.0247 22.7383 23.8705 22.2634 23.5321 21.9336L20.3823 18.8634C19.5304 18.033 20.0004 16.586 21.1778 16.4149L25.5308 15.7825C27.6706 21.0181 30.1891 22.5014 35.7459 23.204Z" fill="#F2B84C"/>
<path d="M12.7069 29.5084L14.6535 33.4528C14.8627 33.8765 15.2667 34.1702 15.7343 34.2381L20.0873 34.8705C21.2646 35.0416 21.7349 36.4886 20.8828 37.319L17.733 40.3892C17.3946 40.719 17.2404 41.1941 17.3201 41.6597L18.0638 45.995C18.2649 47.1676 17.0341 48.0618 15.981 47.5083L12.0876 45.4614C11.6694 45.2415 11.1699 45.2415 10.7517 45.4614L6.85829 47.5083C5.80522 48.062 4.57434 47.1676 4.77552 45.995L5.51913 41.6597C5.59891 41.1939 5.44469 40.719 5.10631 40.3892L1.95652 37.319C1.10462 36.4886 1.57466 35.0416 2.75202 34.8705L7.105 34.2381C7.57258 34.1702 7.97679 33.8765 8.18576 33.4528L10.1324 29.5084C10.659 28.4415 12.1805 28.4415 12.7069 29.5084Z" fill="#FED44C"/>
<path d="M17.3201 41.6598L18.0638 45.9952C18.2649 47.1678 17.0341 48.0619 15.981 47.5084L12.0876 45.4616C11.6694 45.2417 11.1699 45.2417 10.7517 45.4616L6.85829 47.5084C5.80522 48.0621 4.57434 47.1678 4.77552 45.9952L5.51913 41.6598C5.59891 41.1941 5.44469 40.7191 5.10631 40.3894L1.95652 37.3189C1.10462 36.4886 1.57466 35.0415 2.75202 34.8705L7.105 34.238C8.73619 39.1636 11.8122 41.2827 17.3201 41.6598Z" fill="#F2B84C"/>
<path d="M94.8319 29.5084L96.7785 33.4528C96.9877 33.8765 97.3917 34.1702 97.8593 34.2381L102.212 34.8705C103.39 35.0416 103.86 36.4886 103.008 37.319L99.858 40.3892C99.5196 40.719 99.3654 41.1941 99.4452 41.6597L100.189 45.995C100.39 47.1676 99.1591 48.0618 98.106 47.5083L94.2126 45.4614C93.7944 45.2415 93.2949 45.2415 92.8767 45.4614L88.9833 47.5083C87.9302 48.062 86.6993 47.1676 86.9005 45.995L87.6441 41.6597C87.7239 41.1939 87.5697 40.719 87.2313 40.3892L84.0815 37.319C83.2296 36.4886 83.6997 35.0416 84.877 34.8705L89.23 34.2381C89.6976 34.1702 90.1018 33.8765 90.3108 33.4528L92.2574 29.5084C92.784 28.4415 94.3055 28.4415 94.8319 29.5084Z" fill="#FED44C"/>
<path d="M99.4452 41.6599L100.189 45.9952C100.39 47.1678 99.1591 48.062 98.106 47.5085L94.2126 45.4616C93.7944 45.2417 93.2949 45.2417 92.8767 45.4616L88.9833 47.5085C87.9302 48.0622 86.6993 47.1678 86.9005 45.9952L87.6441 41.6599C87.7239 41.1941 87.5697 40.7192 87.2313 40.3894L84.0815 37.3192C83.2296 36.4888 83.6997 35.0418 84.877 34.8707L89.23 34.2383C91.2412 38.7537 93.8873 41.2144 99.4452 41.6599Z" fill="#F2B84C"/>
<path d="M76.4686 11.0528L78.4152 14.9973C78.6244 15.421 79.0284 15.7146 79.496 15.7825L83.849 16.415C85.0263 16.586 85.4966 18.033 84.6445 18.8634L81.4947 21.9336C81.1563 22.2634 81.0021 22.7386 81.0819 23.2041L81.8255 27.5394C82.0267 28.7121 80.7958 29.6062 79.7427 29.0527L75.8493 27.0058C75.4311 26.786 74.9316 26.786 74.5134 27.0058L70.62 29.0527C69.5669 29.6064 68.3361 28.7121 68.5372 27.5394L69.2809 23.2041C69.3606 22.7384 69.2064 22.2634 68.868 21.9336L65.7182 18.8634C64.8663 18.033 65.3364 16.586 66.5137 16.415L70.8667 15.7825C71.3343 15.7146 71.7385 15.421 71.9475 14.9973L73.8941 11.0528C74.4207 9.98598 75.942 9.98598 76.4686 11.0528Z" fill="#FED44C"/>
<path d="M81.0819 23.204L81.8255 27.5394C82.0267 28.712 80.7958 29.6062 79.7427 29.0527L75.8493 27.0058C75.4311 26.7859 74.9316 26.7859 74.5134 27.0058L70.62 29.0527C69.5669 29.6064 68.3361 28.712 68.5372 27.5394L69.2809 23.204C69.3606 22.7383 69.2064 22.2634 68.868 21.9336L65.7182 18.8634C64.8663 18.033 65.3364 16.586 66.5137 16.4149L70.8667 15.7825C73.5651 21.0181 75.1814 22.8954 81.0819 23.204Z" fill="#F2B84C"/>
<path d="M78.3198 64.691H69.1528C66.7146 64.691 64.7383 62.7144 64.7383 60.2765C64.7383 57.8383 66.7148 55.8619 69.1528 55.8619H78.3198C80.758 55.8619 82.7343 57.8385 82.7343 60.2765C82.7343 62.7144 80.7578 64.691 78.3198 64.691Z" fill="#FFCEBF"/>
<path d="M70.8904 60.2765C70.8904 57.8384 72.867 55.8618 75.3049 55.8618H69.153C66.7148 55.8618 64.7383 57.8384 64.7383 60.2763C64.7383 62.7145 66.7148 64.6908 69.153 64.6908H75.3049C72.8668 64.691 70.8904 62.7145 70.8904 60.2765Z" fill="#FFB09E"/>
<path d="M78.3198 82.3494H69.1528C66.7146 82.3494 64.7383 80.3729 64.7383 77.9349C64.7383 75.4967 66.7148 73.5204 69.1528 73.5204H78.3198C80.758 73.5204 82.7343 75.4969 82.7343 77.9349C82.7343 80.3729 80.7578 82.3494 78.3198 82.3494Z" fill="#FFCEBF"/>
<path d="M70.8904 77.9349C70.8904 75.4967 72.867 73.5204 75.3049 73.5204H69.153C66.7148 73.5204 64.7383 75.4969 64.7383 77.9349C64.7383 80.3729 66.7148 82.3494 69.153 82.3494H75.3049C72.8668 82.3494 70.8904 80.3729 70.8904 77.9349Z" fill="#FFB09E"/>
<path d="M76.2692 91.1786H71.2036C68.7654 91.1786 66.7891 89.2021 66.7891 86.7641C66.7891 84.3259 68.7656 82.3496 71.2036 82.3496H76.2692C78.7074 82.3496 80.6837 84.3262 80.6837 86.7641C80.6839 89.2021 78.7074 91.1786 76.2692 91.1786Z" fill="#FFCEBF"/>
<path d="M72.9408 86.7642C72.9408 84.51 74.6304 82.6505 76.8123 82.3827C76.6342 82.3608 76.453 82.3495 76.2692 82.3495H71.2036C68.7654 82.3495 66.7891 84.326 66.7891 86.764C66.7891 89.2022 68.7656 91.1785 71.2036 91.1785H76.2692C76.4532 91.1785 76.6342 91.1672 76.8123 91.1453C74.6304 90.8779 72.9408 89.0184 72.9408 86.7642Z" fill="#FFB09E"/>
<path d="M80.3706 73.5202H71.2036C68.7654 73.5202 66.7891 71.5436 66.7891 69.1057C66.7891 66.6675 68.7656 64.6912 71.2036 64.6912H80.3706C82.8087 64.6912 84.7851 66.6677 84.7851 69.1057C84.7851 71.5436 82.8087 73.5202 80.3706 73.5202Z" fill="#FFCEBF"/>
<path d="M72.941 69.1058C72.941 66.6676 74.9175 64.691 77.3555 64.691H71.2036C68.7654 64.691 66.7891 66.6676 66.7891 69.1056C66.7891 71.5437 68.7656 73.5201 71.2036 73.5201H77.3555C74.9173 73.5203 72.941 71.5437 72.941 69.1058Z" fill="#FFB09E"/>
<path d="M54.6026 89.6402H45.7969C44.959 89.6402 44.1221 89.3518 43.4392 88.8277C40.9391 86.911 38.2771 86.3483 35.6952 86.111V60.0548C37.9043 57.6297 40.2719 55.8626 42.5659 54.1504C47.7448 50.2851 52.6363 46.6341 52.1398 37.0618C52.2142 35.558 53.0003 34.7297 54.4982 34.5767C55.5289 34.5767 56.4561 35.2569 56.7532 36.2315C57.3551 38.2045 57.7784 40.031 58.0465 41.8149C58.1728 42.6549 58.9562 43.2341 59.7962 43.1071C60.6364 42.9808 61.2147 42.1974 61.0886 41.3574C60.7976 39.4229 60.3419 37.4527 59.6955 35.3343C58.9966 33.0413 56.9081 31.5007 54.4982 31.5007C51.0496 31.8526 49.2394 33.7599 49.0679 37.222C49.4793 45.1522 45.8078 47.8926 40.726 51.6853C39.1354 52.8725 37.406 54.1635 35.6925 55.7219V52.6804C35.6925 51.7686 34.9393 51.2649 34.1538 51.1423L20.1681 51.1484C19.3191 51.1489 18.6309 51.8373 18.6309 52.6865V67.9683C18.6309 68.8178 19.3195 69.5064 20.1689 69.5064C21.0184 69.5064 21.707 68.8178 21.707 67.9683V54.2238L32.6168 54.2191V89.633L21.707 89.6394V74.6721C21.707 73.8227 21.0184 73.134 20.1689 73.134C19.3195 73.134 18.6309 73.8227 18.6309 74.6721V91.1783C18.6309 92.09 19.3843 92.5937 20.1698 92.7163L34.1555 92.7081C35.0045 92.7077 35.6925 92.0193 35.6925 91.1701V89.2032C38.0872 89.4497 39.856 89.9568 41.5666 91.2681C42.7827 92.202 44.2851 92.7161 45.7967 92.7161H54.6024C55.4518 92.7161 56.1405 92.0275 56.1405 91.1781C56.1405 90.3286 55.4522 89.6402 54.6026 89.6402Z" fill="black"/>
<path d="M27.873 65.7315V61.8096C27.873 60.9601 27.1844 60.2715 26.335 60.2715C25.4855 60.2715 24.7969 60.9601 24.7969 61.8096V65.7315C24.7969 66.5809 25.4855 67.2696 26.335 67.2696C27.1844 67.2696 27.873 66.5809 27.873 65.7315Z" fill="black"/>
<path d="M83.1013 63.8176C85.9962 59.9182 83.0798 54.3239 78.3193 54.3239L60.2431 54.3231C60.8311 52.39 61.2078 50.4098 61.3667 48.4119C61.434 47.5651 60.8021 46.8242 59.9554 46.7567C59.1074 46.6897 58.3675 47.3213 58.3002 48.1681C58.1058 50.614 57.5711 52.9339 56.6665 55.2578C56.5872 55.4432 56.5433 55.6475 56.5433 55.862V59.617C56.5433 63.8791 53.0756 67.3468 48.8135 67.3468C47.964 67.3468 47.2754 68.0354 47.2754 68.8848C47.2754 69.7343 47.964 70.4229 48.8135 70.4229C54.772 70.4229 59.6192 65.5755 59.6192 59.6172V57.3992H63.9425C62.4052 60.1717 63.6074 64.1057 66.4211 65.5648C64.8602 67.9255 64.8602 70.2861 66.4211 72.647C62.2069 74.8323 62.2069 81.038 66.4211 83.2233C65.0192 85.3204 64.8764 87.4594 65.9927 89.6406H61.306C60.4566 89.6406 59.7679 90.3293 59.7679 91.1787C59.7679 92.0281 60.4564 92.7168 61.306 92.7168L76.2687 92.7172C81.0292 92.7172 83.9456 87.1227 81.0507 83.2233C84.1355 81.6235 85.1997 77.2204 83.1013 74.3941C87.3155 72.2083 87.3155 66.0029 83.1013 63.8176ZM66.2759 60.2765C66.2759 58.6902 67.5664 57.3999 69.1525 57.3999H78.3195C79.9056 57.3999 81.1961 58.6902 81.1961 60.2765C81.1961 61.8628 79.9056 63.1531 78.3195 63.1531H69.1525C67.5664 63.1531 66.2759 61.8626 66.2759 60.2765ZM76.2689 89.6406H71.2347C71.224 89.6404 71.2135 89.6402 71.2029 89.6402H71.1576C69.5924 89.6156 68.3267 88.3349 68.3267 86.764C68.3267 85.1777 69.6172 83.8873 71.2033 83.8873H76.2689C77.855 83.8873 79.1456 85.1777 79.1456 86.764C79.1456 88.3502 77.855 89.6406 76.2689 89.6406ZM78.3193 80.8114H69.1523C67.5662 80.8114 66.2757 79.521 66.2757 77.9347C66.2757 76.3485 67.5662 75.0581 69.1523 75.0581H78.3193C79.9054 75.0581 81.1959 76.3485 81.1959 77.9347C81.1959 79.521 79.9056 80.8114 78.3193 80.8114ZM80.3701 71.9821H71.2031C69.617 71.9821 68.3265 70.6918 68.3265 69.1057C68.3265 67.5194 69.617 66.2291 71.2031 66.2291H80.3701C81.9562 66.2291 83.2467 67.5194 83.2467 69.1057C83.2467 70.6918 81.9562 71.9821 80.3701 71.9821Z" fill="black"/>
<path d="M41.948 11.7622L45.059 14.7949L44.3246 19.0771C43.9983 21.8266 46.0235 23.2878 48.6391 22.2117L52.4845 20.1899L56.3301 22.2117C58.2703 23.2314 61.0799 21.6154 60.6445 19.0771L59.9102 14.7947L63.0212 11.7622C64.9155 9.80409 64.2746 7.13828 61.3732 6.69039L57.0737 6.06552L55.1509 2.16944C54.0466 -0.141788 51.156 -0.54169 49.8181 2.16944L47.8952 6.06552L43.5958 6.69039C40.7942 7.29209 40.0764 9.70176 41.948 11.7622ZM48.3909 9.10211C49.3597 8.96143 50.1966 8.35337 50.63 7.47543L52.4847 3.71737L54.3394 7.47543C54.7725 8.35337 55.6097 8.96143 56.5785 9.10211L60.7255 9.70483L57.7246 12.6301C57.0237 13.3134 56.7042 14.2974 56.8695 15.262L57.5778 19.3925L53.8683 17.4424C52.9459 16.987 52.0237 16.987 51.1012 17.4424L47.392 19.3925L48.1003 15.2618C48.2658 14.2969 47.9459 13.3132 47.2451 12.6301L44.2442 9.70483L48.3909 9.10211Z" fill="black"/>
<path d="M19.3087 19.9647L22.4197 22.9972L21.6853 27.2794C21.25 29.8173 24.0593 31.4341 25.9998 30.4143L29.8452 28.3924L33.6908 30.4143C36.1269 31.501 38.229 29.9783 38.0053 27.2796L37.2709 22.9976L40.3821 19.9649C42.1767 18.0329 41.5615 15.5463 38.7341 14.8931L34.4346 14.2683L32.5118 10.3722C31.0004 7.77918 28.6166 8.00989 27.179 10.3722L25.2562 14.2683L20.9567 14.8931C18.1065 15.495 17.4144 17.9301 19.3087 19.9647ZM25.752 17.3044C26.7206 17.1636 27.5573 16.5555 27.9907 15.678L29.8454 11.9199L31.7001 15.678C32.1333 16.5557 32.9702 17.1638 33.939 17.3046L38.0863 17.9074L35.0856 20.8324C34.3844 21.5155 34.0647 22.4997 34.2302 23.4644L34.9385 27.5946L31.2293 25.6446C30.3068 25.1889 29.3844 25.1889 28.4617 25.6446L24.7525 27.5946L25.4608 23.4644C25.6263 22.4997 25.3068 21.5157 24.6057 20.8324L21.6047 17.9072L25.752 17.3044Z" fill="black"/>
<path d="M19.5805 45.7352L18.8461 41.4529L21.9572 38.4202C23.8751 36.617 22.9785 33.7974 20.3094 33.3485L16.0097 32.7236L14.0869 28.8275C13.2627 26.8762 10.0922 26.1164 8.75403 28.8275L6.83122 32.7236L2.53176 33.3485C-0.27207 33.9512 -0.630957 36.5659 0.883955 38.4204L3.99499 41.4531L3.26061 45.7354C2.95791 48.5628 4.95742 50.1007 7.57504 48.87L11.4207 46.8481L15.2663 48.87C17.2065 49.8896 20.0159 48.273 19.5805 45.7352ZM16.6604 39.2877C15.9595 39.9708 15.6397 40.9548 15.805 41.9197L16.5134 46.05L12.8039 44.0999C11.9377 43.6444 10.9033 43.6444 10.0366 44.0999L6.32734 46.05L7.03568 41.9195C7.20118 40.9546 6.88146 39.9706 6.18051 39.2877L3.1796 36.3625L7.32648 35.76C8.29527 35.6193 9.1322 35.0112 9.56553 34.1333L11.4203 30.3752L13.275 34.1331C13.7083 35.011 14.5452 35.6191 15.5138 35.7598L19.6609 36.3625L16.6604 39.2877Z" fill="black"/>
<path d="M102.433 33.3487L98.1337 32.7238L96.2107 28.8278C94.8551 26.0818 92.2158 26.1164 90.8779 28.8278L88.9548 32.7238L84.6556 33.3487C81.8476 33.8745 81.1153 36.3353 83.0074 38.4205L86.1186 41.4532L85.384 45.7354C84.9488 48.2735 87.7582 49.8897 89.6984 48.8701L93.5439 46.8482L97.3895 48.8701C100.007 50.0497 102.058 48.5118 101.704 45.7354L100.969 41.4532L104.081 38.4205C105.826 36.7454 104.98 33.7462 102.433 33.3487ZM98.784 39.288C98.0831 39.9713 97.7636 40.9553 97.9291 41.92L98.6374 46.0502L94.9279 44.1001C94.0055 43.6447 93.0831 43.6447 92.1606 44.1001L88.4514 46.0502L89.1597 41.92C89.3254 40.9549 89.0055 39.9709 88.3045 39.288L85.3036 36.3628L89.4509 35.76C90.4195 35.6193 91.2564 35.0113 91.6898 34.1336L93.5447 30.3755L95.3994 34.1333C95.8325 35.0113 96.6695 35.6193 97.6383 35.76L101.786 36.3628L98.784 39.288Z" fill="black"/>
<path d="M64.6455 19.9647L67.7565 22.9972L67.022 27.2794C66.6838 30.055 68.7087 31.5006 71.3364 30.4141L75.1818 28.3922L79.0274 30.4141C80.9679 31.4337 83.7772 29.8175 83.3419 27.2794L82.6075 22.9972L85.7185 19.9647C87.5749 17.7251 87.0109 15.4692 84.0705 14.8929L79.771 14.2681L77.848 10.3722C76.7574 8.16186 73.606 8.16227 72.5152 10.3722L70.5924 14.2683L66.2929 14.8931C63.4027 15.4438 62.685 17.7507 64.6455 19.9647ZM71.0889 17.3045C72.0574 17.1636 72.8944 16.5555 73.3277 15.6778L75.1824 11.9199L77.0371 15.6778C77.4703 16.5555 78.3072 17.1636 79.2762 17.3045L83.4233 17.9072L80.4224 20.8324C79.7214 21.5157 79.4019 22.4997 79.5672 23.4644L80.2755 27.5949L76.5665 25.6448C75.6441 25.1893 74.7214 25.1893 73.7988 25.6448L70.0895 27.5949L70.7978 23.4646C70.9636 22.4999 70.6438 21.5159 69.9429 20.8326L66.942 17.9074L71.0889 17.3045Z" fill="black"/>
</svg>
