<svg width="101" height="101" viewBox="0 0 101 101" fill="none" xmlns="http://www.w3.org/2000/svg">
<path d="M53.8665 31.9834C53.8617 38.4729 56.7422 44.6287 61.7277 48.783L57.755 72.6359C57.6564 73.2479 57.9021 73.8647 58.3947 74.2412C58.8873 74.6177 59.547 74.6929 60.1117 74.437L75.7499 67.3334L90.8999 74.2182V90.9C90.8999 95.5484 87.1316 99.3167 82.4832 99.3167H11.7832C16.4316 99.3167 20.1999 95.5484 20.1999 90.9V5.05002C20.2054 3.19296 21.7095 1.6889 23.5665 1.68335H87.5332C89.3903 1.6889 90.8943 3.19296 90.8999 5.05002V16.2105C84.5793 10.1289 75.2366 8.41201 67.1667 11.849C59.0968 15.2861 53.8612 23.212 53.8665 31.9834Z" fill="#FFEB3A"/>
<path d="M87.5344 1.68335H82.4844C84.3414 1.6889 85.8455 3.19296 85.851 5.05002V12.5728C87.7 13.5372 89.4007 14.7623 90.901 16.2105V5.05002C90.8955 3.19296 89.3914 1.6889 87.5344 1.68335Z" fill="#FDD834"/>
<path d="M73.2246 68.4814L85.8496 74.2182V90.9C85.8496 95.5484 82.0813 99.3167 77.4329 99.3167H82.4829C87.1313 99.3167 90.8996 95.5484 90.8996 90.9V74.2182L75.7496 67.3334L73.2246 68.4814Z" fill="#FDD834"/>
<path d="M20.2005 45.4501V90.9001C20.2005 95.5485 16.4323 99.3167 11.7839 99.3167C7.13546 99.3167 3.36719 95.5485 3.36719 90.9001V48.8167C3.37273 46.9597 4.8768 45.4556 6.73385 45.4501H20.2005Z" fill="#FFDC00"/>
<path d="M15.1514 45.45V90.9C15.141 94.5632 12.7564 97.7968 9.25977 98.889C10.0746 99.1601 10.9262 99.3043 11.7848 99.3166C16.4332 99.3166 20.2014 95.5484 20.2014 90.9V45.45H15.1514Z" fill="#FEC108"/>
<path d="M97.6335 31.9833C97.6487 42.4001 90.3291 51.3882 80.125 53.4828C69.9209 55.5775 59.6524 50.1999 55.5626 40.6195C51.4728 31.0391 54.692 19.9036 63.2629 13.9833C71.8338 8.06306 83.3878 8.99412 90.9002 16.2105C95.2007 20.3305 97.6328 26.0277 97.6335 31.9833Z" fill="#FFDC00"/>
<path d="M90.8996 16.2105C86.837 12.2802 81.4023 10.0882 75.7496 10.1C74.9056 10.1043 74.0625 10.1572 73.2246 10.2583C84.2645 11.5237 92.5995 20.8686 92.5995 31.9808C92.5995 43.0931 84.2645 52.4379 73.2246 53.7034C82.5546 54.7992 91.5415 49.8115 95.5473 41.3142C99.5532 32.8169 97.682 22.7105 90.8996 16.2105Z" fill="#FEC108"/>
<path d="M91.3889 74.437L90.9007 74.2181L75.7507 67.3333L60.1125 74.437C59.5478 74.6929 58.8882 74.6176 58.3956 74.2411C57.903 73.8647 57.6572 73.2479 57.7559 72.6358L61.7285 48.783C69.8484 55.56 81.653 55.56 89.7729 48.783L93.7455 72.6358C93.8442 73.2479 93.5984 73.8647 93.1058 74.2411C92.6133 74.6176 91.9536 74.6929 91.3889 74.437Z" fill="#F44335"/>
<path d="M93.7454 72.6358L89.7728 48.783C88.3778 49.9414 86.8457 50.924 85.2109 51.7086L88.6954 72.6358C88.7244 72.8264 88.7204 73.0206 88.6837 73.2098L90.9006 74.2198L91.3888 74.4386C91.9538 74.6948 92.6139 74.6194 93.1066 74.2425C93.5994 73.8656 93.8448 73.2482 93.7454 72.6358Z" fill="#C81E1E"/>
<path d="M75.7496 47.1367C84.1167 47.1367 90.8996 40.3538 90.8996 31.9867C90.8996 23.6196 84.1167 16.8367 75.7496 16.8367C67.3825 16.8367 60.5996 23.6196 60.5996 31.9867C60.5996 40.3538 67.3825 47.1367 75.7496 47.1367Z" fill="#FFEB3A"/>
<path d="M11.7836 101H82.4836C88.0594 100.994 92.578 96.4758 92.5836 90.9V76.191C93.146 76.1231 93.6812 75.9109 94.1373 75.5749C95.1218 74.82 95.6093 73.5834 95.4049 72.3598L91.582 49.3974C96.3295 45.1085 99.1207 39.0676 99.3097 32.6725C99.4988 26.2774 97.0694 20.0822 92.5836 15.5203V5.05C92.5836 2.26096 90.3226 0 87.5336 0H23.5669C20.7779 0 18.5169 2.26096 18.5169 5.05V43.7667H6.73359C3.94456 43.7667 1.68359 46.0276 1.68359 48.8167V90.9C1.68916 96.4758 6.20783 100.994 11.7836 101ZM92.0786 72.9052L77.4336 66.2493V55.4759C81.3986 55.2 85.2277 53.9173 88.5587 51.749L92.0786 72.9052ZM74.0669 55.4709V66.2442L59.4219 72.9069L62.9485 51.7389C66.2771 53.9079 70.1038 55.1923 74.0669 55.4709ZM75.7503 52.1833C67.5801 52.1833 60.2145 47.2618 57.0879 39.7135C53.9613 32.1653 55.6895 23.4769 61.4667 17.6998C67.2439 11.9226 75.9322 10.1944 83.4805 13.321C91.0287 16.4475 95.9503 23.8132 95.9503 31.9833C95.9364 43.1337 86.9007 52.1694 75.7503 52.1833ZM21.8836 5.05C21.8836 4.12032 22.6372 3.36667 23.5669 3.36667H87.5336C88.4633 3.36667 89.2169 4.12032 89.2169 5.05V12.6704C79.036 5.56686 65.0882 7.592 57.3479 17.2977C49.6076 27.0033 50.7363 41.0521 59.9269 49.3974L56.094 72.3631C55.8944 73.5881 56.3851 74.8236 57.3707 75.5779C58.3563 76.3322 59.677 76.4831 60.8073 75.9705L75.7503 69.185L89.2169 75.3039V90.9C89.2169 94.6187 86.2023 97.6333 82.4836 97.6333H19.2913C20.9592 95.7872 21.8829 93.388 21.8836 90.9V5.05ZM5.05026 48.8167C5.05026 47.887 5.80391 47.1333 6.73359 47.1333H18.5169V90.9C18.5169 94.6187 15.5023 97.6333 11.7836 97.6333C8.06488 97.6333 5.05026 94.6187 5.05026 90.9V48.8167Z" fill="black"/>
<path d="M75.7493 15.15C66.4526 15.15 58.916 22.6866 58.916 31.9834C58.916 41.2802 66.4526 48.8167 75.7493 48.8167C85.0461 48.8167 92.5827 41.2802 92.5827 31.9834C92.5725 22.6908 85.0419 15.1602 75.7493 15.15ZM75.7493 45.45C68.3119 45.45 62.2827 39.4208 62.2827 31.9834C62.2827 24.5459 68.3119 18.5167 75.7493 18.5167C83.1868 18.5167 89.216 24.5459 89.216 31.9834C89.2077 39.4173 83.1833 45.4417 75.7493 45.45Z" fill="black"/>
<path d="M28.6169 13.4666H48.8169C49.7466 13.4666 50.5003 12.713 50.5003 11.7833C50.5003 10.8536 49.7466 10.1 48.8169 10.1H28.6169C27.6872 10.1 26.9336 10.8536 26.9336 11.7833C26.9336 12.713 27.6872 13.4666 28.6169 13.4666Z" fill="black"/>
<path d="M28.6169 23.5666H42.0836C43.0133 23.5666 43.7669 22.813 43.7669 21.8833C43.7669 20.9536 43.0133 20.2 42.0836 20.2H28.6169C27.6872 20.2 26.9336 20.9536 26.9336 21.8833C26.9336 22.813 27.6872 23.5666 28.6169 23.5666Z" fill="black"/>
<path d="M28.6169 33.6667H37.0336C37.9633 33.6667 38.7169 32.9131 38.7169 31.9834C38.7169 31.0537 37.9633 30.3 37.0336 30.3H28.6169C27.6872 30.3 26.9336 31.0537 26.9336 31.9834C26.9336 32.9131 27.6872 33.6667 28.6169 33.6667Z" fill="black"/>
<path d="M28.6169 43.7667H45.4503C46.3799 43.7667 47.1336 43.013 47.1336 42.0834C47.1336 41.1537 46.3799 40.4 45.4503 40.4H28.6169C27.6872 40.4 26.9336 41.1537 26.9336 42.0834C26.9336 43.013 27.6872 43.7667 28.6169 43.7667Z" fill="black"/>
<path d="M28.6169 53.8667H48.8169C49.7466 53.8667 50.5003 53.113 50.5003 52.1833C50.5003 51.2537 49.7466 50.5 48.8169 50.5H28.6169C27.6872 50.5 26.9336 51.2537 26.9336 52.1833C26.9336 53.113 27.6872 53.8667 28.6169 53.8667Z" fill="black"/>
<path d="M28.6169 63.9666H52.1836C53.1133 63.9666 53.8669 63.213 53.8669 62.2833C53.8669 61.3536 53.1133 60.6 52.1836 60.6H28.6169C27.6872 60.6 26.9336 61.3536 26.9336 62.2833C26.9336 63.213 27.6872 63.9666 28.6169 63.9666Z" fill="black"/>
<path d="M28.6169 74.0666H50.5003C51.4299 74.0666 52.1836 73.313 52.1836 72.3833C52.1836 71.4536 51.4299 70.7 50.5003 70.7H28.6169C27.6872 70.7 26.9336 71.4536 26.9336 72.3833C26.9336 73.313 27.6872 74.0666 28.6169 74.0666Z" fill="black"/>
<path d="M28.6169 84.1667H82.4836C83.4133 84.1667 84.1669 83.4131 84.1669 82.4834C84.1669 81.5537 83.4133 80.8 82.4836 80.8H28.6169C27.6872 80.8 26.9336 81.5537 26.9336 82.4834C26.9336 83.4131 27.6872 84.1667 28.6169 84.1667Z" fill="black"/>
</svg>
