<svg width="101" height="101" viewBox="0 0 101 101" fill="none" xmlns="http://www.w3.org/2000/svg">
<path d="M23.9528 69.1566L4.79119 88.3182C4.27291 88.8362 3.86177 89.4513 3.58124 90.1282C3.30072 90.8052 3.1563 91.5308 3.15625 92.2635C3.15625 93.7435 3.74417 95.1629 4.79067 96.2094C5.83717 97.2559 7.25653 97.8438 8.7365 97.8438C9.46927 97.8437 10.1949 97.6993 10.8718 97.4188C11.5487 97.1383 12.1638 96.7271 12.6818 96.2088L31.5625 77.3281" fill="#5A5B5D"/>
<path d="M23.953 69.1566L27.7578 73.244L9.52573 91.4745C8.71411 92.2945 7.66572 92.8392 6.52819 93.032C5.39067 93.2248 4.22132 93.0559 3.18483 92.5492C3.18483 92.4529 3.15642 92.3614 3.15642 92.2635C3.15647 91.5308 3.30089 90.8052 3.58141 90.1282C3.86194 89.4513 4.27308 88.8362 4.79136 88.3182L23.953 69.1566Z" fill="#77787C"/>
<path d="M4.79119 88.3182L18.9375 74.1719L26.8281 82.0625L12.6818 96.2088C12.1668 96.7408 11.5511 97.165 10.8705 97.4567C10.19 97.7483 9.45814 97.9016 8.71774 97.9076C7.97733 97.9136 7.24312 97.7722 6.55791 97.4917C5.87269 97.2111 5.25017 96.797 4.7266 96.2734C4.20304 95.7498 3.7889 95.1273 3.50833 94.4421C3.22775 93.7569 3.08636 93.0227 3.09237 92.2823C3.09838 91.5419 3.25168 90.81 3.54334 90.1295C3.835 89.4489 4.25919 88.8332 4.79119 88.3182Z" fill="#77787C"/>
<path d="M73.225 34.1648C72.3994 33.7859 71.6695 33.2262 71.0893 32.5272C70.5091 31.8282 70.0935 31.0077 69.8731 30.1264L69.4375 28.4062C70.2746 28.4062 71.0774 28.0737 71.6693 27.4818C72.2612 26.8899 72.5938 26.0871 72.5938 25.25V14.2031C72.5938 11.2733 73.7576 8.4635 75.8293 6.3918C77.901 4.32011 80.7108 3.15625 83.6406 3.15625C86.5704 3.15625 89.3803 4.32011 91.4519 6.3918C93.5236 8.4635 94.6875 11.2733 94.6875 14.2031V25.25C94.6875 26.0871 95.02 26.8899 95.6119 27.4818C96.2039 28.0737 97.0067 28.4062 97.8438 28.4062L97.4145 30.1264C97.1934 31.0083 96.7768 31.8292 96.1955 32.5282C95.6142 33.2273 94.883 33.7866 94.0562 34.1648H73.225Z" fill="#936C42"/>
<path d="M72.5938 25.25V14.2031C72.5946 11.6852 73.4556 9.24311 75.0342 7.28142C76.6127 5.31974 78.814 3.95618 81.2734 3.41663C83.7329 3.95618 85.9342 5.31974 87.5127 7.28142C89.0912 9.24311 89.9523 11.6852 89.9531 14.2031V25.25C89.9531 26.0871 90.2857 26.8899 90.8776 27.4818C91.4695 28.0737 92.2723 28.4062 93.1094 28.4062L92.6801 30.1264C92.4591 31.0083 92.0424 31.8292 91.4611 32.5282C90.8798 33.2273 90.1487 33.7866 89.3219 34.1648H73.225C72.3994 33.7859 71.6695 33.2262 71.0893 32.5272C70.5091 31.8282 70.0935 31.0077 69.8731 30.1264L69.4375 28.4062C70.2746 28.4062 71.0774 28.0737 71.6693 27.4818C72.2612 26.8899 72.5938 26.0871 72.5938 25.25Z" fill="#CEAE84"/>
<path d="M91.5312 17.3594H93.1094C93.9465 17.3594 94.7493 17.6919 95.3412 18.2838C95.9331 18.8757 96.2656 19.6785 96.2656 20.5156C96.2656 21.3527 95.9331 22.1555 95.3412 22.7474C94.7493 23.3393 93.9465 23.6719 93.1094 23.6719H90.8748" fill="#ECB8AD"/>
<path d="M75.7497 17.3594H74.1716C73.3345 17.3594 72.5317 17.6919 71.9398 18.2838C71.3479 18.8757 71.0154 19.6785 71.0154 20.5156C71.0154 21.3527 71.3479 22.1555 71.9398 22.7474C72.5317 23.3393 73.3345 23.6719 74.1716 23.6719H76.4062" fill="#ECB8AD"/>
<path d="M86.7969 27.7482V31.5625L90.0383 32.1022C91.7783 32.3924 93.359 33.2904 94.4992 34.6363C95.6395 35.9823 96.2654 37.6891 96.2656 39.4531V50.5H71.0156V39.4531C71.0159 37.6891 71.6418 35.9823 72.782 34.6363C73.9222 33.2904 75.5029 32.3924 77.2429 32.1022L80.4844 31.5625V27.7482H86.7969Z" fill="#4F61A6"/>
<path d="M77.2429 32.1022L80.4844 31.5625V27.7482H83.6406V31.5625L86.8821 32.1022C88.6221 32.3924 90.2028 33.2904 91.343 34.6363C92.4832 35.9823 93.1091 37.6891 93.1094 39.4531V50.5H71.0156V39.4531C71.0159 37.6891 71.6418 35.9823 72.782 34.6363C73.9222 33.2904 75.5029 32.3924 77.2429 32.1022Z" fill="#7383BC"/>
<path d="M75.75 15.7812V20.5156C75.75 22.6083 76.5813 24.6154 78.0611 26.0951C79.5409 27.5749 81.5479 28.4062 83.6406 28.4062C85.7333 28.4062 87.7404 27.5749 89.2201 26.0951C90.6999 24.6154 91.5312 22.6083 91.5312 20.5156V15.7812H88.6307C87.1775 15.7813 85.7612 15.324 84.5823 14.4743C83.4035 13.6246 82.5219 12.4255 82.0625 11.0469L75.75 15.7812Z" fill="#ECB8AD"/>
<path d="M80.4844 27.7434V31.5625L83.6406 37.875L86.7969 31.5625V27.7434H80.4844Z" fill="#ECB8AD"/>
<path d="M86.7969 29.3279V31.5625L83.6406 37.875L80.4844 31.5625V29.3279C81.4803 29.7609 82.5547 29.9843 83.6406 29.9843C84.7266 29.9843 85.801 29.7609 86.7969 29.3279Z" fill="#FDE1D5"/>
<path d="M91.1875 32.391L89.9534 39.4531L83.6409 37.875L86.7972 31.5625L91.1875 32.391Z" fill="#223584"/>
<path d="M76.094 32.391L77.3281 39.4531L83.6406 37.875L80.4844 31.5625L76.094 32.391Z" fill="#223584"/>
<path d="M78.9062 44.1875H75.75V50.5H78.9062V44.1875Z" fill="#17256B"/>
<path d="M91.5312 44.1875H88.375V50.5H91.5312V44.1875Z" fill="#17256B"/>
<path d="M88.6307 15.7812H89.9531V20.5156C89.949 22.4666 89.22 24.3464 87.9077 25.79C86.5953 27.2336 84.7933 28.1379 82.8516 28.3273C80.9098 28.1379 79.1078 27.2336 77.7955 25.79C76.4831 24.3464 75.7541 22.4666 75.75 20.5156V15.7812L82.0625 11.0469C82.5219 12.4255 83.4035 13.6246 84.5823 14.4743C85.7612 15.324 87.1775 15.7813 88.6307 15.7812Z" fill="#FDE1D5"/>
<path d="M15.7812 27.7498V31.5625L10.9853 32.1622C8.82373 32.4326 6.83528 33.483 5.39361 35.1162C3.95195 36.7494 3.15633 38.8528 3.15625 41.0313V50.5H34.7188V41.0313C34.7187 38.8528 33.923 36.7494 32.4814 35.1162C31.0397 33.483 29.0513 32.4326 26.8897 32.1622L22.0938 31.5625V27.7498H15.7812Z" fill="#B4B5B9"/>
<path d="M10.9853 32.1622L15.7812 31.5625V27.7498H18.9375V31.5625L23.7334 32.1622C25.895 32.4326 27.8835 33.483 29.3251 35.1162C30.7668 36.7494 31.5624 38.8528 31.5625 41.0313V50.5H3.15625V41.0313C3.15633 38.8528 3.95195 36.7494 5.39361 35.1162C6.83528 33.483 8.82373 32.4326 10.9853 32.1622Z" fill="#DCDDDF"/>
<path d="M10.5876 32.2222L12.625 36.2969V39.4531L18.9375 37.875L15.7812 31.5625L10.5876 32.2222Z" fill="#77787C"/>
<path d="M27.2871 32.2222L25.2497 36.2969V39.4531L18.9372 37.875L22.0935 31.5625L27.2871 32.2222Z" fill="#77787C"/>
<path d="M29.9844 44.1875H26.8281V50.5H29.9844V44.1875Z" fill="#5A5B5D"/>
<path d="M50.5 83.6406C33.0685 83.6406 18.9375 69.5096 18.9375 52.0781C18.9375 34.6466 33.0685 20.5156 50.5 20.5156C67.9315 20.5156 82.0625 34.6466 82.0625 52.0781C82.0625 69.5096 67.9315 83.6406 50.5 83.6406Z" fill="#9A9B9F"/>
<path d="M50.4991 20.5156C58.0969 20.5118 65.4385 23.2625 71.1631 28.2579C76.4038 34.2814 79.1642 42.0686 78.8873 50.0479C78.6103 58.0273 75.3167 65.6044 69.671 71.25C64.0254 76.8957 56.4483 80.1893 48.4689 80.4663C40.4896 80.7432 32.7024 77.9827 26.6789 72.7421C22.7062 68.1757 20.1318 62.5624 19.263 56.5724C18.3943 50.5825 19.2679 44.469 21.7795 38.9621C24.2912 33.4553 28.3348 28.7876 33.4274 25.5166C38.52 22.2457 44.4465 20.5096 50.4991 20.5156Z" fill="#B4B5B9"/>
<path d="M50.5 77.3281C36.5548 77.3281 25.25 66.0233 25.25 52.0781C25.25 38.1329 36.5548 26.8281 50.5 26.8281C64.4452 26.8281 75.75 38.1329 75.75 52.0781C75.75 66.0233 64.4452 77.3281 50.5 77.3281Z" fill="white"/>
<path d="M42.5478 62.1466L47.3438 61.5469V57.7341H53.6562V61.5469L58.4522 62.1466C60.6138 62.417 62.6022 63.4674 64.0439 65.1006C65.4856 66.7338 66.2812 68.8372 66.2812 71.0156V71.7716C61.8076 75.3677 56.2399 77.3281 50.5 77.3281C44.7601 77.3281 39.1924 75.3677 34.7188 71.7716V71.0156C34.7188 68.8372 35.5145 66.7338 36.9561 65.1006C38.3978 63.4674 40.3862 62.417 42.5478 62.1466Z" fill="#50BAE3"/>
<path d="M42.5478 62.1466L47.3438 61.5469V57.7341H50.5V61.5469L55.2959 62.1466C57.4575 62.417 59.446 63.4674 60.8876 65.1006C62.3293 66.7338 63.1249 68.8372 63.125 71.0156V73.9225C58.7278 76.4779 53.6593 77.6403 48.588 77.2563C43.5167 76.8723 38.681 74.9599 34.7188 71.7716V71.0156C34.7188 68.8372 35.5145 66.7338 36.9561 65.1006C38.3978 63.4674 40.3862 62.417 42.5478 62.1466Z" fill="#B5DEEB"/>
<path d="M11.0469 44.1875H7.89062V50.5H11.0469V44.1875Z" fill="#5A5B5D"/>
<path d="M47.3438 57.7278V61.5468L50.5 67.8593L53.6562 61.5468V57.7278H47.3438Z" fill="#ECB8AD"/>
<path d="M53.6562 59.3123V61.5469L50.5 67.8594L47.3438 61.5469V59.3123C48.3397 59.7453 49.414 59.9687 50.5 59.9687C51.586 59.9687 52.6603 59.7453 53.6562 59.3123Z" fill="#FDE1D5"/>
<path d="M61.5469 47.7683V41.0312C61.5469 38.9385 60.7155 36.9315 59.2358 35.4517C57.756 33.972 55.749 33.1406 53.6562 33.1406H48.9219C47.6662 33.1406 46.462 33.6394 45.5742 34.5273C44.6863 35.4152 44.1875 36.6194 44.1875 37.875C42.9319 37.875 41.7277 38.3738 40.8398 39.2617C39.9519 40.1495 39.4531 41.3537 39.4531 42.6094V47.7698" fill="#5A5B5D"/>
<path d="M56.8125 41.0313V47.7683H39.4531V42.6094C39.4531 41.3537 39.9519 40.1495 40.8398 39.2617C41.7277 38.3738 42.9319 37.875 44.1875 37.875C44.1875 36.6194 44.6863 35.4152 45.5742 34.5273C46.462 33.6394 47.6662 33.1406 48.9219 33.1406C51.0146 33.1406 53.0216 33.972 54.5014 35.4517C55.9812 36.9315 56.8125 38.9385 56.8125 41.0313Z" fill="#77787C"/>
<path d="M58.3906 47.3438H59.9687C60.8058 47.3438 61.6086 47.6763 62.2006 48.2682C62.7925 48.8601 63.125 49.6629 63.125 50.5C63.125 51.3371 62.7925 52.1399 62.2006 52.7318C61.6086 53.3237 60.8058 53.6562 59.9687 53.6562H57.7341" fill="#ECB8AD"/>
<path d="M42.6091 47.3438H41.031C40.1939 47.3438 39.3911 47.6763 38.7992 48.2682C38.2073 48.8601 37.8747 49.6629 37.8747 50.5C37.8747 51.3371 38.2073 52.1399 38.7992 52.7318C39.3911 53.3237 40.1939 53.6562 41.031 53.6562H43.2656" fill="#ECB8AD"/>
<path d="M42.6094 45.7656V50.5C42.6094 52.5927 43.4407 54.5997 44.9205 56.0795C46.4003 57.5593 48.4073 58.3906 50.5 58.3906C52.5927 58.3906 54.5997 57.5593 56.0795 56.0795C57.5593 54.5997 58.3906 52.5927 58.3906 50.5V45.7656H55.49C54.0369 45.7656 52.6206 45.3084 51.4417 44.4587C50.2629 43.609 49.3813 42.4099 48.9219 41.0312L42.6094 45.7656Z" fill="#ECB8AD"/>
<path d="M55.49 45.7656H56.8125V50.5C56.8084 52.4509 56.0794 54.3308 54.767 55.7743C53.4547 57.2179 51.6527 58.1223 49.7109 58.3117C47.7692 58.1223 45.9672 57.2179 44.6548 55.7743C43.3425 54.3308 42.6135 52.4509 42.6094 50.5V45.7656L48.9219 41.0312C49.3813 42.4099 50.2629 43.609 51.4417 44.4587C52.6206 45.3084 54.0369 45.7656 55.49 45.7656Z" fill="#FDE1D5"/>
<path d="M42.1501 62.2065L44.1875 66.2812V69.4375L50.5 67.8594L47.3438 61.5469L42.1501 62.2065Z" fill="#4197CD"/>
<path d="M58.8496 62.2065L56.8122 66.2812V69.4375L50.4997 67.8594L53.656 61.5469L58.8496 62.2065Z" fill="#4197CD"/>
<path d="M29.9844 17.7823V14.2031C29.9844 11.2733 28.8205 8.4635 26.7488 6.3918C24.6771 4.32011 21.8673 3.15625 18.9375 3.15625C17.4868 3.15625 16.0503 3.44199 14.71 3.99714C13.3698 4.5523 12.152 5.36601 11.1262 6.3918C10.1004 7.4176 9.28668 8.6354 8.73152 9.97567C8.17636 11.3159 7.89062 12.7524 7.89062 14.2031V17.787L29.9844 17.7823Z" fill="#5A5B5D"/>
<path d="M7.89062 14.2031C7.89149 11.6852 8.7525 9.24311 10.331 7.28142C11.9096 5.31974 14.1109 3.95618 16.5703 3.41663C19.0297 3.95618 21.2311 5.31974 22.8096 7.28142C24.3881 9.24311 25.2491 11.6852 25.25 14.2031V17.7823H7.89062V14.2031Z" fill="#77787C"/>
<path d="M15.7812 27.7434V31.5625L18.9375 37.875L22.0938 31.5625V27.7434H15.7812Z" fill="#ECB8AD"/>
<path d="M22.0938 29.3279V31.5625L18.9375 37.875L15.7812 31.5625V29.3279C16.7772 29.7609 17.8515 29.9843 18.9375 29.9843C20.0235 29.9843 21.0978 29.7609 22.0938 29.3279Z" fill="#FDE1D5"/>
<path d="M26.8281 17.3594H28.4062C29.2433 17.3594 30.0461 17.6919 30.6381 18.2838C31.23 18.8757 31.5625 19.6785 31.5625 20.5156C31.5625 21.3527 31.23 22.1555 30.6381 22.7474C30.0461 23.3393 29.2433 23.6719 28.4062 23.6719H26.1716" fill="#ECB8AD"/>
<path d="M11.0466 17.3594H9.4685C8.63141 17.3594 7.8286 17.6919 7.23669 18.2838C6.64478 18.8757 6.31225 19.6785 6.31225 20.5156C6.31225 21.3527 6.64478 22.1555 7.23669 22.7474C7.8286 23.3393 8.63141 23.6719 9.4685 23.6719H11.7031" fill="#ECB8AD"/>
<path d="M26.8281 17.7318C26.8284 16.4487 26.5296 15.1833 25.9554 14.0358C25.7434 13.6118 25.4175 13.2551 25.0141 13.0059C24.6108 12.7567 24.146 12.6248 23.6719 12.625C23.1978 12.6248 22.733 12.7567 22.3296 13.0059C21.9263 13.2551 21.6003 13.6118 21.3883 14.0358L21.221 14.3704C21.0091 14.7945 20.6831 15.1511 20.2798 15.4003C19.8764 15.6495 19.4116 15.7814 18.9375 15.7813C18.4634 15.7814 17.9986 15.6495 17.5952 15.4003C17.1919 15.1511 16.8659 14.7945 16.654 14.3704L16.4867 14.0358C16.2747 13.6118 15.9487 13.2551 15.5454 13.0059C15.142 12.7567 14.6772 12.6248 14.2031 12.625C13.729 12.6248 13.2642 12.7567 12.8609 13.0059C12.4575 13.2551 12.1316 13.6118 11.9196 14.0358C11.3454 15.1833 11.0466 16.4487 11.0469 17.7318V20.5156C11.0469 22.6083 11.8782 24.6154 13.358 26.0951C14.8378 27.5749 16.8448 28.4062 18.9375 28.4062C21.0302 28.4062 23.0372 27.5749 24.517 26.0951C25.9968 24.6154 26.8281 22.6083 26.8281 20.5156V17.7318Z" fill="#ECB8AD"/>
<path d="M18.1484 28.3273C16.2067 28.1378 14.4047 27.2335 13.0923 25.7899C11.78 24.3463 11.051 22.4665 11.0469 20.5156V17.7318C11.0466 16.4487 11.3454 15.1832 11.9196 14.0358C12.1317 13.6118 12.4577 13.2552 12.861 13.0061C13.2643 12.7569 13.729 12.6249 14.2031 12.6249C14.6772 12.6249 15.1419 12.7569 15.5453 13.0061C15.9486 13.2552 16.2745 13.6118 16.4867 14.0358L16.654 14.3704C16.8661 14.7943 17.1921 15.1509 17.5954 15.4001C17.9987 15.6493 18.4634 15.7813 18.9375 15.7813C19.4116 15.7813 19.8763 15.6493 20.2796 15.4001C20.6829 15.1509 21.0089 14.7943 21.221 14.3704L21.3883 14.0358C21.5554 13.6942 21.7977 13.3948 22.097 13.1603C22.3964 12.9258 22.745 12.7622 23.1167 12.6819C23.4884 12.6015 23.8735 12.6065 24.243 12.6964C24.6125 12.7863 24.9568 12.9588 25.25 13.201V20.5156C25.2459 22.4665 24.5169 24.3463 23.2045 25.7899C21.8922 27.2335 20.0902 28.1378 18.1484 28.3273Z" fill="#FDE1D5"/>
<path d="M61.5469 74.7574C60.5255 75.2606 59.471 75.6935 58.3906 76.053V74.1719H61.5469V74.7574Z" fill="#29678C"/>
<path d="M42.6094 76.053C41.529 75.6935 40.4745 75.2606 39.4531 74.7574V74.1719H42.6094V76.053Z" fill="#29678C"/>
<path d="M9.52556 91.4744C8.71394 92.2944 7.66555 92.8392 6.52802 93.032C5.3905 93.2248 4.22115 93.0559 3.18466 92.5491C3.18466 92.4529 3.15625 92.3613 3.15625 92.2635C3.1563 91.5307 3.30072 90.8051 3.58124 90.1282C3.86177 89.4513 4.27291 88.8362 4.79119 88.3182L18.9375 74.1719L22.8828 78.1172L9.52556 91.4744Z" fill="#9A9B9F"/>
<path d="M10.7897 30.5967L14.2032 30.169V28.7029C12.7712 27.8722 11.5809 26.682 10.7502 25.25H9.46879C8.51138 25.2535 7.57558 24.9655 6.78574 24.4244C5.9959 23.8833 5.38941 23.1147 5.04687 22.2207C4.70433 21.3266 4.64194 20.3495 4.86802 19.4192C5.09409 18.4888 5.59792 17.6493 6.31254 17.0122V14.2031C6.31254 10.8548 7.64267 7.64355 10.0103 5.2759C12.378 2.90826 15.5892 1.57813 18.9375 1.57812C22.2859 1.57813 25.4971 2.90826 27.8648 5.2759C30.2324 7.64355 31.5625 10.8548 31.5625 14.2031V17.0122C32.2772 17.6493 32.781 18.4888 33.007 19.4192C33.2331 20.3495 33.1707 21.3266 32.8282 22.2207C32.4857 23.1147 31.8792 23.8833 31.0893 24.4244C30.2995 24.9655 29.3637 25.2535 28.4063 25.25H27.1248C26.2942 26.682 25.1039 27.8722 23.6719 28.7029V30.169L25.4931 30.3978C31.0307 23.9684 38.8332 19.9205 47.2785 19.0958C55.7238 18.2711 64.162 20.733 70.8389 25.9696C70.9541 25.7472 71.0147 25.5005 71.0157 25.25V24.0191C70.5195 23.5802 70.1222 23.0409 69.8502 22.4369C69.5781 21.8329 69.4374 21.1781 69.4374 20.5156C69.4374 19.8532 69.5781 19.1983 69.8502 18.5944C70.1222 17.9904 70.5195 17.4511 71.0157 17.0122V14.2031C71.0157 10.8548 72.3458 7.64355 74.7134 5.2759C77.0811 2.90826 80.2923 1.57813 83.6407 1.57812C86.989 1.57813 90.2002 2.90826 92.5679 5.2759C94.9355 7.64355 96.2657 10.8548 96.2657 14.2031V17.0122C96.7618 17.4511 97.1591 17.9904 97.4312 18.5944C97.7033 19.1983 97.844 19.8532 97.844 20.5156C97.844 21.1781 97.7033 21.8329 97.4312 22.4369C97.1591 23.0409 96.7618 23.5802 96.2657 24.0191V25.25C96.2657 25.6685 96.4319 26.0699 96.7279 26.3659C97.0238 26.6619 97.4252 26.8281 97.8438 26.8281C98.0837 26.8281 98.3204 26.8828 98.536 26.988C98.7516 27.0933 98.9403 27.2463 99.0879 27.4354C99.2355 27.6245 99.338 27.8448 99.3877 28.0794C99.4373 28.3141 99.4329 28.557 99.3746 28.7897L98.9485 30.5083C98.552 32.1011 97.6507 33.5228 96.3793 34.5609C97.3305 36.0156 97.8392 37.7151 97.8438 39.4531V50.5C97.8438 50.9185 97.6775 51.32 97.3816 51.6159C97.0856 51.9119 96.6842 52.0781 96.2657 52.0781H83.6407C83.6469 58.1167 82.0016 64.042 78.8828 69.2129C75.764 74.3838 71.2906 78.6033 65.9464 81.4149C60.6023 84.2265 54.591 85.523 48.5631 85.1643C42.5352 84.8056 36.7201 82.8052 31.7472 79.3797L13.7976 97.3245C13.133 97.9892 12.3439 98.5164 11.4755 98.8761C10.6072 99.2358 9.67646 99.4209 8.73653 99.4209C7.79661 99.4209 6.86589 99.2358 5.99752 98.8761C5.12914 98.5164 4.34011 97.9892 3.67548 97.3245C3.01086 96.6599 2.48365 95.8709 2.12395 95.0025C1.76427 94.1341 1.57913 93.2034 1.57913 92.2635C1.57913 91.3236 1.76427 90.3929 2.12395 89.5245C2.48365 88.6561 3.01086 87.8671 3.67548 87.2025L21.9817 68.8962C18.955 63.8085 17.358 57.9981 17.3594 52.0781H3.15629C2.73774 52.0781 2.33633 51.9119 2.04038 51.6159C1.74442 51.32 1.57816 50.9185 1.57816 50.5V41.0312C1.5814 38.4691 2.51862 35.996 4.21428 34.0752C5.90993 32.1544 8.2477 30.9177 10.7897 30.5967ZM12.9912 33.502L14.0375 35.5915C14.1467 35.8106 14.2034 36.0521 14.2032 36.2969V37.4315L16.6461 36.8208L14.8691 33.2669L12.9912 33.502ZM9.46879 22.0938H9.61082C9.51946 21.5726 9.47195 21.0447 9.46879 20.5156V18.9375C9.05024 18.9375 8.64883 19.1038 8.35288 19.3997C8.05692 19.6957 7.89066 20.0971 7.89066 20.5156C7.89066 20.9342 8.05692 21.3356 8.35288 21.6315C8.64883 21.9275 9.05024 22.0938 9.46879 22.0938ZM28.4063 22.0938C28.8248 22.0938 29.2262 21.9275 29.5222 21.6315C29.8181 21.3356 29.9844 20.9342 29.9844 20.5156C29.9844 20.0971 29.8181 19.6957 29.5222 19.3997C29.2262 19.1038 28.8248 18.9375 28.4063 18.9375V20.5156C28.4031 21.0447 28.3556 21.5726 28.2643 22.0938H28.4063ZM27.3679 13.332C27.7504 14.1085 28.029 14.932 28.1964 15.7812H28.4063V14.2031C28.4063 11.6919 27.4087 9.28344 25.633 7.50771C23.8572 5.73197 21.4488 4.73438 18.9375 4.73438C16.4263 4.73438 14.0179 5.73197 12.2421 7.50771C10.4664 9.28344 9.46879 11.6919 9.46879 14.2031V15.7812H9.67867C9.84609 14.932 10.1247 14.1085 10.5072 13.332C10.8502 12.6454 11.3777 12.0679 12.0305 11.6643C12.6833 11.2607 13.4357 11.0469 14.2032 11.0469C14.9707 11.0469 15.723 11.2607 16.3758 11.6643C17.0286 12.0679 17.5561 12.6454 17.8991 13.332L18.0648 13.6666C18.1544 13.8184 18.282 13.9442 18.435 14.0317C18.5881 14.1191 18.7613 14.1651 18.9375 14.1651C19.1138 14.1651 19.287 14.1191 19.4401 14.0317C19.5931 13.9442 19.7207 13.8184 19.8102 13.6666L19.9759 13.3352C20.319 12.6486 20.8464 12.0711 21.4993 11.6675C22.1521 11.2639 22.9044 11.0501 23.6719 11.0501C24.4394 11.0501 25.1918 11.2639 25.8446 11.6675C26.4974 12.0711 27.0249 12.6486 27.3679 13.3352V13.332ZM25.25 17.7318C25.2495 16.6913 25.008 15.665 24.5446 14.7334C24.4637 14.5712 24.3392 14.4347 24.185 14.3394C24.0309 14.244 23.8532 14.1935 23.6719 14.1935C23.4906 14.1935 23.313 14.244 23.1588 14.3394C23.0047 14.4347 22.8801 14.5712 22.7992 14.7334L22.6335 15.0648C22.2905 15.7514 21.763 16.3289 21.1102 16.7325C20.4574 17.1361 19.705 17.3499 18.9375 17.3499C18.17 17.3499 17.4177 17.1361 16.7649 16.7325C16.1121 16.3289 15.5846 15.7514 15.2416 15.0648L15.0759 14.7302C14.9863 14.5784 14.8587 14.4526 14.7057 14.3651C14.5526 14.2777 14.3794 14.2317 14.2032 14.2317C14.0269 14.2317 13.8537 14.2777 13.7006 14.3651C13.5476 14.4526 13.42 14.5784 13.3305 14.7302C12.867 15.6618 12.6256 16.6881 12.625 17.7287V20.5156C12.625 22.1898 13.2901 23.7954 14.4739 24.9792C15.6577 26.1631 17.2634 26.8281 18.9375 26.8281C20.6117 26.8281 22.2173 26.1631 23.4011 24.9792C24.585 23.7954 25.25 22.1898 25.25 20.5156V17.7318ZM18.9375 29.9844C18.4084 29.9812 17.8806 29.9337 17.3594 29.8423V31.1901L18.9375 34.3463L20.5157 31.1901V29.8423C19.9945 29.9337 19.4666 29.9812 18.9375 29.9844ZM73.225 28.0259C74.1604 28.9012 75.0445 29.8296 75.8731 30.8066C76.2355 30.6967 76.6045 30.6097 76.9778 30.5462L78.9063 30.2258V28.7029C77.4743 27.8722 76.284 26.682 75.4534 25.25H74.1719C74.1605 26.2526 73.8287 27.2253 73.225 28.0259ZM80.0394 37.1459L81.3429 36.8208L79.588 33.3111L77.9768 33.5793C78.7404 34.7237 79.4314 35.9149 80.0457 37.1459H80.0394ZM83.6407 26.8281C85.3148 26.8281 86.9205 26.1631 88.1043 24.9792C89.2881 23.7954 89.9532 22.1898 89.9532 20.5156V17.3594H88.6307C87.2069 17.3607 85.8057 17.004 84.5559 16.322C83.3062 15.64 82.2479 14.6547 81.4786 13.4567L77.3282 16.5703V20.5156C77.3282 21.3446 77.4914 22.1654 77.8087 22.9313C78.1259 23.6972 78.5909 24.3931 79.1771 24.9792C79.7632 25.5654 80.4591 26.0304 81.225 26.3476C81.9908 26.6648 82.8117 26.8281 83.6407 26.8281ZM83.6407 29.9844C83.1116 29.9812 82.5837 29.9337 82.0625 29.8423V31.1901L83.6407 34.3463L85.2188 31.1901V29.8423C84.6976 29.9337 84.1698 29.9812 83.6407 29.9844ZM87.687 33.3111L85.9321 36.8208L88.6907 37.5105L89.3756 33.592L87.687 33.3111ZM74.1719 20.5156V18.9375C73.7534 18.9375 73.352 19.1038 73.056 19.3997C72.7601 19.6957 72.5938 20.0971 72.5938 20.5156C72.5938 20.9342 72.7601 21.3356 73.056 21.6315C73.352 21.9275 73.7534 22.0938 74.1719 22.0938H74.3139C74.2226 21.5726 74.1751 21.0447 74.1719 20.5156ZM93.1094 14.2031C93.1094 11.6919 92.1118 9.28344 90.3361 7.50771C88.5603 5.73197 86.1519 4.73438 83.6407 4.73438C81.1294 4.73438 78.721 5.73197 76.9452 7.50771C75.1695 9.28344 74.1719 11.6919 74.1719 14.2031V15.7812C74.1719 15.5363 74.229 15.2946 74.3385 15.0755C74.4481 14.8564 74.6072 14.6657 74.8032 14.5187L81.1157 9.78437C81.3157 9.63424 81.5486 9.53382 81.7952 9.49139C82.0417 9.44896 82.2947 9.46574 82.5335 9.54034C82.7723 9.61494 82.9899 9.74523 83.1684 9.92046C83.3469 10.0957 83.4812 10.3109 83.5602 10.5482C83.9141 11.613 84.5944 12.5392 85.5047 13.1953C86.4149 13.8514 87.5087 14.204 88.6307 14.2031H91.5313C91.9498 14.2031 92.3512 14.3694 92.6472 14.6653C92.9431 14.9613 93.1094 15.3627 93.1094 15.7812V14.2031ZM94.6875 20.5156C94.6875 20.0971 94.5213 19.6957 94.2253 19.3997C93.9294 19.1038 93.528 18.9375 93.1094 18.9375V20.5156C93.1062 21.0447 93.0587 21.5726 92.9674 22.0938H93.1094C93.528 22.0938 93.9294 21.9275 94.2253 21.6315C94.5213 21.3356 94.6875 20.9342 94.6875 20.5156ZM91.828 25.25C90.9973 26.682 89.807 27.8722 88.375 28.7029V30.2258L90.2988 30.5415C91.7216 30.7857 93.0647 31.3692 94.2141 32.2427C95.0432 31.628 95.6328 30.7444 95.8822 29.7429L95.9248 29.5772C95.0871 29.2058 94.3752 28.5992 93.8754 27.8311C93.3757 27.063 93.1096 26.1664 93.1094 25.25H91.828ZM88.375 48.9219V44.1875H91.5313V48.9219H94.6875V39.4531C94.6879 38.55 94.4787 37.659 94.0764 36.8504C93.6741 36.0418 93.0898 35.3375 92.3693 34.7929L91.5076 39.7246C91.4707 39.9385 91.39 40.1425 91.2707 40.3238C91.1513 40.5051 90.9958 40.6599 90.8139 40.7784C90.632 40.8969 90.4277 40.9765 90.2136 41.0125C89.9995 41.0484 89.7803 41.0397 89.5697 40.9871L83.6407 39.502L81.3555 40.0733C82.4721 42.9098 83.188 45.8879 83.4829 48.9219H88.375ZM4.73441 92.2635C4.73455 93.0549 4.96935 93.8286 5.40912 94.4866C5.84888 95.1446 6.47388 95.6575 7.20509 95.9603C7.93629 96.2632 8.74088 96.3424 9.51712 96.1881C10.2934 96.0337 11.0064 95.6526 11.5661 95.0931L24.5967 82.0625L18.9375 76.4033L5.90696 89.4339C5.53418 89.8046 5.23861 90.2456 5.03735 90.7313C4.83608 91.217 4.73312 91.7378 4.73441 92.2635ZM21.169 74.1719L26.8282 79.831L29.2143 77.4449C27.1684 75.715 25.3383 73.745 23.7634 71.5774L21.169 74.1719ZM50.5 82.0625C56.4304 82.0625 62.2276 80.3039 67.1585 77.0092C72.0894 73.7145 75.9325 69.0316 78.202 63.5526C80.4714 58.0737 81.0652 52.0449 79.9083 46.2285C78.7513 40.4121 75.8956 35.0694 71.7022 30.876C67.5088 26.6826 62.1661 23.8268 56.3497 22.6699C50.5333 21.5129 44.5044 22.1067 39.0255 24.3762C33.5466 26.6456 28.8637 30.4888 25.5689 35.4197C22.2742 40.3506 20.5157 46.1478 20.5157 52.0781C20.5244 60.0278 23.6863 67.6493 29.3076 73.2706C34.9288 78.8919 42.5504 82.0537 50.5 82.0625ZM4.73441 48.9219H7.89066V44.1875H11.0469V48.9219H17.5172C17.8423 45.4872 18.7062 42.1252 20.0769 38.9592C19.8714 39.1757 19.6079 39.3286 19.3179 39.3995L13.0054 40.9776C12.7734 41.0352 12.5314 41.0394 12.2976 40.9898C12.0638 40.9402 11.8443 40.8381 11.6557 40.6913C11.4671 40.5445 11.3143 40.3568 11.2088 40.1423C11.1033 39.9278 11.048 39.6921 11.0469 39.4531V36.6693L9.74496 34.0654C8.28707 34.558 7.01997 35.4947 6.12138 36.7439C5.22278 37.9932 4.73779 39.4924 4.73441 41.0312V48.9219Z" fill="black"/>
<path d="M50.5 25.25C55.8061 25.25 60.993 26.8234 65.4049 29.7714C69.8168 32.7193 73.2554 36.9092 75.2859 41.8114C77.3165 46.7136 77.8478 52.1079 76.8126 57.312C75.7774 62.5162 73.2223 67.2965 69.4703 71.0485C65.7184 74.8005 60.938 77.3556 55.7339 78.3908C50.5297 79.4259 45.1355 78.8946 40.2333 76.8641C35.3311 74.8335 31.1411 71.3949 28.1932 66.983C25.2453 62.5712 23.6719 57.3842 23.6719 52.0781C23.6798 44.9653 26.5089 38.1461 31.5384 33.1165C36.5679 28.087 43.3872 25.2579 50.5 25.25ZM64.7031 70.973C64.6919 69.4419 64.2038 67.9523 63.3066 66.7114C62.4094 65.4706 61.1478 64.5402 59.6973 64.0498L58.3906 66.6537V69.4375C58.3906 69.6774 58.3359 69.9141 58.2307 70.1297C58.1255 70.3453 57.9725 70.534 57.7834 70.6816C57.5943 70.8292 57.374 70.9317 57.1393 70.9814C56.9046 71.0311 56.6617 71.0266 56.429 70.9683L50.5 69.4864L44.571 70.9683C44.3383 71.0266 44.0954 71.0311 43.8607 70.9814C43.626 70.9317 43.4057 70.8292 43.2166 70.6816C43.0275 70.534 42.8745 70.3453 42.7693 70.1297C42.6641 69.9141 42.6094 69.6774 42.6094 69.4375V66.6537L41.3074 64.0498C39.856 64.5394 38.5934 65.4694 37.6953 66.7103C36.7972 67.9512 36.3084 69.4413 36.2969 70.973C40.3814 74.0724 45.3679 75.7501 50.4953 75.7501C55.6226 75.7501 60.6091 74.0724 64.6936 70.973H64.7031ZM59.9687 48.9219V50.5C59.9656 51.0291 59.9181 51.557 59.8267 52.0781H59.9687C60.3873 52.0781 60.7887 51.9119 61.0846 51.6159C61.3806 51.32 61.5469 50.9185 61.5469 50.5C61.5469 50.0815 61.3806 49.6801 61.0846 49.3841C60.7887 49.0881 60.3873 48.9219 59.9687 48.9219ZM58.3906 44.1875C58.8092 44.1875 59.2106 44.3538 59.5065 44.6497C59.8025 44.9457 59.9687 45.3471 59.9687 45.7656V41.0313C59.9687 39.3571 59.3037 37.7515 58.1198 36.5676C56.936 35.3838 55.3304 34.7188 53.6562 34.7188H48.9219C48.0848 34.7188 47.282 35.0513 46.6901 35.6432C46.0981 36.2351 45.7656 37.0379 45.7656 37.875C45.7656 38.2935 45.5993 38.6949 45.3034 38.9909C45.0074 39.2869 44.606 39.4531 44.1875 39.4531C43.3504 39.4531 42.5476 39.7857 41.9557 40.3776C41.3638 40.9695 41.0312 41.7723 41.0312 42.6094V45.7656C41.0312 45.5206 41.0883 45.279 41.1978 45.0599C41.3074 44.8407 41.4665 44.6501 41.6625 44.5031L47.975 39.7688C48.1751 39.6186 48.408 39.5182 48.6545 39.4758C48.901 39.4333 49.1541 39.4501 49.3928 39.5247C49.6316 39.5993 49.8492 39.7296 50.0277 39.9048C50.2062 40.0801 50.3405 40.2952 50.4195 40.5326C50.7734 41.5973 51.4538 42.5235 52.364 43.1796C53.2742 43.8357 54.368 44.1884 55.49 44.1875H58.3906ZM41.0312 50.5V48.9219C40.6127 48.9219 40.2113 49.0881 39.9153 49.3841C39.6194 49.6801 39.4531 50.0815 39.4531 50.5C39.4531 50.9185 39.6194 51.32 39.9153 51.6159C40.2113 51.9119 40.6127 52.0781 41.0312 52.0781H41.1733C41.0819 51.557 41.0344 51.0291 41.0312 50.5ZM56.8125 47.3438H55.49C54.0663 47.3451 52.665 46.9883 51.4153 46.3064C50.1655 45.6244 49.1073 44.6391 48.338 43.441L44.1875 46.5547V50.5C44.1875 52.1742 44.8526 53.7798 46.0364 54.9636C47.2202 56.1474 48.8258 56.8125 50.5 56.8125C52.1742 56.8125 53.7798 56.1474 54.9636 54.9636C56.1474 53.7798 56.8125 52.1742 56.8125 50.5V47.3438ZM46.4316 63.2513L44.5536 63.4864L45.6078 65.5758C45.7143 65.7956 45.7683 66.0371 45.7656 66.2813V67.4159L48.2085 66.8052L46.4316 63.2513ZM50.5 59.9688C49.9709 59.9656 49.443 59.9181 48.9219 59.8267V61.1744L50.5 64.3307L52.0781 61.1744V59.8267C51.557 59.9181 51.0291 59.9656 50.5 59.9688ZM54.5684 63.2513L52.7914 66.8052L55.2344 67.4159V66.2813C55.2341 66.0364 55.2909 65.7949 55.4001 65.5758L56.4448 63.4864L54.5684 63.2513ZM33.4562 68.4717C33.9709 66.4141 35.0949 64.56 36.6811 63.152C38.2673 61.7441 40.2417 60.848 42.3458 60.5811L45.7656 60.1534V58.6873C44.3336 57.8566 43.1434 56.6664 42.3127 55.2344H41.0312C40.0738 55.2379 39.138 54.9499 38.3482 54.4088C37.5583 53.8677 36.9519 53.0991 36.6093 52.205C36.2668 51.311 36.2044 50.3339 36.4305 49.4036C36.6565 48.4732 37.1604 47.6337 37.875 46.9966V42.6094C37.8766 41.182 38.3608 39.7972 39.249 38.6799C40.1371 37.5625 41.377 36.7783 42.7672 36.4547C43.0905 35.0644 43.8747 33.8244 44.9921 32.9362C46.1095 32.048 47.4945 31.5639 48.9219 31.5625H53.6562C56.1667 31.565 58.5737 32.5634 60.3489 34.3386C62.1241 36.1138 63.1225 38.5208 63.125 41.0313V46.9966C63.8396 47.6337 64.3434 48.4732 64.5695 49.4036C64.7956 50.3339 64.7332 51.311 64.3907 52.205C64.0481 53.0991 63.4416 53.8677 62.6518 54.4088C61.8619 54.9499 60.9261 55.2379 59.9687 55.2344H58.6873C57.8566 56.6664 56.6664 57.8566 55.2344 58.6873V60.1534L58.6478 60.5811C60.7519 60.848 62.7263 61.7441 64.3126 63.152C65.8988 64.56 67.0228 66.4141 67.5374 68.4717C70.7626 65.1281 72.9327 60.9095 73.7773 56.3414C74.6219 51.7733 74.1038 47.0577 72.2874 42.782C70.4711 38.5062 67.4368 34.8595 63.5626 32.296C59.6884 29.7325 55.1455 28.3656 50.5 28.3656C45.8545 28.3656 41.3116 29.7325 37.4374 32.296C33.5632 34.8595 30.5289 38.5062 28.7125 42.782C26.8962 47.0577 26.378 51.7733 27.2227 56.3414C28.0673 60.9095 30.2374 65.1281 33.4625 68.4717H33.4562Z" fill="black"/>
</svg>
