<svg width="100" height="100" viewBox="0 0 100 100" fill="none" xmlns="http://www.w3.org/2000/svg">
<path d="M9.28693 98.4848H79.6682C75.3493 98.4848 71.848 94.9836 71.848 90.6647V73.0694V1.51514H1.4668V90.6647C1.4668 94.9836 4.96807 98.4848 9.28693 98.4848Z" fill="#E3EDF6"/>
<path d="M79.6678 98.4849C83.9867 98.4849 87.4879 94.9836 87.4879 90.6648V78.9346H71.8477V90.6648C71.8477 94.9836 75.3489 98.4849 79.6678 98.4849Z" fill="#C5D9EC"/>
<path d="M38.4445 66.3387L35.6797 74.6334L43.9743 71.8686L81.4287 34.4142L75.899 28.8844L38.4445 66.3387Z" fill="#F88FA4"/>
<path d="M84.8842 26.8109L83.5018 25.4285C82.3565 24.2833 80.4998 24.2833 79.3545 25.4285L75.8984 28.8844L81.4281 34.4141L84.8842 30.9579C86.0294 29.8129 86.0294 27.9562 84.8842 26.8109Z" fill="#E3EDF6"/>
<path d="M58.6586 46.1232L48.639 47.7928L47.075 55.6129L46.7759 59.7322C46.5119 63.3588 43.4914 66.1466 39.8824 66.1466C39.8042 66.1466 39.7241 66.1447 39.6459 66.1427L38.2773 54.8309L40.2324 40.9502L50.9851 35.8671L68.3927 36.3891L58.6586 46.1232Z" fill="#FFE4C2"/>
<path d="M100 42.5142H80.1154L75.4703 40.3715L64.2093 51.6325L67.4077 54.8309L63.1066 60.305L58.2191 62.0645L50.5104 62.3089C49.2259 62.35 48.0744 62.8974 47.2435 63.7556C46.4126 64.6139 45.9023 65.783 45.9023 67.0675C45.9023 69.7752 48.1604 71.9394 50.8662 71.8221L59.5876 71.4487L69.3628 68.7116L79.1379 63.2375H100V42.5142Z" fill="#FFE4C2"/>
<path d="M57.3809 89.1984H60.3134V92.1309H57.3809V89.1984Z" fill="white"/>
<path d="M63.2461 89.1984H66.1786V92.1309H63.2461V89.1984Z" fill="white"/>
<path d="M26.0996 74.3401H29.0322V77.2726H26.0996V74.3401Z" fill="white"/>
<path d="M73.3146 72.8738H70.3821V90.6646C70.3821 93.1209 71.3424 95.3559 72.9052 97.0185H15.1523V99.951H79.6685C84.7889 99.951 88.9549 95.785 88.9549 90.6646V77.4681H73.3146V72.8738ZM86.0223 80.4007V90.6646C86.0223 94.1682 83.1719 97.0185 79.6685 97.0185C76.1651 97.0185 73.3146 94.1682 73.3146 90.6646V80.4007H86.0223Z" fill="black"/>
<path d="M2.93255 2.98138H29.0602V0.0488281H0V38.4373H2.93255V2.98138Z" fill="black"/>
<path d="M3.10518 92.131H54.2522V89.1984H2.93255V41.3699H0V90.6647C0 95.7851 4.16598 99.9511 9.28641 99.9511H12.219V97.0186H9.28641C6.28759 97.0186 3.76911 94.9296 3.10518 92.131Z" fill="black"/>
<path d="M70.3806 25.7575H73.3132V0.0488281H31.9922V2.98138H70.3806V25.7575Z" fill="black"/>
<path d="M10.2637 15.6891H20.0388V18.6216H10.2637V15.6891Z" fill="black"/>
<path d="M43.5 15.6891H53.2752V18.6216H43.5V15.6891Z" fill="black"/>
<path d="M22.9707 15.6891H40.566V18.6216H22.9707V15.6891Z" fill="black"/>
<path d="M56.207 15.6891H63.0497V18.6216H56.207V15.6891Z" fill="black"/>
<path d="M10.2637 25.4644H17.1063V28.3969H10.2637V25.4644Z" fill="black"/>
<path d="M20.0391 25.4642H29.8142V28.3968H20.0391V25.4642Z" fill="black"/>
<path d="M53.2754 25.4644H63.0506V28.3969H53.2754V25.4644Z" fill="black"/>
<path d="M32.7461 25.4644H50.3414V28.3969H32.7461V25.4644Z" fill="black"/>
<path d="M24.9258 35.2395H31.7684V38.1721H24.9258V35.2395Z" fill="black"/>
<path d="M10.2637 35.2395H21.9939V38.1721H10.2637V35.2395Z" fill="black"/>
<path d="M20.0391 45.0146H31.7693V47.9472H20.0391V45.0146Z" fill="black"/>
<path d="M10.2637 45.0146H17.1063V47.9472H10.2637V45.0146Z" fill="black"/>
<path d="M24.9258 54.7898H31.7684V57.7223H24.9258V54.7898Z" fill="black"/>
<path d="M10.2637 54.7898H21.9939V57.7223H10.2637V54.7898Z" fill="black"/>
<path d="M10.2637 64.5649H17.1063V67.4975H10.2637V64.5649Z" fill="black"/>
<path d="M20.0391 64.5649H31.7693V67.4975H20.0391V64.5649Z" fill="black"/>
<path d="M10.2637 74.3401H23.1669V77.2726H10.2637V74.3401Z" fill="black"/>
<path d="M88.8301 61.7712H99.9998V64.7038H88.8301V61.7712Z" fill="black"/>
<path d="M80.4374 41.0478L77.9949 39.9212L85.9212 31.9949C86.7521 31.164 87.2096 30.0594 87.2096 28.8844C87.2096 27.7094 86.7519 26.6048 85.9212 25.7739L84.5388 24.3915C82.8239 22.6768 80.0331 22.6768 78.3181 24.3915L67.8053 34.9043L50.6775 34.3908L38.8913 39.9624L36.7993 54.8164L37.9965 64.7131L37.1629 65.5468L33.3613 76.9519L44.7662 73.1503L46.3568 71.5599C47.4749 72.6322 48.9897 73.2932 50.6567 73.2932C50.7474 73.2932 50.8385 73.2912 50.9293 73.2873L59.82 72.9067L69.9269 70.0768L79.5209 64.7041H85.8982V61.7716H78.7556L68.7992 67.3472L59.3559 69.9913L50.8028 70.3575C48.9238 70.4377 47.369 68.9323 47.369 67.0678C47.369 66.2084 47.6986 65.3943 48.2974 64.7759C48.8958 64.1577 49.6984 63.8023 50.5572 63.7747L58.4978 63.5231L63.9998 61.5423L69.3646 54.7141L66.2837 51.6332L75.7852 42.1315L79.7938 43.9806H100V41.048L80.4374 41.0478ZM80.3916 26.4652C80.9635 25.8938 81.8937 25.8936 82.4651 26.4652L83.8475 27.8476C84.1246 28.1245 84.2771 28.4928 84.2771 28.8844C84.2771 29.276 84.1246 29.6443 83.8475 29.9212L81.4282 32.3405L77.9723 28.8846L80.3916 26.4652ZM43.1819 70.5868L37.9977 72.3151L39.5668 67.6076L39.6102 67.6085C39.7001 67.6107 39.7926 67.6126 39.8825 67.6126C41.577 67.6126 43.1652 67.0971 44.4949 66.2136C44.4563 66.4946 44.4358 66.7794 44.4358 67.0672C44.4358 67.7485 44.5472 68.4041 44.7504 69.0181L43.1819 70.5868ZM45.6196 55.4152L45.314 59.6257C45.1338 62.1018 43.2902 64.1094 40.934 64.5771L39.7566 54.8453L41.5746 41.9378L51.2939 37.3432L64.9568 37.753L57.956 44.7538L47.4004 46.5129L45.6196 55.4152ZM54.3881 48.3214L48.939 53.7704L49.8786 49.0727L54.3881 48.3214ZM62.2137 59.068L57.9406 60.6062L57.2894 60.6269L64.2098 53.7065L65.4511 54.9479L62.2137 59.068ZM53.0061 60.7626L50.4634 60.8433C49.5815 60.8715 48.7318 61.0838 47.9576 61.4576C48.1021 60.9366 48.1981 60.3953 48.2386 59.8383L48.3342 58.5225L75.8986 30.9581L79.3545 34.414L53.0061 60.7626Z" fill="black"/>
</svg>
