<svg width="38" height="39" viewBox="0 0 38 39" fill="none" xmlns="http://www.w3.org/2000/svg">
<path d="M19.6949 3.68884L23.8144 12.4379C23.9042 12.6321 24.0409 12.801 24.2121 12.9294C24.3833 13.0578 24.5836 13.1417 24.7952 13.1735L34.0269 14.582C34.267 14.6264 34.4905 14.7353 34.6734 14.8969C34.8564 15.0586 34.9919 15.267 35.0655 15.4998C35.139 15.7326 35.1479 15.9811 35.0911 16.2185C35.0342 16.456 34.9139 16.6735 34.7429 16.8478L28.0418 23.7019C27.8935 23.8561 27.7833 24.0428 27.7199 24.2471C27.6566 24.4515 27.6419 24.6678 27.677 24.8789L29.2463 34.5401C29.2932 34.78 29.2713 35.0283 29.1832 35.2563C29.095 35.4843 28.9442 35.6827 28.7482 35.8287C28.5522 35.9747 28.3189 36.0623 28.0752 36.0815C27.8315 36.1006 27.5874 36.0505 27.3709 35.9368L19.1456 31.3956C18.9603 31.2923 18.7516 31.2381 18.5395 31.2381C18.3273 31.2381 18.1187 31.2923 17.9333 31.3956L9.70996 35.931C9.49354 36.0446 9.24941 36.0947 9.00572 36.0756C8.76204 36.0565 8.52872 35.9688 8.33268 35.8228C8.13664 35.6768 7.98587 35.4784 7.89774 35.2504C7.80961 35.0224 7.78772 34.7741 7.83459 34.5342L9.40394 24.873C9.43927 24.6621 9.42485 24.4459 9.36185 24.2415C9.29884 24.0372 9.18898 23.8504 9.04103 23.696L2.34779 16.8478C2.17611 16.6736 2.0552 16.456 1.99809 16.2182C1.94099 15.9804 1.94985 15.7316 2.02371 15.4984C2.09758 15.2653 2.23366 15.0568 2.41729 14.8953C2.60091 14.7338 2.82512 14.6255 3.06576 14.582L12.2974 13.1735C12.5069 13.1399 12.7049 13.0552 12.8739 12.9269C13.0429 12.7986 13.1777 12.6306 13.2665 12.4379L17.386 3.68884C17.4871 3.46755 17.6497 3.27998 17.8543 3.14846C18.059 3.01694 18.2972 2.94702 18.5404 2.94702C18.7837 2.94702 19.0219 3.01694 19.2266 3.14846C19.4312 3.27998 19.5938 3.46755 19.6949 3.68884Z" fill="#FFEB3A"/>
<path d="M34.7319 16.8478C34.9029 16.6735 35.0232 16.456 35.0801 16.2185C35.1369 15.9811 35.128 15.7327 35.0545 15.4998C34.9809 15.267 34.8454 15.0586 34.6624 14.897C34.4795 14.7353 34.256 14.6264 34.0159 14.5821L24.7842 13.1736C24.5726 13.1417 24.3723 13.0578 24.2011 12.9294C24.0299 12.801 23.8932 12.6322 23.8034 12.4379L19.6839 3.68886C19.5835 3.4659 19.4209 3.27667 19.2156 3.14392C19.0103 3.01117 18.771 2.94055 18.5265 2.94055C18.282 2.94055 18.0427 3.01117 17.8374 3.14392C17.6321 3.27667 17.4695 3.4659 17.3691 3.68886L15.584 7.48274L17.9301 12.4379C18.02 12.6322 18.1566 12.801 18.3278 12.9294C18.499 13.0578 18.6994 13.1417 18.911 13.1736L28.1426 14.5821C28.3827 14.6264 28.6062 14.7353 28.7892 14.897C28.9721 15.0586 29.1076 15.267 29.1812 15.4998C29.2548 15.7327 29.2636 15.9811 29.2068 16.2185C29.15 16.456 29.0296 16.6735 28.8586 16.8478L22.1576 23.7019C22.0093 23.8561 21.899 24.0428 21.8357 24.2472C21.7723 24.4515 21.7576 24.6678 21.7927 24.8789L23.2247 33.6456L27.3815 35.9369C27.5979 36.0505 27.8421 36.1006 28.0857 36.0815C28.3294 36.0624 28.5627 35.9747 28.7588 35.8287C28.9548 35.6827 29.1056 35.4843 29.1937 35.2563C29.2819 35.0283 29.3037 34.78 29.2569 34.5401L27.6875 24.8789C27.6525 24.6678 27.6672 24.4515 27.7305 24.2472C27.7939 24.0428 27.9041 23.8561 28.0524 23.7019L34.7319 16.8478Z" fill="#FDD834"/>
<path d="M7.43018 24.8515L5.89811 34.2166C5.79423 34.83 5.86624 35.4603 6.10578 36.0346C6.34533 36.6088 6.74263 37.1034 7.25167 37.4612C7.74264 37.8135 8.32363 38.019 8.92692 38.0537C9.53021 38.0884 10.1309 37.951 10.6591 37.6573L18.5411 33.3103L26.4192 37.6573C26.9479 37.9505 27.5488 38.0876 28.1523 38.0529C28.7558 38.0182 29.3371 37.813 29.8286 37.4612C30.3376 37.1035 30.7348 36.6088 30.9741 36.0345C31.2133 35.4602 31.2848 34.8298 31.1802 34.2166L29.6501 24.8515L36.1354 18.2191C36.5632 17.7817 36.8614 17.2342 36.9968 16.6375C37.1322 16.0409 37.0995 15.4183 36.9024 14.8391C36.7152 14.2691 36.3738 13.7622 35.916 13.3744C35.4583 12.9865 34.9021 12.7331 34.3091 12.642L25.4403 11.2904L21.4738 2.85524C21.216 2.29403 20.8023 1.81873 20.282 1.48591C19.7617 1.15309 19.1568 0.97676 18.5392 0.977912C17.9223 0.976616 17.318 1.15271 16.7984 1.48521C16.2788 1.81771 15.8657 2.2926 15.6084 2.85328L11.6399 11.2885L2.77316 12.6401C2.17931 12.7308 1.62223 12.9844 1.16375 13.3725C0.705272 13.7607 0.363336 14.2684 0.175903 14.8391C-0.020945 15.4185 -0.0532909 16.0412 0.0824601 16.6378C0.218211 17.2345 0.516742 17.7819 0.944881 18.2191L7.43018 24.8515ZM12.5914 15.1138C13.1197 15.0319 13.6198 14.8213 14.0475 14.5003C14.4751 14.1794 14.8172 13.7581 15.0435 13.2737L18.5392 5.83699L22.0368 13.2737C22.2626 13.7581 22.6043 14.1794 23.0316 14.5003C23.459 14.8213 23.9588 15.032 24.487 15.1138L32.4906 16.3339L26.6271 22.3308C26.2648 22.7041 25.9949 23.157 25.8389 23.6533C25.6829 24.1496 25.6451 24.6755 25.7287 25.1889L27.1019 33.5398L20.0869 29.6772C19.6115 29.4138 19.0768 29.2755 18.5333 29.2755C17.9897 29.2755 17.4551 29.4138 16.9796 29.6772L9.98429 33.5417L11.3575 25.1948C11.4419 24.6809 11.4048 24.1543 11.2491 23.6573C11.0934 23.1603 10.8235 22.7066 10.461 22.3327L4.58968 16.3339L12.5914 15.1138Z" fill="black"/>
</svg>
