<svg width="202" height="77" viewBox="0 0 202 77" fill="none" xmlns="http://www.w3.org/2000/svg">
<path d="M2.54688 28V7.375H7.73828C8.81641 7.375 9.62109 7.58594 10.1523 8.00781C10.6836 8.42969 11.0312 9.04688 11.1953 9.85938C11.3672 10.6719 11.4531 11.6641 11.4531 12.8359C11.4531 14.0469 11.3281 15 11.0781 15.6953C10.8359 16.3828 10.3359 16.8438 9.57812 17.0781C9.9375 17.1406 10.2383 17.2891 10.4805 17.5234C10.7227 17.75 10.918 18.0859 11.0664 18.5312C11.2148 18.9688 11.3203 19.5352 11.3828 20.2305C11.4531 20.918 11.4883 21.7617 11.4883 22.7617C11.4883 22.8398 11.4883 23.0586 11.4883 23.418C11.4883 23.7773 11.4883 24.2031 11.4883 24.6953C11.4961 25.1797 11.5039 25.6641 11.5117 26.1484C11.5195 26.6328 11.5312 27.0469 11.5469 27.3906C11.5625 27.7344 11.582 27.9375 11.6055 28H8.46484C8.44141 27.9609 8.42188 27.7617 8.40625 27.4023C8.39844 27.0352 8.38672 26.5703 8.37109 26.0078C8.36328 25.4453 8.35547 24.8398 8.34766 24.1914C8.34766 23.543 8.34766 22.9062 8.34766 22.2812C8.34766 21.6484 8.34766 21.0898 8.34766 20.6055C8.34766 19.9883 8.30078 19.5234 8.20703 19.2109C8.12109 18.8906 7.95703 18.668 7.71484 18.543C7.48047 18.418 7.14062 18.3438 6.69531 18.3203L5.6875 18.2617V28H2.54688ZM5.69922 15.8242H6.95312C7.33594 15.8242 7.625 15.7383 7.82031 15.5664C8.02344 15.3945 8.16016 15.0781 8.23047 14.6172C8.30859 14.1562 8.34766 13.4922 8.34766 12.625V12.4961C8.34766 11.7695 8.3125 11.2109 8.24219 10.8203C8.17188 10.4297 8.02344 10.1602 7.79688 10.0117C7.57812 9.86328 7.23438 9.78906 6.76562 9.78906H5.69922V15.8242ZM17.5319 28V7.375H24.4459V10.082H20.6725V16.082H24.2584V18.7305H20.6725V25.293H24.5866V28H17.5319ZM34.0286 28.2344C33.1692 28.2344 32.4505 28.1016 31.8723 27.8359C31.302 27.5625 30.8489 27.168 30.513 26.6523C30.1848 26.1289 29.9505 25.4961 29.8098 24.7539C29.6692 24.0039 29.5989 23.1523 29.5989 22.1992V20.3594H32.5755V22.4336C32.5755 23.543 32.6692 24.3398 32.8567 24.8242C33.0442 25.3086 33.4153 25.5508 33.97 25.5508C34.345 25.5508 34.6262 25.4648 34.8137 25.293C35.0091 25.1133 35.138 24.832 35.2005 24.4492C35.2708 24.0586 35.3059 23.5508 35.3059 22.9258C35.3059 22.1523 35.1419 21.4453 34.8137 20.8047C34.4934 20.1641 34.0052 19.5 33.3489 18.8125L31.8255 17.2422C31.4036 16.8047 31.0208 16.3398 30.677 15.8477C30.3411 15.3555 30.0716 14.8086 29.8684 14.207C29.6731 13.5977 29.5755 12.918 29.5755 12.168C29.5755 11.082 29.7083 10.1641 29.9739 9.41406C30.2395 8.66406 30.6887 8.09766 31.3216 7.71484C31.9544 7.32422 32.8216 7.12891 33.9231 7.12891C34.7512 7.12891 35.4309 7.25781 35.9622 7.51562C36.5012 7.76562 36.9192 8.13672 37.2161 8.62891C37.5208 9.11328 37.7356 9.70703 37.8606 10.4102C37.9856 11.1055 38.0481 11.9023 38.0481 12.8008V14.0781H35.1536V12.6016C35.1536 11.9766 35.1184 11.457 35.0481 11.043C34.9856 10.6289 34.8645 10.3203 34.6848 10.1172C34.5052 9.90625 34.2434 9.80078 33.8997 9.80078C33.5716 9.80078 33.3059 9.875 33.1028 10.0234C32.8997 10.1641 32.7512 10.3867 32.6575 10.6914C32.5716 10.9883 32.5286 11.375 32.5286 11.8516C32.5286 12.2812 32.5833 12.6523 32.6927 12.9648C32.802 13.2773 32.97 13.5781 33.1966 13.8672C33.4231 14.1562 33.7044 14.4805 34.0403 14.8398L35.7395 16.6797C36.552 17.5547 37.1848 18.4648 37.638 19.4102C38.0911 20.3555 38.3177 21.4102 38.3177 22.5742C38.3177 23.8086 38.1848 24.8477 37.9192 25.6914C37.6536 26.5273 37.2083 27.1602 36.5833 27.5898C35.9583 28.0195 35.1067 28.2344 34.0286 28.2344ZM48.2987 28.2344C47.2284 28.2344 46.3573 28.0352 45.6855 27.6367C45.0136 27.2305 44.5214 26.6211 44.2089 25.8086C43.8964 24.9883 43.7402 23.9531 43.7402 22.7031V7.375H46.8808V22.6445C46.8808 23.2227 46.9042 23.7305 46.9511 24.168C47.0058 24.6055 47.1308 24.9453 47.3261 25.1875C47.5214 25.4297 47.8417 25.5508 48.287 25.5508C48.7323 25.5508 49.0527 25.4336 49.248 25.1992C49.4511 24.957 49.5761 24.6172 49.623 24.1797C49.6698 23.7422 49.6933 23.2305 49.6933 22.6445V7.375H52.8339V22.7031C52.8339 23.9531 52.6777 24.9883 52.3652 25.8086C52.0605 26.6211 51.5722 27.2305 50.9003 27.6367C50.2362 28.0352 49.3691 28.2344 48.2987 28.2344ZM59.1353 28V7.375H63.0377L65.9673 22.4453L68.7212 7.375H72.647V28H69.8462V20.3125L69.9634 13.2578L67.1861 27.9062H64.69L61.7955 13.2578L61.9127 20.3125V28H59.1353ZM79.1125 28V7.375H86.0266V10.082H82.2531V16.082H85.8391V18.7305H82.2531V25.293H86.1672V28H79.1125ZM103.282 28.2344C102.422 28.2344 101.704 28.1016 101.125 27.8359C100.555 27.5625 100.102 27.168 99.7661 26.6523C99.438 26.1289 99.2036 25.4961 99.063 24.7539C98.9223 24.0039 98.852 23.1523 98.852 22.1992V20.3594H101.829V22.4336C101.829 23.543 101.922 24.3398 102.11 24.8242C102.297 25.3086 102.668 25.5508 103.223 25.5508C103.598 25.5508 103.879 25.4648 104.067 25.293C104.262 25.1133 104.391 24.832 104.454 24.4492C104.524 24.0586 104.559 23.5508 104.559 22.9258C104.559 22.1523 104.395 21.4453 104.067 20.8047C103.747 20.1641 103.258 19.5 102.602 18.8125L101.079 17.2422C100.657 16.8047 100.274 16.3398 99.9302 15.8477C99.5942 15.3555 99.3247 14.8086 99.1216 14.207C98.9262 13.5977 98.8286 12.918 98.8286 12.168C98.8286 11.082 98.9614 10.1641 99.227 9.41406C99.4927 8.66406 99.9419 8.09766 100.575 7.71484C101.207 7.32422 102.075 7.12891 103.176 7.12891C104.004 7.12891 104.684 7.25781 105.215 7.51562C105.754 7.76562 106.172 8.13672 106.469 8.62891C106.774 9.11328 106.989 9.70703 107.114 10.4102C107.239 11.1055 107.301 11.9023 107.301 12.8008V14.0781H104.407V12.6016C104.407 11.9766 104.372 11.457 104.301 11.043C104.239 10.6289 104.118 10.3203 103.938 10.1172C103.758 9.90625 103.497 9.80078 103.153 9.80078C102.825 9.80078 102.559 9.875 102.356 10.0234C102.153 10.1641 102.004 10.3867 101.911 10.6914C101.825 10.9883 101.782 11.375 101.782 11.8516C101.782 12.2812 101.836 12.6523 101.946 12.9648C102.055 13.2773 102.223 13.5781 102.45 13.8672C102.676 14.1562 102.957 14.4805 103.293 14.8398L104.993 16.6797C105.805 17.5547 106.438 18.4648 106.891 19.4102C107.344 20.3555 107.571 21.4102 107.571 22.5742C107.571 23.8086 107.438 24.8477 107.172 25.6914C106.907 26.5273 106.461 27.1602 105.836 27.5898C105.211 28.0195 104.36 28.2344 103.282 28.2344ZM113.146 28V7.375H120.06V10.082H116.286V16.082H119.872V18.7305H116.286V25.293H120.2V28H113.146ZM125.881 28V7.375H131.072C132.15 7.375 132.955 7.58594 133.486 8.00781C134.017 8.42969 134.365 9.04688 134.529 9.85938C134.701 10.6719 134.787 11.6641 134.787 12.8359C134.787 14.0469 134.662 15 134.412 15.6953C134.17 16.3828 133.67 16.8438 132.912 17.0781C133.271 17.1406 133.572 17.2891 133.814 17.5234C134.056 17.75 134.252 18.0859 134.4 18.5312C134.549 18.9688 134.654 19.5352 134.717 20.2305C134.787 20.918 134.822 21.7617 134.822 22.7617C134.822 22.8398 134.822 23.0586 134.822 23.418C134.822 23.7773 134.822 24.2031 134.822 24.6953C134.83 25.1797 134.838 25.6641 134.845 26.1484C134.853 26.6328 134.865 27.0469 134.881 27.3906C134.896 27.7344 134.916 27.9375 134.939 28H131.799C131.775 27.9609 131.756 27.7617 131.74 27.4023C131.732 27.0352 131.72 26.5703 131.705 26.0078C131.697 25.4453 131.689 24.8398 131.681 24.1914C131.681 23.543 131.681 22.9062 131.681 22.2812C131.681 21.6484 131.681 21.0898 131.681 20.6055C131.681 19.9883 131.635 19.5234 131.541 19.2109C131.455 18.8906 131.291 18.668 131.049 18.543C130.814 18.418 130.474 18.3438 130.029 18.3203L129.021 18.2617V28H125.881ZM129.033 15.8242H130.287C130.67 15.8242 130.959 15.7383 131.154 15.5664C131.357 15.3945 131.494 15.0781 131.564 14.6172C131.642 14.1562 131.681 13.4922 131.681 12.625V12.4961C131.681 11.7695 131.646 11.2109 131.576 10.8203C131.506 10.4297 131.357 10.1602 131.131 10.0117C130.912 9.86328 130.568 9.78906 130.099 9.78906H129.033V15.8242ZM142.963 28L139.764 7.375H142.752L144.1 16.6914L144.932 23.2539H145.014L145.729 16.6914L146.854 7.375H149.784L146.842 28H142.963ZM155.194 28V7.375H158.335V28H155.194ZM169.09 28.2344C168.09 28.2344 167.257 28.0039 166.593 27.543C165.929 27.082 165.429 26.4102 165.093 25.5273C164.765 24.6367 164.601 23.5625 164.601 22.3047V13.3164C164.601 12.3711 164.679 11.5195 164.836 10.7617C164.992 10.0039 165.246 9.35547 165.597 8.81641C165.949 8.27734 166.418 7.86328 167.004 7.57422C167.59 7.28516 168.312 7.14062 169.172 7.14062C169.953 7.14062 170.617 7.26953 171.164 7.52734C171.718 7.77734 172.168 8.14062 172.511 8.61719C172.863 9.09375 173.117 9.67188 173.273 10.3516C173.437 11.0234 173.519 11.7812 173.519 12.625V15.4609H170.484V12.8242C170.484 11.8086 170.398 11.0625 170.226 10.5859C170.054 10.1016 169.711 9.85938 169.195 9.85938C168.625 9.85938 168.242 10.1211 168.047 10.6445C167.859 11.1602 167.765 11.8828 167.765 12.8125V22.4453C167.765 23.1641 167.804 23.7539 167.882 24.2148C167.968 24.668 168.109 25.0039 168.304 25.2227C168.5 25.4336 168.773 25.5391 169.125 25.5391C169.656 25.5391 170.015 25.2891 170.203 24.7891C170.39 24.2891 170.484 23.4961 170.484 22.4102V19.457H173.566V22.375C173.566 23.6797 173.414 24.7695 173.109 25.6445C172.804 26.5117 172.32 27.1602 171.656 27.5898C171 28.0195 170.144 28.2344 169.09 28.2344ZM179.586 28V7.375H186.5V10.082H182.727V16.082H186.313V18.7305H182.727V25.293H186.641V28H179.586ZM196.083 28.2344C195.224 28.2344 194.505 28.1016 193.927 27.8359C193.356 27.5625 192.903 27.168 192.567 26.6523C192.239 26.1289 192.005 25.4961 191.864 24.7539C191.724 24.0039 191.653 23.1523 191.653 22.1992V20.3594H194.63V22.4336C194.63 23.543 194.724 24.3398 194.911 24.8242C195.099 25.3086 195.47 25.5508 196.024 25.5508C196.399 25.5508 196.681 25.4648 196.868 25.293C197.063 25.1133 197.192 24.832 197.255 24.4492C197.325 24.0586 197.36 23.5508 197.36 22.9258C197.36 22.1523 197.196 21.4453 196.868 20.8047C196.548 20.1641 196.06 19.5 195.403 18.8125L193.88 17.2422C193.458 16.8047 193.075 16.3398 192.731 15.8477C192.395 15.3555 192.126 14.8086 191.923 14.207C191.727 13.5977 191.63 12.918 191.63 12.168C191.63 11.082 191.763 10.1641 192.028 9.41406C192.294 8.66406 192.743 8.09766 193.376 7.71484C194.009 7.32422 194.876 7.12891 195.977 7.12891C196.806 7.12891 197.485 7.25781 198.017 7.51562C198.556 7.76562 198.974 8.13672 199.27 8.62891C199.575 9.11328 199.79 9.70703 199.915 10.4102C200.04 11.1055 200.102 11.9023 200.102 12.8008V14.0781H197.208V12.6016C197.208 11.9766 197.173 11.457 197.102 11.043C197.04 10.6289 196.919 10.3203 196.739 10.1172C196.56 9.90625 196.298 9.80078 195.954 9.80078C195.626 9.80078 195.36 9.875 195.157 10.0234C194.954 10.1641 194.806 10.3867 194.712 10.6914C194.626 10.9883 194.583 11.375 194.583 11.8516C194.583 12.2812 194.638 12.6523 194.747 12.9648C194.856 13.2773 195.024 13.5781 195.251 13.8672C195.477 14.1562 195.759 14.4805 196.095 14.8398L197.794 16.6797C198.606 17.5547 199.239 18.4648 199.692 19.4102C200.145 20.3555 200.372 21.4102 200.372 22.5742C200.372 23.8086 200.239 24.8477 199.974 25.6914C199.708 26.5273 199.263 27.1602 198.638 27.5898C198.013 28.0195 197.161 28.2344 196.083 28.2344Z" fill="#333333"/>
<path d="M17.598 67.672C15.246 67.672 13.062 67.308 11.046 66.58C9.058 65.824 7.322 64.76 5.838 63.388C4.382 62.016 3.248 60.392 2.436 58.516C1.624 56.64 1.218 54.568 1.218 52.3C1.218 50.032 1.624 47.96 2.436 46.084C3.248 44.208 4.382 42.584 5.838 41.212C7.322 39.84 9.058 38.79 11.046 38.062C13.062 37.306 15.246 36.928 17.598 36.928C20.482 36.928 23.03 37.432 25.242 38.44C27.482 39.448 29.33 40.904 30.786 42.808L24.528 48.394C23.66 47.302 22.694 46.462 21.63 45.874C20.594 45.258 19.418 44.95 18.102 44.95C17.066 44.95 16.128 45.118 15.288 45.454C14.448 45.79 13.72 46.28 13.104 46.924C12.516 47.568 12.054 48.352 11.718 49.276C11.382 50.172 11.214 51.18 11.214 52.3C11.214 53.42 11.382 54.442 11.718 55.366C12.054 56.262 12.516 57.032 13.104 57.676C13.72 58.32 14.448 58.81 15.288 59.146C16.128 59.482 17.066 59.65 18.102 59.65C19.418 59.65 20.594 59.356 21.63 58.768C22.694 58.152 23.66 57.298 24.528 56.206L30.786 61.792C29.33 63.668 27.482 65.124 25.242 66.16C23.03 67.168 20.482 67.672 17.598 67.672ZM30.0457 67L42.8978 37.6H52.6418L65.4938 67H55.2458L45.7538 42.304H49.6178L40.1258 67H30.0457ZM37.6898 61.876L40.2098 54.736H53.7338L56.2538 61.876H37.6898ZM67.0756 67V37.6H75.2236L90.1756 55.492H86.3956V37.6H96.0556V67H87.9076L72.9556 49.108H76.7356V67H67.0756ZM97.6395 67L110.492 37.6H120.236L133.088 67H122.84L113.348 42.304H117.212L107.72 67H97.6395ZM105.284 61.876L107.804 54.736H121.328L123.848 61.876H105.284ZM134.669 67V37.6H149.159C152.435 37.6 155.319 38.202 157.811 39.406C160.303 40.582 162.249 42.262 163.649 44.446C165.049 46.63 165.749 49.234 165.749 52.258C165.749 55.31 165.049 57.942 163.649 60.154C162.249 62.338 160.303 64.032 157.811 65.236C155.319 66.412 152.435 67 149.159 67H134.669ZM144.581 59.272H148.739C150.139 59.272 151.357 59.006 152.393 58.474C153.457 57.942 154.283 57.158 154.871 56.122C155.459 55.058 155.753 53.77 155.753 52.258C155.753 50.774 155.459 49.514 154.871 48.478C154.283 47.442 153.457 46.658 152.393 46.126C151.357 45.594 150.139 45.328 148.739 45.328H144.581V59.272ZM165.766 67L178.618 37.6H188.362L201.214 67H190.966L181.474 42.304H185.338L175.846 67H165.766ZM173.41 61.876L175.93 54.736H189.454L191.974 61.876H173.41Z" fill="#D52B1E"/>
</svg>
