<svg width="253" height="31" viewBox="0 0 253 31" fill="none" xmlns="http://www.w3.org/2000/svg">
<path fill-rule="evenodd" clip-rule="evenodd" d="M44.1759 23.5001L70.6767 23.5001C71.8767 23.5001 72.8487 22.5305 72.8487 21.3437V9.60171C72.8487 8.41611 71.8767 7.44531 70.6767 7.44531L44.1759 7.44531C42.9759 7.44531 42.0039 8.41611 42.0039 9.60171V21.3437C42.0051 22.5305 42.9759 23.5001 44.1759 23.5001ZM45.8607 10.5605L69.1131 10.5605C69.5115 10.5605 69.8367 10.8845 69.8367 11.2793V19.6673C69.8367 20.0621 69.5115 20.3861 69.1131 20.3861L45.8607 20.3861C45.4623 20.3861 45.1371 20.0621 45.1371 19.6673V11.2793C45.1371 10.8833 45.4623 10.5605 45.8607 10.5605Z" fill="black"/>
<path fill-rule="evenodd" clip-rule="evenodd" d="M6.94531 23.5001H10.0773V19.6673L35.4993 19.6673C36.7581 19.6673 37.7889 18.6425 37.7889 17.3909V9.72171C37.7889 8.47011 36.7581 7.44531 35.4993 7.44531L10.0773 7.44531H9.23371H6.94531V9.72171L6.94531 17.3909L6.94531 23.5001ZM10.0773 16.5509L10.0773 10.5605H10.9197L31.4013 10.5605H33.6909C34.2201 10.5605 34.6545 10.9913 34.6545 11.5193V15.5933C34.6545 16.1201 34.2213 16.5521 33.6909 16.5521H31.4013L10.9209 16.5521H10.0773V16.5509Z" fill="black"/>
<path fill-rule="evenodd" clip-rule="evenodd" d="M76.9453 23.5003H80.0785V19.6675L102.66 19.6675L104.639 23.5003H108.025L106.015 19.6087C107.028 19.3747 107.788 18.4663 107.788 17.3899V9.72074C107.788 8.46914 106.758 7.44434 105.499 7.44434L80.0785 7.44434H79.2349H76.9453V9.72074V17.3899V23.5003ZM80.0785 16.5511V10.5607H80.9209L101.403 10.5607H103.691C104.221 10.5607 104.656 10.9915 104.656 11.5195V15.5935C104.656 16.1203 104.223 16.5523 103.691 16.5523H101.403L80.9209 16.5523H80.0785V16.5511Z" fill="black"/>
<path fill-rule="evenodd" clip-rule="evenodd" d="M181.766 23.5003H184.899V17.0299L207.91 17.0299V23.5003H211.043V7.44434H207.91V13.9159L184.899 13.9159V7.44434H181.766V23.5003Z" fill="black"/>
<path fill-rule="evenodd" clip-rule="evenodd" d="M150.202 23.5003L177.068 23.5003V20.3443C176.992 20.3707 176.91 20.3851 176.826 20.3851L151.887 20.3851C151.491 20.3851 151.163 20.0611 151.163 19.6663V11.2783C151.163 10.8835 151.49 10.5595 151.887 10.5595L176.826 10.5595C176.91 10.5595 176.992 10.5751 177.068 10.6015V7.44434L150.202 7.44434C149.003 7.44434 148.031 8.41514 148.031 9.60074V21.3427C148.031 22.5307 149.003 23.5003 150.202 23.5003Z" fill="black"/>
<path fill-rule="evenodd" clip-rule="evenodd" d="M215.861 23.5003H217.67H218.995L246.945 23.5003V20.3851L218.995 20.3851V17.0299L246.945 17.0299V13.9159L218.995 13.9159V10.5607L246.945 10.5607V7.44434L218.995 7.44434H217.67H215.861V23.5003Z" fill="black"/>
<path fill-rule="evenodd" clip-rule="evenodd" d="M116.464 11.9983V11.2783C116.464 10.8835 116.79 10.5595 117.187 10.5595L142.128 10.5595C142.212 10.5595 142.293 10.5751 142.368 10.6015V7.44434L115.502 7.44434C114.302 7.44434 113.33 8.41514 113.33 9.60074V10.5595V11.9971V14.8723C113.33 16.0579 114.302 17.0287 115.502 17.0287H117.789V17.0695C117.865 17.0443 117.945 17.0287 118.029 17.0287L138.511 17.0287C138.909 17.0287 139.234 17.3527 139.234 17.7487V18.9463V19.6663C139.234 20.0611 138.909 20.3851 138.511 20.3851L113.571 20.3851C113.487 20.3851 113.406 20.3707 113.33 20.3443V23.5003L140.196 23.5003C141.396 23.5003 142.368 22.5295 142.368 21.3439V20.3851V18.9475V16.0723C142.368 14.8855 141.396 13.9147 140.196 13.9147H137.911V13.8739C137.834 13.9003 137.754 13.9147 137.668 13.9147L117.186 13.9147C116.788 13.9147 116.463 13.5907 116.463 13.1947V11.9983H116.464Z" fill="black"/>
</svg>
