<svg width="269" height="29" viewBox="0 0 269 29" fill="none" xmlns="http://www.w3.org/2000/svg">
<path d="M267.589 2.49149V27.8244L250.188 9.66367V26.3439H246.562V0.879395L263.997 19.073V2.49149L267.589 2.49149Z" fill="black"/>
<path d="M227.381 1.99805C227.381 1.99805 223.855 2.03095 221.02 3.70884C221.02 3.70884 218.186 5.35384 216.538 8.18323C216.538 8.18323 214.857 10.9797 214.824 14.5C214.824 14.5 214.857 17.9874 216.505 20.751C216.505 20.751 218.186 23.5146 220.987 25.1267C220.987 25.1267 223.822 26.7717 227.381 26.8046C227.381 26.8046 230.842 26.7717 233.643 25.0938C233.643 25.0938 236.444 23.4488 238.092 20.6523C238.092 20.6523 239.773 17.8558 239.806 14.4013C239.806 14.4013 239.773 10.9468 238.092 8.15033C238.092 8.15033 236.444 5.35384 233.643 3.70884C233.643 3.70884 230.842 2.03095 227.381 1.99805ZM227.348 5.38674C227.348 5.38674 229.886 5.41964 231.863 6.60403C231.863 6.60403 233.841 7.78843 234.994 9.79533C234.994 9.79533 236.181 11.8351 236.181 14.4342C236.181 14.4342 236.148 16.9346 234.994 18.9744C234.994 18.9744 233.808 20.9813 231.797 22.1657C231.797 22.1657 229.82 23.383 227.348 23.383C227.348 23.383 224.843 23.3501 222.833 22.1986C222.833 22.1986 220.822 21.0142 219.636 19.0073C219.636 19.0073 218.482 16.9675 218.45 14.4342C218.45 14.4342 218.482 11.868 219.636 9.82823C219.636 9.82823 220.79 7.78843 222.8 6.60403C222.8 6.60403 224.81 5.41964 227.348 5.38674Z" fill="black"/>
<path d="M206.057 5.84767V26.3443H202.432V5.84767L196.961 5.84767V2.45898L211.561 2.45898V5.84767H206.057Z" fill="black"/>
<path d="M193.567 5.84719H188.063V26.3438H184.438V5.84719L178.967 5.84719V2.4585L193.567 2.4585V5.84719Z" fill="black"/>
<path d="M172.77 2.45898V26.3443H169.145V2.45898L172.77 2.45898Z" fill="black"/>
<path d="M160.708 2.4585V17.8228C160.708 17.8228 160.675 20.4218 159.555 22.4287C159.555 22.4287 158.401 24.4356 156.424 25.62C156.424 25.62 154.446 26.7715 151.909 26.8044C151.909 26.8044 149.338 26.7715 147.327 25.62C147.327 25.62 145.35 24.4356 144.196 22.4287C144.196 22.4287 143.076 20.4218 143.043 17.8228V2.4585L146.668 2.4585V16.8358C146.668 16.8358 146.668 18.3821 146.833 19.3032C146.833 19.3032 146.998 20.2244 147.426 20.9482C147.426 20.9482 148.085 22.0997 149.272 22.7248C149.272 22.7248 150.458 23.3828 151.909 23.3828C151.909 23.3828 153.326 23.3828 154.512 22.7248C154.512 22.7248 155.666 22.0997 156.358 20.9482C156.358 20.9482 156.786 20.2244 156.951 19.3032L157.083 16.8358V2.4585L160.708 2.4585Z" fill="black"/>
<path d="M116.184 2.45898L120.138 2.45898L126.73 19.0076L133.42 2.45898L137.375 2.45898L126.664 28.1209L116.184 2.45898Z" fill="black"/>
<path d="M95.1563 5.88024C95.1563 5.88024 94.3653 5.38674 93.1459 5.38674C93.1459 5.38674 91.6298 5.41964 90.6741 6.24214C90.6741 6.24214 89.7183 7.06463 89.6853 8.34773C89.6853 8.34773 89.6524 9.56503 90.8059 10.3546L91.3991 10.7494L92.3219 11.1771L94.6619 12.1312C94.6619 12.1312 97.5292 13.3156 98.8805 14.9935C98.8805 14.9935 100.265 16.7043 100.232 19.0731C100.232 19.0731 100.232 21.3103 99.243 23.054C99.243 23.054 98.2872 24.7648 96.5735 25.7847C96.5735 25.7847 94.8597 26.7717 92.6845 26.8046C92.6845 26.8046 89.4546 26.7717 87.4442 24.9622C87.4442 24.9622 85.4338 23.1198 84.9395 19.764L88.5977 18.9086L88.8614 20.5207C88.8614 20.5207 89.0262 21.1129 89.2898 21.5406C89.2898 21.5406 89.7513 22.396 90.6741 22.8895C90.6741 22.8895 91.5969 23.383 92.7174 23.383C92.7174 23.383 94.4312 23.3501 95.5188 22.2644C95.5188 22.2644 96.6064 21.1787 96.6394 19.435C96.6394 19.435 96.6064 17.3952 94.9915 16.2766C94.9915 16.2766 94.1346 15.7173 93.2118 15.3554L90.9377 14.3684C90.9377 14.3684 85.9941 12.3286 86.0271 8.34773C86.0271 8.34773 86.0271 6.50533 86.9828 5.09064C86.9828 5.09064 87.9056 3.67594 89.5205 2.85344C89.5205 2.85344 91.1355 2.03095 93.1788 1.99805C93.1788 1.99805 95.3211 1.99805 96.8701 2.95214C96.8701 2.95214 98.452 3.90624 99.6385 6.01184L96.7382 7.75553C96.7382 7.75553 95.9473 6.40663 95.1563 5.88024Z" fill="black"/>
<path d="M77.721 2.45898V26.3443H74.0957V2.45898L77.721 2.45898Z" fill="black"/>
<path d="M62.0341 2.45898L65.6594 2.45898V17.8232C65.6594 17.8232 65.6264 20.4223 64.5059 22.4292C64.5059 22.4292 63.3524 24.4361 61.3749 25.6205C61.3749 25.6205 59.3974 26.772 56.8597 26.8049C56.8597 26.8049 54.289 26.772 52.2786 25.6205C52.2786 25.6205 50.3012 24.4361 49.1477 22.4292C49.1477 22.4292 48.0271 20.4223 47.9941 17.8232V2.45898L51.6195 2.45898V16.8362C51.6195 16.8362 51.6195 18.3825 51.7843 19.3037C51.7843 19.3037 51.949 20.2249 52.3775 20.9487C52.3775 20.9487 53.0366 22.1002 54.2231 22.7253C54.2231 22.7253 55.4096 23.3833 56.8597 23.3833C56.8597 23.3833 58.2769 23.3833 59.4634 22.7253C59.4634 22.7253 60.6169 22.1002 61.309 20.9487C61.309 20.9487 61.7374 20.2249 61.9022 19.3037L62.0341 16.8362V2.45898Z" fill="black"/>
<path d="M28.3517 1.99805C28.3517 1.99805 24.8253 2.03095 21.9909 3.70884C21.9909 3.70884 19.1566 5.35384 17.5087 8.18323C17.5087 8.18323 15.8279 10.9797 15.7949 14.5C15.7949 14.5 15.8279 17.9874 17.4758 20.751C17.4758 20.751 19.1566 23.5146 21.958 25.1267C21.958 25.1267 24.7923 26.7717 28.3517 26.8046C28.3517 26.8046 31.8123 26.7717 34.6137 25.0938C34.6137 25.0938 37.4151 23.4488 39.0629 20.6523C39.0629 20.6523 40.7438 17.8558 40.7767 14.4013C40.7767 14.4013 40.7438 10.9468 39.0629 8.15033C39.0629 8.15033 37.4151 5.35384 34.6137 3.70884C34.6137 3.70884 31.8123 2.03095 28.3517 1.99805ZM28.3188 5.38674C28.3188 5.38674 30.8565 5.41964 32.834 6.60403C32.834 6.60403 34.8114 7.78843 35.9649 9.79533C35.9649 9.79533 37.1184 11.8351 37.1514 14.4342C37.1514 14.4342 37.1184 16.9346 35.9649 18.9744C35.9649 18.9744 34.7785 20.9813 32.768 22.1657C32.768 22.1657 30.7906 23.383 28.3188 23.383C28.3188 23.383 25.814 23.3501 23.8036 22.1986C23.8036 22.1986 21.7932 21.0142 20.6067 19.0073C20.6067 19.0073 19.4532 16.9675 19.4202 14.4342C19.4202 14.4342 19.4532 11.868 20.6067 9.82823C20.6067 9.82823 21.7602 7.78843 23.7706 6.60403C23.7706 6.60403 25.7811 5.41964 28.3188 5.38674Z" fill="black"/>
<path d="M4.85189 2.45898L4.85189 22.9227H11.8718L11.8718 26.3443H1.22656L1.22656 2.45898L4.85189 2.45898Z" fill="black"/>
</svg>
