<svg width="229" height="51" viewBox="0 0 229 51" fill="none" xmlns="http://www.w3.org/2000/svg">
<path d="M124.62 16.9721H129.73V31.1866C129.73 38.4018 125.754 42.5402 118.827 42.5402C111.971 42.5402 108.031 38.4737 108.031 31.3845V16.9901H113.141V31.2226C113.141 35.4329 115.21 37.682 118.898 37.682C122.587 37.682 124.62 35.4869 124.62 31.4025V16.9721ZM95.8314 27.1202H84.2799V16.9721H79.1699V42.1623H84.2799V31.9243H95.8134V42.1623H100.923V16.9721H95.8134V27.1202H95.8314ZM223.798 16.9721V42.1263H228.836V16.9721H223.798ZM203.736 31.3125H213.038V26.7243H203.736V21.5603L217.23 21.5603V16.9901L198.697 16.9901V42.1443H217.716V37.5561H203.736V31.3125ZM183.691 34.2814L177.97 16.9541H173.795L168.073 34.2814L162.514 16.9721H157.08L165.86 42.1443H170.089L175.81 25.6087L181.532 42.1443H185.796L194.559 16.9721H189.251L183.691 34.2814ZM147.993 17.116L158.987 42.1443H153.625L151.358 36.9083H139.824L139.662 37.2682L137.539 42.1443H132.321L143.423 16.9721H147.885L147.993 17.116ZM149.217 31.7623L145.582 23.3236L141.966 31.7623L141.714 32.3381H149.451L149.217 31.7623Z" fill="#24272A"/>
<path d="M28.8619 39.481C28.9339 39.427 28.9519 39.3191 28.9159 39.2291C23.9544 28.5652 17.7649 18.5171 10.473 9.28874C10.473 9.28874 4.6793 14.7946 5.09314 20.3185C5.19007 21.592 5.53714 22.8339 6.11449 23.9731C6.69184 25.1124 7.48814 26.1266 8.45783 26.9579C13.5139 31.888 25.7491 38.1135 28.592 39.535C28.682 39.571 28.7899 39.553 28.8619 39.481ZM26.9726 43.6914C26.9366 43.5834 26.8287 43.5114 26.7027 43.5114L6.33465 44.2132C8.54779 48.1536 12.2723 51.2124 16.1408 50.2768C18.8218 49.6111 24.8674 45.3827 26.8647 43.9433C27.0266 43.8173 26.9726 43.7094 26.9726 43.6914ZM27.2785 41.8741C27.3865 41.7121 27.2065 41.5682 27.2065 41.5682C18.264 35.5225 0.918758 26.2381 0.918758 26.2381C0.343843 28.0003 0.183014 29.8713 0.448771 31.7057C0.714527 33.5402 1.39971 35.2886 2.45107 36.8151C3.50243 38.3417 4.89164 39.6053 6.51074 40.5076C8.12983 41.41 9.9352 41.9268 11.7865 42.018C12.0924 42.072 23.8958 42.018 27.0626 42C27.1526 41.982 27.2245 41.946 27.2785 41.8741ZM28.628 0.490161C27.7463 0.562133 25.3533 1.11992 25.3533 1.11992C19.9554 2.50538 18.6779 7.41747 18.6779 7.41747C17.6882 10.4943 18.6958 13.8949 18.6958 13.8949C20.4951 21.8838 29.3477 35.0367 31.255 37.7897C31.3809 37.9336 31.4889 37.8796 31.4889 37.8796C31.5968 37.8436 31.6868 37.7537 31.6868 37.6277C34.6376 8.26314 28.628 0.490161 28.628 0.490161ZM35.3754 37.8436C35.4833 37.8796 35.6093 37.8436 35.6632 37.7357C37.6245 34.9108 46.4231 21.8299 48.2224 13.877C48.2224 13.877 49.194 10.0265 48.2584 7.39947C48.2584 7.39947 46.9269 2.41541 41.529 1.10192C41.529 1.10192 39.9816 0.706077 38.3262 0.472168C38.3262 0.472168 32.2806 8.24515 35.2314 37.6097C35.2134 37.7177 35.2854 37.8077 35.3754 37.8436ZM40.1975 43.5294C40.1495 43.5391 40.1041 43.5585 40.0639 43.5863C40.0236 43.6141 39.9895 43.6499 39.9636 43.6914C39.9456 43.7993 39.9636 43.8893 40.0355 43.9613C41.9788 45.3647 47.8985 49.5031 50.7414 50.2948C50.7414 50.2948 56.0133 52.0941 60.5836 44.2312L40.1975 43.5294ZM66.0174 26.2022C66.0174 26.2022 48.7082 35.5045 39.7477 41.5502C39.6577 41.6222 39.6037 41.7301 39.6397 41.8381C39.6397 41.8381 39.7297 42 39.8556 42C43.0584 42 55.1857 42.018 55.5095 41.964C56.7151 41.8741 57.9026 41.6042 59.0182 41.1544C59.0182 41.1544 63.3365 39.7869 65.5676 34.8748C65.5676 34.8748 67.5648 30.8803 66.0174 26.2022ZM38.1103 39.481C38.1823 39.535 38.2902 39.553 38.3802 39.499C41.2951 38.0416 53.4403 31.87 58.4604 26.9579C58.4604 26.9579 61.6451 24.4029 61.8071 20.2825C62.1669 14.5787 56.4272 9.28874 56.4272 9.28874C56.4272 9.28874 45.8113 22.1537 38.0203 39.1571C38.0078 39.2144 38.0095 39.2738 38.0252 39.3302C38.0409 39.3867 38.0701 39.4384 38.1103 39.481Z" fill="#CE0E2D"/>
</svg>
