<svg width="150" height="51" viewBox="0 0 150 51" fill="none" xmlns="http://www.w3.org/2000/svg">
<g clip-path="url(#clip0_123_1185)">
<path fill-rule="evenodd" clip-rule="evenodd" d="M123.656 44.7918L118.103 38.5549L112.591 44.7918L101.002 44.7918L112.336 32.0631L101.002 19.3343H112.953L118.559 25.5176L123.965 19.3343H135.5L124.219 32.0094L135.661 44.7918H123.656ZM78.75 44.7918V4.6875L101.002 4.6875V13.6338L88.1792 13.6338V19.3343L101.002 19.3343V27.9319L88.1792 27.9319V35.8186H101.002V44.7918H78.75Z" fill="#FF6600"/>
<path fill-rule="evenodd" clip-rule="evenodd" d="M69.3616 4.6875V21.1048H69.2543C67.3239 18.9068 64.4893 17.7195 61.5687 17.8857C55.6929 17.9374 50.5859 21.9327 49.1216 27.6234C47.2573 21.5072 42.4152 17.765 35.3467 17.765C29.5658 17.765 25.0054 20.3537 22.6179 24.5921V19.3343L10.6537 19.3343V13.6204L23.6909 13.6204V4.6875L0.00390625 4.6875L0.00390625 44.7918H10.6537L10.6537 27.9319L21.2632 27.9319C20.9321 29.2473 20.7698 30.5994 20.7804 31.9558C20.7804 40.3254 27.1649 46.1868 35.3333 46.1868C42.1872 46.1868 46.7073 42.9677 49.0948 37.0929H39.9741C39.0475 38.7406 37.205 39.6512 35.3333 39.3865C32.3612 39.3211 29.982 36.9002 29.9681 33.9274L48.5851 33.9274C49.3899 40.6339 54.5672 46.2941 61.6626 46.2941C64.7025 46.3037 67.5461 44.7938 69.2409 42.2702H69.3482V44.7918H78.7371V4.6875L69.3616 4.6875ZM30.29 28.0526C30.7353 25.6216 32.8484 23.8522 35.3199 23.841C37.8505 23.713 40.0585 25.5423 40.4033 28.0526H30.29ZM63.6477 38.689C60.1872 38.689 58.0412 35.4699 58.0412 32.0899C58.0412 28.4952 59.919 25.0347 63.6477 25.0347C67.3765 25.0347 69.0128 28.4952 69.0128 32.0899C69.0128 35.6845 67.4436 38.689 63.6611 38.689H63.6477Z" fill="#4D148C"/>
<path fill-rule="evenodd" clip-rule="evenodd" d="M149.087 40.0035C149.028 37.8554 147.25 36.1559 145.101 36.1949C142.953 36.2339 141.237 37.9967 141.256 40.1455C141.275 42.2944 143.022 44.0265 145.171 44.0273C146.235 44.0509 147.262 43.6309 148.005 42.8678C148.748 42.1047 149.14 41.0671 149.087 40.0035ZM144.151 40.2047V42.8872H143.306V37.0392H145.412C146.646 37.0392 147.209 37.5757 147.209 38.6354C147.231 39.2408 146.801 39.7687 146.204 39.8693C146.686 39.9498 146.874 40.379 146.981 41.2106C147.018 41.7669 147.141 42.3143 147.344 42.8336H146.338C146.173 42.1882 146.043 41.5345 145.949 40.8753C145.861 40.4216 145.424 40.1228 144.97 40.2047H144.151ZM145.211 39.4535C146.029 39.4535 146.271 39.0109 146.271 38.6354C146.271 38.2598 146.043 37.8172 145.211 37.8172H144.151V39.4669H145.211V39.4535ZM140.342 39.99C140.32 38.0269 141.486 36.2449 143.294 35.4785C145.101 34.7121 147.193 35.1131 148.589 36.4935C149.984 37.874 150.409 39.9608 149.663 41.7767C148.916 43.5927 147.147 44.7783 145.184 44.7784C143.901 44.8076 142.66 44.3143 141.747 43.4115C140.834 42.5087 140.327 41.2739 140.342 39.99Z" fill="#FF6600"/>
</g>
<defs>
<clipPath id="clip0_123_1185">
<rect width="150" height="50" fill="white" transform="translate(0.00390625 0.5)"/>
</clipPath>
</defs>
</svg>
