<svg width="236" height="51" viewBox="0 0 236 51" fill="none" xmlns="http://www.w3.org/2000/svg">
<g clip-path="url(#clip0_123_1215)">
<path d="M234.27 23.6068V19.4901H229.158V13.0902L228.985 13.1431L224.184 14.6123L224.089 14.6411V19.4903L216.51 19.4903V16.7888C216.51 15.531 216.792 14.5684 217.346 13.9264C217.896 13.2921 218.684 12.9697 219.688 12.9697C220.41 12.9697 221.157 13.1398 221.91 13.4751L222.098 13.5593V9.22391L222.01 9.1913C221.308 8.93904 220.353 8.81201 219.17 8.81201C217.679 8.81201 216.324 9.1365 215.143 9.77959C213.96 10.4236 213.03 11.3429 212.379 12.5118C211.73 13.6794 211.4 15.0278 211.4 16.5201V19.4901H207.841V23.6068H211.4V40.9496H216.51V23.6068L224.089 23.6068V34.6279C224.089 39.1669 226.23 41.4671 230.453 41.4671C231.146 41.4671 231.877 41.3858 232.622 41.2266C233.381 41.0631 233.898 40.8998 234.203 40.7255L234.27 40.6856V36.5309L234.062 36.6683C233.785 36.8531 233.439 37.0041 233.034 37.1164C232.628 37.2308 232.288 37.2881 232.025 37.2881C231.036 37.2881 230.304 37.0216 229.85 36.4955C229.391 35.9648 229.158 35.0366 229.158 33.7382V23.6068H234.27ZM196.429 37.2888C194.574 37.2888 193.112 36.6738 192.081 35.4623C191.044 34.2447 190.519 32.5088 190.519 30.3033C190.519 28.0278 191.044 26.2468 192.082 25.0077C193.113 23.7768 194.561 23.1521 196.387 23.1521C198.159 23.1521 199.57 23.7487 200.58 24.9265C201.595 26.1103 202.111 27.877 202.111 30.179C202.111 32.5093 201.626 34.2993 200.671 35.4967C199.722 36.6851 198.295 37.2888 196.429 37.2888ZM196.656 18.9731C193.117 18.9731 190.307 20.01 188.303 22.055C186.3 24.1002 185.285 26.9305 185.285 30.4679C185.285 33.8278 186.276 36.5304 188.231 38.4993C190.186 40.4689 192.847 41.4666 196.139 41.4666C199.569 41.4666 202.323 40.4152 204.327 38.3419C206.329 36.2709 207.344 33.4674 207.344 30.0125C207.344 26.6001 206.392 23.8774 204.513 21.9216C202.633 19.9649 199.989 18.9731 196.656 18.9731ZM177.046 18.9731C174.639 18.9731 172.648 19.5888 171.127 20.8027C169.596 22.0239 168.82 23.6256 168.82 25.5637C168.82 26.5711 168.988 27.466 169.317 28.225C169.649 28.9865 170.162 29.657 170.845 30.2197C171.521 30.7779 172.566 31.3626 173.951 31.9574C175.114 32.4364 175.982 32.8415 176.534 33.1608C177.073 33.4737 177.455 33.7882 177.671 34.0946C177.881 34.3944 177.988 34.8047 177.988 35.311C177.988 36.7528 176.908 37.4543 174.686 37.4543C173.862 37.4543 172.922 37.2822 171.893 36.943C170.87 36.6089 169.906 36.1197 169.032 35.4924L168.82 35.3402V40.2601L168.898 40.2964C169.621 40.6301 170.532 40.9116 171.607 41.1331C172.679 41.3547 173.654 41.4675 174.5 41.4675C177.112 41.4675 179.215 40.8489 180.75 39.6277C182.295 38.3981 183.078 36.7587 183.078 34.7535C183.078 33.307 182.656 32.0666 181.826 31.0662C181.001 30.0739 179.569 29.1629 177.572 28.3577C175.981 27.7192 174.962 27.1891 174.541 26.7821C174.136 26.389 173.93 25.8331 173.93 25.1291C173.93 24.505 174.184 24.0051 174.706 23.6002C175.231 23.1933 175.963 22.9863 176.88 22.9863C177.732 22.9863 178.603 23.1208 179.469 23.3844C180.335 23.648 181.095 24.001 181.73 24.4328L181.939 24.5755V19.9085L181.859 19.8741C181.273 19.623 180.501 19.4081 179.563 19.2337C178.629 19.0605 177.782 18.9731 177.046 18.9731ZM155.498 37.2888C153.644 37.2888 152.181 36.6738 151.151 35.4623C150.114 34.2447 149.589 32.5093 149.589 30.3033C149.589 28.0278 150.115 26.2468 151.152 25.0077C152.182 23.7768 153.63 23.1521 155.457 23.1521C157.229 23.1521 158.639 23.7487 159.65 24.9265C160.665 26.1103 161.18 27.877 161.18 30.179C161.18 32.5093 160.696 34.2993 159.74 35.4967C158.791 36.6851 157.365 37.2888 155.498 37.2888ZM155.726 18.9731C152.187 18.9731 149.376 20.01 147.373 22.055C145.37 24.1002 144.354 26.9305 144.354 30.4679C144.354 33.8292 145.346 36.5304 147.301 38.4993C149.256 40.4689 151.917 41.4666 155.209 41.4666C158.638 41.4666 161.394 40.4152 163.397 38.3419C165.399 36.2709 166.414 33.4674 166.414 30.0125C166.414 26.6001 165.462 23.8774 163.583 21.9216C161.702 19.9649 159.059 18.9731 155.726 18.9731ZM136.597 23.2064V19.4901H131.55V40.9492H136.597V29.972C136.597 28.1055 137.021 26.572 137.856 25.4138C138.68 24.2693 139.779 23.6894 141.12 23.6894C141.575 23.6894 142.085 23.7644 142.638 23.9127C143.185 24.0601 143.581 24.2202 143.815 24.3887L144.027 24.5424V19.4534L143.946 19.4183C143.475 19.2186 142.81 19.1178 141.969 19.1178C140.7 19.1178 139.565 19.5254 138.593 20.3279C137.74 21.0333 137.123 22.0004 136.651 23.2064H136.597ZM122.51 18.9731C120.194 18.9731 118.128 19.4697 116.371 20.4486C114.611 21.4298 113.249 22.8305 112.323 24.6117C111.401 26.3886 110.932 28.4641 110.932 30.7788C110.932 32.8064 111.386 34.667 112.284 36.3069C113.182 37.9495 114.452 39.2346 116.061 40.1258C117.667 41.016 119.524 41.4673 121.58 41.4673C123.978 41.4673 126.027 40.9877 127.669 40.0418L127.735 40.0038V35.3792L127.523 35.5341C126.779 36.076 125.948 36.5085 125.053 36.82C124.161 37.1314 123.348 37.2888 122.635 37.2888C120.654 37.2888 119.064 36.669 117.91 35.4471C116.753 34.2237 116.166 32.5057 116.166 30.3438C116.166 28.1684 116.778 26.4062 117.983 25.106C119.185 23.8096 120.778 23.1521 122.718 23.1521C124.377 23.1521 125.994 23.7139 127.523 24.8234L127.735 24.9772V20.1044L127.667 20.0659C127.091 19.7437 126.306 19.4776 125.331 19.2758C124.361 19.0745 123.412 18.9731 122.51 18.9731ZM107.456 19.4903H102.408V40.9492H107.456V19.4903ZM104.983 10.3486C104.153 10.3486 103.428 10.6315 102.833 11.1919C102.235 11.7539 101.932 12.4616 101.932 13.2967C101.932 14.1187 102.231 14.8134 102.823 15.3605C103.412 15.906 104.139 16.1824 104.984 16.1824C105.829 16.1824 106.558 15.906 107.153 15.3614C107.753 14.8134 108.057 14.1189 108.057 13.2967C108.057 12.4908 107.761 11.7904 107.178 11.2146C106.596 10.6398 105.857 10.3486 104.983 10.3486ZM92.3888 17.907V40.9492L97.5404 40.9492V11.0055H90.4104L81.3478 33.2468L72.5531 11.0055H65.1328V40.949H69.9739V17.9047H70.1401L79.4271 40.9492H83.0805L92.2226 17.907H92.3888Z" fill="#706D6E"/>
<path d="M23.9339 24.7454L0.1875 24.7454L0.1875 0.999023L23.9339 0.999023L23.9339 24.7454Z" fill="#F1511B"/>
<path d="M50.1522 24.7454L26.4062 24.7454L26.4062 0.999023L50.1522 0.999023V24.7454Z" fill="#80CC28"/>
<path d="M23.9332 50.9737H0.1875L0.1875 27.2275L23.9332 27.2275L23.9332 50.9737Z" fill="#00ADEF"/>
<path d="M50.1522 50.9737H26.4062L26.4062 27.2275L50.1522 27.2275V50.9737Z" fill="#FBBC09"/>
</g>
<defs>
<clipPath id="clip0_123_1215">
<rect width="235" height="50" fill="white" transform="translate(0.1875 0.986328)"/>
</clipPath>
</defs>
</svg>
