<svg width="119" height="51" viewBox="0 0 119 51" fill="none" xmlns="http://www.w3.org/2000/svg">
<path d="M18.5068 1.1488C18.5068 1.23004 14.9325 11.2219 10.5458 23.3665C6.15913 35.5111 2.13801 46.7215 1.60998 48.2243L0.675781 50.9863L5.99666 50.8645L11.2769 50.7426L12.008 48.9148C12.3736 47.8994 14.4857 42.0911 16.679 35.9985C18.8724 29.9059 20.7001 24.9912 20.7408 25.0318C20.822 25.1131 20.5377 30.2715 20.0909 36.5265C19.6847 42.7816 19.3192 48.5899 19.3192 49.4023V50.9457H24.5588C29.1486 50.9457 29.8391 50.8645 30.0828 50.2146C30.2046 49.849 34.1851 38.8417 38.8561 25.8442C43.5677 12.806 47.5076 1.87992 47.6295 1.55498C47.8326 1.06757 47.0202 0.986332 42.4711 1.06757L37.1096 1.18942L35.1193 6.67277C34.0227 9.67845 31.9918 15.3243 30.6108 19.1829C29.2704 23.0416 28.0519 26.1285 27.9707 26.0066C27.8082 25.8442 28.7424 9.84092 29.311 3.7077L29.5547 0.986332H24.0308C20.9845 0.986332 18.5068 1.06757 18.5068 1.1488Z" fill="black"/>
<path d="M49.5796 1.67692C49.4578 2.08309 45.5179 13.0092 40.8469 25.9661C36.1759 38.9231 32.236 49.8491 32.1142 50.2147C31.8298 50.9052 32.2766 50.9458 38.2474 50.9458H44.7056L53.3571 26.8597C58.1093 13.659 62.0898 2.40803 62.2523 1.88L62.4553 0.986423L56.1597 0.986423C50.5545 0.986423 49.8233 1.06766 49.5796 1.67692Z" fill="black"/>
<path d="M64.3643 2.08309C62.7396 6.3073 46.9395 50.3772 46.9395 50.7021C46.9395 50.8239 49.7827 50.9052 53.3164 50.8646L59.6527 50.7427L63.1458 40.9945C65.0548 35.633 66.6795 31.6119 66.7607 32.0587C66.8013 32.5055 66.517 36.9328 66.1109 41.8881L65.3797 50.9458H71.7567L78.093 50.9458L78.3773 48.59C78.4992 47.3309 78.9866 41.157 79.474 34.9019L80.3269 23.5291L87.0694 13.3747C90.7656 7.76953 94.1368 2.73297 94.5836 2.08309L95.3147 0.986423H89.5065H83.6982L77.4431 10.3284C73.9906 15.4868 71.1068 19.5892 71.0256 19.5486C70.9443 19.4673 72.3659 15.3244 74.1531 10.369C75.9403 5.41372 77.4025 1.27074 77.4025 1.18951C77.4025 1.06766 74.5593 0.986423 71.1068 0.986423H64.8111L64.3643 2.08309Z" fill="black"/>
<path d="M95.1512 4.92646C94.3389 7.1198 90.399 18.0459 86.3779 29.2157C82.3568 40.3854 78.9449 49.8493 78.8231 50.2555C78.5387 50.9053 79.148 50.946 89.6273 50.8647L100.716 50.7429L102.259 46.478C103.112 44.1222 103.925 41.9289 104.046 41.5227C104.209 40.9541 103.762 40.8728 99.8629 40.9135C97.4664 40.9135 95.4762 40.751 95.3949 40.5479C95.3137 40.3448 96.0448 37.989 97.0196 35.3083L98.8068 30.4342L103.072 30.3123L107.377 30.1905L109.042 25.5195C109.977 22.9606 110.708 20.6454 110.708 20.4423C110.708 20.2392 108.88 20.0767 106.646 20.0767C104.412 20.0767 102.584 19.9955 102.584 19.9143C102.584 19.833 103.031 18.4927 103.6 16.9898C104.168 15.4464 104.899 13.4155 105.265 12.4407L105.915 10.7347L110.545 10.7347C113.104 10.7347 115.176 10.6941 115.176 10.6129C115.176 10.5317 115.907 8.50079 116.8 6.02313C117.694 3.58609 118.425 1.47398 118.425 1.2709C118.425 1.10843 113.51 0.986576 107.499 0.986576H96.5728L95.1512 4.92646Z" fill="black"/>
</svg>
