<svg width="230" height="36" viewBox="0 0 230 36" fill="none" xmlns="http://www.w3.org/2000/svg">
<path d="M217.231 16.3445V21.109H220.58V25.8362C220.59 26.2586 220.567 26.7142 220.494 27.0787C220.361 27.9605 219.524 29.4618 217.147 29.4618C214.784 29.4618 213.962 27.9605 213.819 27.0787C213.759 26.7142 213.734 26.2586 213.734 25.8362V10.9055C213.734 10.3774 213.769 9.79935 213.881 9.36183C214.044 8.56607 214.749 6.99678 217.129 6.99678C219.628 6.99678 220.252 8.65123 220.395 9.36183C220.489 9.83249 220.494 10.622 220.494 10.622V12.435H228.722V11.3632C228.722 11.3632 228.759 10.2448 228.659 9.20117C228.041 3.07294 222.992 1.13409 217.202 1.13409C211.402 1.13409 206.455 3.09098 205.734 9.20117C205.669 9.75992 205.57 10.765 205.57 11.3632V25.0979C205.57 25.6961 205.589 26.1592 205.7 27.2524C206.237 33.212 211.402 35.3245 217.179 35.3245C222.992 35.3245 228.121 33.212 228.667 27.2524C228.764 26.1592 228.774 25.6961 228.787 25.0979V16.3445L217.231 16.3445ZM160.502 2.01291H152.24V26.1806C152.253 26.6018 152.24 27.0749 152.168 27.4218C151.995 28.2331 151.308 29.7944 149.028 29.7944C146.778 29.7944 146.073 28.2331 145.913 27.4218C145.831 27.0749 145.82 26.6018 145.831 26.1806V2.01291L137.571 2.01291V25.4306C137.561 26.0342 137.608 27.2675 137.644 27.5905C138.214 33.6927 143.023 35.6739 149.028 35.6739C155.045 35.6739 159.852 33.6927 160.432 27.5905C160.478 27.2675 160.538 26.0342 160.502 25.4306V2.01291ZM84.5886 2.01291L80.4672 27.5494L76.3483 2.01291H63.0209L62.314 34.6814H70.4788L70.6999 4.4392L76.3176 34.6814H84.6016L90.2243 4.4392L90.4462 34.6814H98.6316L97.9009 2.01291L84.5886 2.01291ZM35.2444 2.01291L29.1929 34.6814L38.0176 34.6814L42.5778 4.4392L47.0285 34.6814H55.7919L49.7656 2.01291H35.2444ZM189.377 28.3149L181.684 2.01291H169.561V34.3408H177.58L177.115 7.1973L185.377 34.3408H197.004V2.01291H188.932L189.377 28.3149ZM115.197 10.515C115.051 9.86983 115.093 9.18439 115.168 8.82615C115.402 7.78038 116.105 6.6398 118.129 6.6398C120.016 6.6398 121.122 7.81604 121.122 9.58122V11.5788H129.176V9.30185C129.176 2.26292 122.866 1.15716 118.297 1.15716C112.542 1.15716 107.843 3.05406 106.984 8.35046C106.757 9.7918 106.701 11.0712 107.062 12.7039C108.462 19.3078 119.959 21.2236 121.627 25.3999C121.922 26.1911 121.837 27.1999 121.687 27.7943C121.437 28.8812 120.706 29.9744 118.539 29.9744C116.506 29.9744 115.282 28.8057 115.282 27.0443L115.28 23.9091H106.611V26.4012C106.611 33.6226 112.267 35.8014 118.359 35.8014C124.194 35.8014 129.013 33.8076 129.786 28.403C130.155 25.6105 129.876 23.7916 129.728 23.1066C128.378 16.3332 116.124 14.2958 115.197 10.515ZM8.95283 10.4349C8.79468 9.77628 8.83159 9.0812 8.91968 8.71876C9.14285 7.67803 9.84967 6.51732 11.9098 6.51732C13.8205 6.51732 14.9456 7.70487 14.9456 9.48432V11.5062H23.094V9.21124C23.094 2.10477 16.6868 0.972168 12.0679 0.972168C6.26519 0.972168 1.52378 2.89844 0.656294 8.233C0.418866 9.69742 0.378163 10.9857 0.7213 12.6363C2.1358 19.3153 13.7463 21.2466 15.4355 25.4729C15.7518 26.2586 15.6562 27.2675 15.4993 27.885C15.2312 28.9832 14.4942 30.0919 12.3087 30.0919C10.2679 30.0919 9.04721 28.903 9.04721 27.1173L9.03588 23.9737H0.269531L0.269531 26.4717C0.269531 33.7758 6.00595 35.9722 12.1455 35.9722C18.0481 35.9722 22.8952 33.9607 23.6859 28.4936C24.079 25.6755 23.7841 23.8416 23.6515 23.1461C22.2727 16.2896 9.88282 14.2589 8.95283 10.4349Z" fill="#1428A0"/>
</svg>
