<svg width="246" height="51" viewBox="0 0 246 51" fill="none" xmlns="http://www.w3.org/2000/svg">
<path fill-rule="evenodd" clip-rule="evenodd" d="M33.6621 21.3881H41.6466V22.4605C39.4853 22.5918 39.2841 22.9907 39.2841 24.7202V39.0622C39.2841 42.1576 41.0474 43.7555 43.508 43.7555C46.3386 43.7555 48.0668 41.9576 48.0668 38.9982V25.0534C48.0668 23.3228 47.537 22.5918 45.5035 22.4605V21.3881L51.8809 21.3881V22.4605C49.8537 22.5918 49.3195 23.3228 49.3195 25.0534V38.2635C49.3195 42.3876 47.5023 44.8223 42.8775 44.8223C38.222 44.8223 36.0264 42.2893 36.0264 38.127V24.7202C36.0264 22.9907 35.8285 22.5918 33.6621 22.4605V21.3881ZM51.3984 44.2854V43.2152C52.9947 43.1457 53.5271 42.547 53.5271 41.5453V31.1293C53.5271 29.6901 53.1288 29.4567 51.3323 29.3858V28.3518L56.1868 28.1337V31.3604H56.2547C57.1515 29.4941 58.4503 27.9588 60.7152 27.9588C63.4768 27.9588 64.7745 29.7614 64.7745 32.6931V41.5512C64.7745 42.6794 65.2386 43.1457 66.8338 43.2152V44.2854H61.9158V32.4279C61.9158 30.2281 61.083 29.4941 59.9484 29.4941C58.1867 29.4941 56.3869 31.8256 56.3869 35.09V41.5512C56.3869 42.547 56.9178 43.1457 58.5152 43.2152V44.2854H51.3984ZM72.5677 23.1986C72.5677 24.4625 71.8677 25.3285 70.8672 25.3285C69.87 25.3285 69.1682 24.4625 69.1682 23.1986C69.1682 21.9295 69.87 21.0664 70.8672 21.0664C71.8677 21.0664 72.5677 21.9295 72.5677 23.1986ZM67.5803 44.2854V43.2152C69.1756 43.1457 69.7046 42.547 69.7046 41.5453V30.9459C69.7046 29.5122 69.3078 29.2778 67.5803 29.2112V28.1337L72.5677 27.9521V41.5453C72.5677 42.547 73.1019 43.1457 74.6961 43.2152V44.2854H67.5803ZM79.8337 22.2179V28.3518H83.8391V29.6054H79.8337V41.3548C79.8337 42.8266 80.3336 43.426 81.2378 43.426C82.3398 43.426 83.1716 42.7227 83.1716 39.185V38.252H84.2437V39.8206C84.2437 43.1927 83.0095 44.6814 80.5023 44.6814C78.3023 44.6814 76.9773 43.2932 76.9773 40.6193V29.6054H74.9113V28.6148C77.3074 27.6178 78.5707 26.4826 78.7716 22.2179H79.8337ZM97.8535 36.2115C97.8535 31.4232 95.5247 27.9588 91.8387 27.9588C88.0811 27.9588 85.4214 31.4232 85.4214 36.3092C85.4214 40.4844 88.1494 44.6814 92.2703 44.6814C95.991 44.6814 97.6243 41.7908 97.9248 38.8126L96.8575 38.6133C96.523 40.8874 95.4933 43.426 92.6022 43.426C90.3752 43.426 88.6814 40.8874 88.6814 36.2115H97.8535ZM88.6814 34.9572C88.6814 30.6911 89.9425 29.0248 91.8387 29.0248C93.6005 29.0248 94.5958 30.6911 94.5958 34.9572H88.6814ZM106.9 22.4257C108.626 22.493 109.059 22.7227 109.059 24.157V30.1442L108.992 30.176C108.328 28.8803 107.201 27.9521 105.638 27.9521C102.15 27.9521 99.5215 31.5423 99.5215 36.3772C99.5215 41.6074 102.282 44.6814 105.27 44.6814C107.296 44.6814 108.395 43.507 109.123 41.9413H109.193V44.2891L113.847 44.0897V43.0333C112.52 43.0592 111.92 42.5319 111.92 40.7262V21.1714L106.9 21.3852V22.4257ZM102.784 36.409C102.784 31.2761 103.975 29.2112 105.806 29.2112C107.829 29.2112 109.059 31.6784 109.059 36.409C109.059 42.1421 107.296 43.6053 105.537 43.6053C103.878 43.6053 102.784 41.5397 102.784 36.409ZM114.675 44.2854V43.2152C116.673 43.0802 117.007 42.6794 117.007 40.9429V24.7139C117.007 22.9908 116.673 22.5906 114.675 22.4605V21.3881H122.721V22.4605C120.664 22.5906 120.264 22.9908 120.264 24.7139V31.6148H127.438V24.7139C127.438 22.9908 127.034 22.5906 124.978 22.4605V21.3881H133.02V22.4605C131.027 22.5906 130.692 22.9908 130.692 24.7139V40.9429C130.692 42.6794 131.027 43.0802 133.02 43.2152V44.2854H124.978V43.2152C127.034 43.0802 127.438 42.6794 127.438 40.9429V32.8713H120.264V40.9429C120.264 42.6794 120.664 43.0802 122.721 43.2152V44.2854H114.675ZM145.947 36.2115C145.947 31.4232 143.621 27.9588 139.932 27.9588C136.175 27.9588 133.512 31.4232 133.512 36.3092C133.512 40.4844 136.239 44.6814 140.364 44.6814C144.083 44.6814 145.717 41.7908 146.013 38.8126L144.949 38.6133C144.616 40.8874 143.585 43.426 140.695 43.426C138.468 43.426 136.773 40.8874 136.773 36.2115H145.947ZM136.773 34.9572C136.773 30.6911 138.034 29.0248 139.932 29.0248C141.694 29.0248 142.689 30.6911 142.689 34.9572H136.773ZM159.022 39.6849C158.953 42.0841 158.691 42.8166 158.059 42.8166C157.601 42.8166 157.365 42.3825 157.365 41.421V32.1558C157.365 29.6605 155.933 27.9588 152.212 27.9588C149.32 27.9588 147.189 29.7614 147.189 32.0249C147.189 33.3561 147.855 34.0269 148.788 34.0269C149.718 34.0269 150.452 33.2903 150.452 32.0929C150.452 31.1245 150.118 30.3246 149.052 30.2281C149.752 29.3917 150.715 29.0248 151.879 29.0248C153.64 29.0248 154.507 29.8591 154.507 31.759V34.4906C151.643 35.5626 146.402 37.1297 146.402 40.9255C146.402 43.1283 147.89 44.6814 150.442 44.6814C152.77 44.6814 153.772 43.588 154.57 42.0914H154.637C154.836 43.8853 155.734 44.6814 157.33 44.6814C159.388 44.6814 160.09 43.1927 160.09 39.6934L159.022 39.6849ZM154.507 37.6611C154.507 41.4269 152.974 43.426 151.277 43.426C150.248 43.426 149.45 42.5607 149.45 40.7928C149.45 37.9588 151.842 36.6949 154.507 35.7589V37.6611ZM159.651 44.2854V43.2152C161.248 43.1457 161.782 42.547 161.782 41.5512V24.2232C161.782 23.0887 161.215 22.493 159.585 22.4257V21.3641L164.638 21.1714V41.5512C164.638 42.547 165.172 43.1457 166.768 43.2152V44.2854H159.651ZM171.584 22.2179V28.3518H175.594V29.6054H171.584V41.3548C171.584 42.8266 172.087 43.426 172.986 43.426C174.093 43.426 174.925 42.7227 174.925 39.185V38.252H175.994V39.8206C175.994 43.1927 174.758 44.6814 172.252 44.6814C170.055 44.6814 168.726 43.2932 168.726 40.6193V29.6054H166.665V28.6148C169.057 27.6178 170.32 26.4826 170.524 22.2179H171.584ZM175.874 44.2854V43.2152C177.467 43.1457 178.006 42.547 178.006 41.5512V24.157C178.006 22.7227 177.603 22.493 175.806 22.4257V21.3852L180.861 21.1714V30.9603H180.93C181.595 29.4941 182.861 27.9588 185.092 27.9588C187.653 27.9588 189.251 29.7614 189.251 32.6931V41.5512C189.251 42.547 189.818 43.1457 191.312 43.2152V44.2854H186.391V32.5899C186.391 30.264 185.557 29.4941 184.358 29.4941C182.694 29.4941 180.861 31.6921 180.861 34.8899V41.5512C180.861 42.547 181.396 43.1457 182.995 43.2152V44.2854H175.874ZM203.677 38.7597C203.376 41.9095 201.916 44.7269 198.248 44.7269C194.873 44.7269 191.754 41.7043 191.754 36.7744C191.754 32.6029 194.637 27.9133 198.656 27.9133C201.488 27.9133 203.273 29.6779 203.273 32.2719C203.273 33.8675 202.779 34.7332 201.586 34.7332C200.657 34.7332 200.028 33.9315 200.028 32.7363C200.028 31.3057 200.526 30.738 201.384 30.738C201.617 30.738 201.751 30.839 201.888 30.8723L201.949 30.8079C201.456 29.5736 200.393 28.9612 199.158 28.9612C196.677 28.9612 195.003 31.4732 195.003 36.2067C195.003 41.8459 196.743 43.4493 198.686 43.4493C201.384 43.4493 202.249 40.9717 202.613 38.6173L203.677 38.7597ZM217.478 39.7267C217.409 42.1521 217.151 42.8961 216.516 42.8961C216.057 42.8961 215.819 42.4568 215.819 41.4791V32.1288C215.819 29.5999 214.387 27.9133 210.628 27.9133C207.709 27.9133 205.589 29.7023 205.589 31.9886C205.589 33.3387 206.254 34.0102 207.18 34.0102C208.112 34.0102 208.836 33.2699 208.836 32.0567C208.836 31.079 208.507 30.2706 207.444 30.1708C208.142 29.3325 209.109 28.9612 210.287 28.9612C212.073 28.9612 212.951 29.7992 212.951 31.7217V34.4806C210.07 35.5323 204.793 37.1168 204.793 40.9396C204.793 43.1501 206.291 44.7269 208.863 44.7269C211.207 44.7269 212.213 43.6183 213.016 42.1088H213.085C213.285 43.9215 214.184 44.7269 215.787 44.7269C217.838 44.7269 218.521 43.2222 218.521 39.6934L217.478 39.7267ZM212.951 37.6496C212.951 41.4384 211.411 43.4493 209.703 43.4493C208.661 43.4493 207.857 42.584 207.857 40.8028C207.857 37.9503 210.269 36.676 212.951 35.7356V37.6496ZM218.937 44.3057V43.2622C220.336 43.1971 220.871 42.5925 220.871 41.583V32.4675C220.871 30.1889 220.468 29.4508 218.801 29.3858V28.3056L223.403 28.1082V31.9787H223.471C223.903 30.2351 225.089 27.9133 227.075 27.9133C228.305 27.9133 229.503 28.925 229.503 30.8079C229.503 32.2516 228.807 32.9871 227.94 32.9871C227.209 32.9871 226.439 32.5196 226.439 31.0095C226.439 30.2033 226.906 29.3643 227.869 29.3643C227.706 29.0962 227.371 28.9612 227.008 28.9612C224.76 28.9923 223.737 33.8978 223.737 36.8132V41.583C223.737 42.5895 224.265 43.1971 226.508 43.2622V44.3057L218.937 44.3057ZM241.94 36.2585C241.94 31.3966 239.623 27.9133 235.92 27.9133C232.15 27.9133 229.503 31.3966 229.503 36.3584C229.503 40.5236 232.22 44.7269 236.355 44.7269C240.091 44.7269 241.707 41.8226 242.002 38.8596L240.96 38.6521C240.627 40.9229 239.593 43.4493 236.69 43.4493C234.449 43.4493 232.749 40.9229 232.749 36.2585H241.94ZM232.749 34.9831C232.749 30.6526 234.016 28.9612 235.919 28.9612C237.689 28.9612 238.693 30.6526 238.693 34.9831H232.749ZM242.672 25.3507H243.269C243.58 25.3507 243.682 25.5818 243.682 25.7893C243.682 26.0411 243.552 26.253 243.269 26.253H242.672V25.3507ZM242.672 26.6227H243.135C243.269 26.6227 243.53 26.6386 243.565 26.9463C243.595 27.3327 243.574 27.7055 243.682 27.904H244.14C244.073 27.7217 244.031 27.2769 244.021 27.1508C244.008 26.575 243.881 26.4615 243.522 26.4249V26.412C243.89 26.3439 244.145 26.084 244.145 25.7434C244.145 25.3899 243.896 25.0323 243.346 25.0323H242.204V27.904H242.672V26.6227ZM243.141 23.9707C241.763 23.9707 240.644 25.0778 240.644 26.453C240.643 26.7818 240.707 27.1075 240.832 27.4114C240.957 27.7154 241.141 27.9916 241.373 28.2242C241.605 28.4567 241.881 28.641 242.184 28.7665C242.487 28.892 242.813 28.9562 243.141 28.9553C244.506 28.9553 245.62 27.8475 245.62 26.453C245.62 26.127 245.556 25.8041 245.431 25.5029C245.307 25.2018 245.124 24.9281 244.894 24.6976C244.663 24.4671 244.39 24.2842 244.089 24.1595C243.789 24.0348 243.466 23.9706 243.141 23.9707ZM243.141 24.3427C243.419 24.3419 243.694 24.3963 243.951 24.5025C244.207 24.6088 244.441 24.7649 244.637 24.9619C244.833 25.1588 244.989 25.3927 245.094 25.6501C245.2 25.9075 245.253 26.1833 245.252 26.4615C245.252 27.6426 244.318 28.5844 243.141 28.5844C242.862 28.5858 242.585 28.5318 242.327 28.4256C242.069 28.3195 241.835 28.1632 241.637 27.9659C241.44 27.7686 241.283 27.5341 241.176 27.2759C241.07 27.0177 241.015 26.7409 241.016 26.4615C241.016 25.2901 241.964 24.3427 243.141 24.3427Z" fill="#1F3570"/>
<path fill-rule="evenodd" clip-rule="evenodd" d="M8.56206 48.4192C7.58518 48.191 6.6755 47.3509 6.32403 46.3998C5.28993 46.2293 4.41052 45.367 4.0332 44.2288C4.04391 44.2288 4.05056 44.2288 4.06126 44.2317L7.63502 44.6363C9.0324 44.1145 11.0356 42.5071 12.1432 38.5349C12.9262 35.7238 13.0389 31.4857 13.0389 26.6483L13.0389 7.88L10.8137 7.38486L15.0388 5.11699L15.0388 28.5197C15.0388 32.7034 14.8752 36.4064 13.9969 39.3813C13.4542 41.5327 11.1719 45.9231 7.21747 46.4497L10.0082 46.7832C12.5434 46.1572 14.6234 43.8553 15.7775 40.8893C17.0948 37.4385 17.3111 32.8277 17.3111 27.3878L17.3111 5.62507L15.0388 5.11699L19.3324 2.81473L19.3324 28.35C19.3324 34.7509 18.6564 39.195 17.2602 42.3237C16.2899 44.4355 13.5945 48.4669 9.4758 48.5038L12.6708 48.8873C15.1296 48.4624 17.7135 46.4064 19.2516 43.2219C20.8967 39.821 21.6517 34.7764 21.6517 27.3878L21.6517 3.33058L19.3324 2.81473L23.6926 0.472168L23.6926 27.5871C23.6926 37.7447 22.1479 45.269 17.2853 48.6466C15.7406 49.6831 14.118 50.5498 12.1325 50.4666C10.672 50.4038 9.33292 49.7278 8.56206 48.4192Z" fill="#7E868A"/>
<path fill-rule="evenodd" clip-rule="evenodd" d="M4.70556 44.2849H4.69485H4.7554C4.77497 44.2849 4.78789 44.2849 4.8093 44.2801C4.82998 44.2801 4.84844 44.2801 4.86911 44.2794C4.88942 44.2794 4.90788 44.2793 4.92744 44.2749C4.94775 44.2749 4.96732 44.2734 4.98688 44.2734C5.01162 44.2679 5.03119 44.2679 5.05592 44.2664C5.07327 44.2649 5.09506 44.2605 5.11019 44.2575C5.13936 44.2531 5.16409 44.252 5.19141 44.2461C5.20987 44.2453 5.22612 44.2416 5.24532 44.2402C5.2778 44.2372 5.30475 44.2287 5.33281 44.2243C5.34906 44.2228 5.3653 44.2187 5.38265 44.2158C5.41736 44.2069 5.44652 44.2028 5.47901 44.1969C5.49969 44.1925 5.51482 44.1854 5.53624 44.181C5.56651 44.174 5.60121 44.1673 5.63592 44.1581C5.65301 44.1512 5.67068 44.1459 5.68871 44.1422C5.72674 44.1318 5.75923 44.1233 5.79689 44.1104C5.81091 44.103 5.83048 44.0974 5.85226 44.09C5.8866 44.08 5.92573 44.0671 5.96044 44.0538C5.97779 44.0468 5.99477 44.0371 6.01434 44.0309C6.04904 44.0209 6.09002 44.0035 6.12694 43.9861C6.14764 43.9805 6.16733 43.9716 6.18527 43.9599C6.22219 43.9454 6.26317 43.9255 6.30415 43.9081C6.31929 43.9007 6.33996 43.8892 6.35953 43.8815C6.39719 43.8604 6.43743 43.8386 6.47952 43.8171C6.49958 43.8099 6.51793 43.7985 6.53342 43.7838C6.57477 43.7665 6.61907 43.7391 6.65784 43.7173C6.6763 43.7043 6.69365 43.6944 6.71321 43.6825C6.75419 43.6552 6.80071 43.6308 6.84169 43.6034C6.85794 43.5901 6.8775 43.5745 6.89707 43.5612C6.94096 43.5328 6.98324 43.5019 7.0237 43.4688C7.04502 43.456 7.06527 43.4416 7.08425 43.4255C7.12412 43.3922 7.16732 43.3619 7.21162 43.3268C7.23119 43.3102 7.25075 43.2928 7.267 43.2754C7.31241 43.2406 7.3556 43.2059 7.39474 43.1685C7.41615 43.1482 7.43572 43.1278 7.45418 43.1094C7.5007 43.0709 7.54057 43.0328 7.58266 42.9921C7.60594 42.9707 7.62766 42.9476 7.64763 42.923C7.69083 42.8805 7.72775 42.8413 7.76873 42.7973C7.79568 42.7714 7.82078 42.7418 7.8422 42.7148C7.88133 42.673 7.9201 42.6298 7.95591 42.5821C7.98064 42.5576 8.00243 42.5284 8.02827 42.4955C8.0674 42.4478 8.10617 42.4042 8.14419 42.3517C8.16672 42.3214 8.19071 42.2903 8.21213 42.26C8.25347 42.2041 8.29002 42.1546 8.32916 42.1039C8.35279 42.0699 8.37863 42.0318 8.40041 41.9971C8.43733 41.9409 8.46982 41.8887 8.50858 41.8325C8.53443 41.7948 8.56064 41.75 8.58648 41.7108C8.62119 41.6532 8.65552 41.6014 8.69023 41.5407C8.71644 41.4971 8.74007 41.4553 8.76185 41.4121C8.79729 41.3499 8.8331 41.2878 8.87002 41.2287C8.89476 41.178 8.91543 41.1303 8.93906 41.087C8.97376 41.0219 9.00921 40.9583 9.04059 40.8892C9.06901 40.8371 9.09264 40.7794 9.11959 40.7257C9.14876 40.6618 9.18236 40.5974 9.21152 40.5309C9.23884 40.4688 9.26579 40.4059 9.29274 40.3408C9.3197 40.2768 9.34886 40.2132 9.37803 40.1452C9.40313 40.0816 9.42565 40.0202 9.45408 39.9511C9.47992 39.8778 9.5102 39.8102 9.53825 39.7351C9.56004 39.673 9.58588 39.6035 9.60766 39.5358C9.63572 39.457 9.66932 39.3812 9.69405 39.301C9.72543 39.2093 9.75349 39.1109 9.78487 39.017C9.80223 38.9578 9.82401 38.9016 9.84321 38.841C9.89083 38.682 9.93846 38.5189 9.98608 38.3525C10.6469 35.9663 10.8134 31.1347 10.8134 27.9213L10.8134 7.38477L0.818359 12.7473L0.818359 33.9103C0.818359 41.9834 2.26669 43.9151 4.06095 44.2317C4.05025 44.2287 4.0436 44.2287 4.0329 44.2287L4.70556 44.2849Z" fill="#1F3570"/>
</svg>
