<svg width="244" height="41" viewBox="0 0 244 41" fill="none" xmlns="http://www.w3.org/2000/svg">
<g clip-path="url(#clip0_123_1212)">
<path fill-rule="evenodd" clip-rule="evenodd" d="M23.5486 21.7069C23.5486 21.4035 23.5593 20.8076 23.5593 20.8076C14.6067 19.4025 8.13681 15.547 7.95797 11.0141C5.75381 13.7633 4.5032 16.9115 4.5032 20.266C4.5032 30.1369 15.3385 38.2248 29.1109 38.9456C25.9204 36.9345 23.5486 29.9753 23.5486 21.7069ZM0.363281 20.9862C0.363281 9.94137 14.1079 0.986328 31.0639 0.986328C48.0195 0.986328 61.7646 9.94137 61.7646 20.9862C61.7646 32.031 48.0193 40.9863 31.0639 40.9863C14.1079 40.9863 0.363281 32.0308 0.363281 20.9862ZM38.1547 15.7607C44.5246 14.7643 48.9833 12.4776 48.9833 9.8168C48.9833 6.24548 40.9596 3.35374 31.0639 3.35374C21.1675 3.35374 13.1446 6.24573 13.1446 9.8168C13.1446 12.4776 17.6026 14.7643 23.9731 15.7607C25.0065 8.8382 27.7914 3.87272 31.0639 3.87272C34.3372 3.87272 37.1214 8.83796 38.1547 15.7607ZM33.0171 38.9453C46.7889 38.2248 57.6257 30.1366 57.6257 20.2658C57.6257 16.9115 56.3736 13.7633 54.1694 11.0139C53.9904 15.5468 47.5222 19.4023 38.5686 20.8074C38.5686 20.8074 38.5798 21.4032 38.5798 21.7067C38.5798 29.9751 36.2063 36.9342 33.0171 38.9453H33.0171ZM35.319 16.0992C34.6392 11.6591 32.9905 8.52481 31.064 8.52481C29.1374 8.52481 27.489 11.6591 26.8084 16.0992C29.6839 16.3353 32.5173 16.3391 35.319 16.0992ZM26.4764 21.1691C26.589 27.5987 28.5987 32.7272 31.0639 32.7272C33.5282 32.7272 35.5384 27.5989 35.6523 21.1691C32.5027 21.4427 29.4278 21.4425 26.4764 21.1691Z" fill="#E40521"/>
<path fill-rule="evenodd" clip-rule="evenodd" d="M138.953 35.5777L145.484 35.5777V24.6329L156.72 6.75422L149.2 6.75422L142.219 18.8694L135.238 6.75422L127.716 6.75422L138.953 24.6329V35.5777ZM96.8454 20.9859C96.8454 12.544 103.69 5.7002 112.133 5.7002C120.575 5.7002 127.42 12.5438 127.42 20.9859C127.42 29.4288 120.575 36.2717 112.133 36.2717C103.69 36.2717 96.8454 29.4288 96.8454 20.9859ZM112.133 30.6665C116.846 30.6665 120.668 26.332 120.668 20.9859C120.668 15.6402 116.846 11.3051 112.133 11.3051C107.42 11.3051 103.598 15.6402 103.598 20.9859C103.598 26.3317 107.42 30.6665 112.133 30.6665ZM86.2135 35.5777H79.7728V12.0691H70.7871V6.75422L95.1982 6.75422V12.0691L86.2135 12.0691V35.5777ZM221.711 29.0926L219.234 35.5778H211.713L223.604 6.75399L231.619 6.75399L243.512 35.5778H235.989L233.512 29.0925L221.711 29.0926ZM227.641 13.6794H227.585L223.559 24.2284L231.664 24.2284L227.641 13.6794ZM204.935 35.5777H198.495V12.0691L189.509 12.0691V6.75422L213.92 6.75422V12.0691L204.935 12.0691V35.5777ZM157.018 20.9859C157.018 12.544 163.863 5.7002 172.303 5.7002C180.747 5.7002 187.591 12.5438 187.591 20.9859C187.591 29.4288 180.747 36.2717 172.303 36.2717C163.863 36.2717 157.018 29.4288 157.018 20.9859ZM172.303 30.6665C177.018 30.6665 180.84 26.332 180.84 20.9859C180.84 15.6402 177.018 11.3051 172.303 11.3051C167.591 11.3051 163.77 15.6402 163.77 20.9859C163.77 26.3317 167.591 30.6665 172.303 30.6665Z" fill="#E40521"/>
</g>
<defs>
<clipPath id="clip0_123_1212">
<rect width="243.149" height="40" fill="white" transform="translate(0.363281 0.986328)"/>
</clipPath>
</defs>
</svg>
