<svg width="135" height="78" viewBox="0 0 135 78" fill="none" xmlns="http://www.w3.org/2000/svg">
<path d="M43.8816 69.2926H38.3594V47.3789H43.8816V69.2926Z" fill="#C4122E"/>
<path d="M88.4081 53.6577C88.1807 53.5421 86.4035 52.4877 83.7623 52.4877C80.1922 52.4877 77.7153 54.9749 77.7153 58.3326C77.7153 61.5887 80.0855 64.1828 83.7623 64.1828C86.358 64.1828 88.165 63.1494 88.4081 63.0198V68.9015C87.7154 69.0941 85.8281 69.6809 83.3757 69.6809C77.1643 69.6809 71.7121 65.3931 71.7121 58.3309C71.7121 51.7888 76.6448 46.9895 83.3757 46.9895C85.9645 46.9895 87.8851 47.6201 88.4081 47.776V53.6577ZM30.7671 53.6577C30.545 53.5421 28.7696 52.4877 26.1283 52.4877C22.5512 52.4877 20.0761 54.9749 20.0761 58.3326C20.0761 61.5887 22.448 64.1828 26.1283 64.1828C28.7241 64.1828 30.5292 63.1494 30.7671 63.0198V68.9015C30.0814 69.0941 28.1958 69.6809 25.7295 69.6809C19.5234 69.6809 14.0781 65.3931 14.0781 58.3309C14.0781 51.7888 19.0108 46.9895 25.7312 46.9895C28.3305 46.9895 30.2476 47.6201 30.7671 47.776V53.6577ZM105.779 52.57C102.503 52.57 100.07 55.1518 100.07 58.3326C100.07 61.5204 102.503 64.1005 105.779 64.1005C109.052 64.1005 111.492 61.5204 111.492 58.3326C111.492 55.1518 109.052 52.57 105.779 52.57ZM117.343 58.3326C117.343 64.6014 112.51 69.6809 105.781 69.6809C99.0484 69.6809 94.2224 64.6014 94.2224 58.3309C94.2224 52.0743 99.0502 46.9895 105.779 46.9895C112.51 46.9895 117.343 52.0743 117.343 58.3326ZM64.8221 52.3598C64.7398 52.3336 62.4152 51.6907 60.5051 51.6907C58.2923 51.6907 57.0889 52.4334 57.0889 53.4861C57.0889 54.8208 58.7121 55.2866 59.62 55.5739L61.1435 56.0591C64.7293 57.2011 66.3613 59.6585 66.3613 62.3279C66.3613 67.833 61.5266 69.6826 57.3005 69.6826C54.3637 69.6826 51.6122 69.1397 51.3411 69.0836V64.0391C51.8273 64.1617 54.1433 64.8554 56.5554 64.8554C59.3034 64.8554 60.5663 64.0497 60.5663 62.8096C60.5663 61.6991 59.473 61.058 58.1034 60.6271C57.7711 60.515 57.2673 60.3573 56.9245 60.2452C53.8494 59.2714 51.2851 57.4603 51.2851 53.8346C51.2851 49.736 54.3497 46.9843 59.4398 46.9843C62.1283 46.9843 64.6576 47.6376 64.8221 47.6814V52.358V52.3598Z" fill="#C4122E"/>
<path d="M8.22199 23.8292C8.22199 22.3193 6.99056 21.0949 5.48101 21.0949C3.97146 21.0949 2.73828 22.3193 2.73828 23.8273L2.73828 29.5813C2.75635 30.2974 3.05315 30.9782 3.56538 31.4783C4.07761 31.9784 4.76472 32.2583 5.48014 32.2583C6.19556 32.2583 6.88266 31.9784 7.39489 31.4783C7.90712 30.9782 8.20392 30.2974 8.22199 29.5813L8.22199 23.8292ZM23.2807 16.28C23.2807 15.5518 22.9919 14.8534 22.4777 14.3386C21.9635 13.8237 21.2661 13.5344 20.5389 13.5344C19.8117 13.5344 19.1143 13.8237 18.6001 14.3386C18.0859 14.8534 17.797 15.5518 17.797 16.28V29.5813C17.797 30.3094 18.0859 31.0078 18.6001 31.5227C19.1143 32.0376 19.8117 32.3268 20.5389 32.3268C21.2661 32.3268 21.9635 32.0376 22.4777 31.5227C22.9919 31.0078 23.2807 30.3094 23.2807 29.5813L23.2807 16.2782V16.28ZM38.3412 5.94929C38.3412 4.43945 37.1098 3.21334 35.6003 3.21334C34.089 3.21334 32.8575 4.43945 32.8575 5.94929V35.0478C32.8756 35.764 33.1724 36.4447 33.6846 36.9449C34.1969 37.445 34.884 37.725 35.5994 37.725C36.3148 37.725 37.0019 37.445 37.5141 36.9449C38.0264 36.4447 38.3232 35.764 38.3412 35.0478L38.3412 5.94929ZM53.4 16.28C53.4 15.5518 53.1111 14.8534 52.5969 14.3386C52.0827 13.8237 51.3853 13.5344 50.6581 13.5344C49.931 13.5344 49.2336 13.8237 48.7194 14.3386C48.2052 14.8534 47.9163 15.5518 47.9163 16.28V29.5813C47.9163 30.3094 48.2052 31.0078 48.7194 31.5227C49.2336 32.0376 49.931 32.3268 50.6581 32.3268C51.3853 32.3268 52.0827 32.0376 52.5969 31.5227C53.1111 31.0078 53.4 30.3094 53.4 29.5813V16.2782V16.28ZM68.443 23.8292C68.4435 23.1048 68.1567 22.4099 67.6456 21.8972C67.1346 21.3844 66.4412 21.0959 65.7178 21.0949C64.9928 21.0945 64.2972 21.3819 63.7834 21.894C63.2696 22.4062 62.9796 23.1014 62.9768 23.8273V29.5813C62.9768 30.3071 63.2647 31.0032 63.7773 31.5165C64.2899 32.0297 64.985 32.3181 65.7099 32.3181C66.4348 32.3181 67.1299 32.0297 67.6425 31.5165C68.1551 31.0032 68.443 30.3071 68.443 29.5813V23.8292ZM83.5088 16.28C83.4907 15.5661 83.1949 14.8875 82.6843 14.389C82.1737 13.8905 81.4888 13.6115 80.7757 13.6115C80.0625 13.6115 79.3776 13.8905 78.867 14.389C78.3564 14.8875 78.0606 15.5661 78.0426 16.28V29.5813C78.0426 30.3071 78.3305 31.0032 78.8431 31.5165C79.3556 32.0297 80.0508 32.3181 80.7757 32.3181C81.5005 32.3181 82.1957 32.0297 82.7082 31.5165C83.2208 31.0032 83.5088 30.3071 83.5088 29.5813V16.2782V16.28ZM98.578 5.94929C98.578 5.22345 98.2901 4.52732 97.7775 4.01407C97.2649 3.50082 96.5698 3.21249 95.8449 3.21249C95.12 3.21249 94.4249 3.50082 93.9123 4.01407C93.3997 4.52732 93.1118 5.22345 93.1118 5.94929V35.0478C93.0956 35.4173 93.1543 35.7862 93.2844 36.1324C93.4145 36.4785 93.6132 36.7947 93.8686 37.0619C94.1239 37.3291 94.4307 37.5417 94.7704 37.687C95.11 37.8323 95.4756 37.9072 95.8449 37.9072C96.2142 37.9072 96.5798 37.8323 96.9194 37.687C97.2591 37.5417 97.5659 37.3291 97.8213 37.0619C98.0766 36.7947 98.2753 36.4785 98.4054 36.1324C98.5355 35.7862 98.5942 35.4173 98.578 35.0478V5.94929ZM113.644 16.28C113.644 14.7684 112.421 13.5405 110.877 13.5405C110.152 13.541 109.457 13.8296 108.944 14.3429C108.432 14.8563 108.144 15.5524 108.144 16.2782V29.5813C108.144 31.0999 109.369 32.3242 110.877 32.3242C112.421 32.3242 113.644 31.0999 113.644 29.5813V16.2782V16.28ZM128.682 23.8292C128.682 23.1026 128.393 22.4058 127.88 21.892C127.367 21.3783 126.671 21.0897 125.946 21.0897C125.22 21.0897 124.524 21.3783 124.011 21.892C123.498 22.4058 123.21 23.1026 123.21 23.8292V29.5813C123.21 31.0999 124.436 32.3259 125.946 32.3259C127.454 32.3259 128.68 31.0999 128.68 29.5813V23.8292H128.682Z" fill="#15495D"/>
<path d="M125.522 66.4053V66.7486H124.546V69.29H124.144V66.7504H123.164V66.4053H125.522ZM125.727 66.4053H126.355L127.217 68.7717H127.231L128.065 66.407H128.681V69.29H128.27V66.9255H128.256L127.381 69.29H127.002L126.148 66.9255H126.129V69.29H125.727V66.4053Z" fill="#C4122E"/>
</svg>
