<svg width="244" height="26" viewBox="0 0 244 26" fill="none" xmlns="http://www.w3.org/2000/svg">
<path d="M162.431 14.2734C162.431 21.7471 158.227 25.484 150.52 25.484C142.813 25.484 138.842 21.5136 138.842 14.2734V1.19433L147.25 1.19433V13.8063C147.25 17.3096 148.184 18.9445 150.52 18.9445C152.855 18.9445 153.79 17.5431 153.79 13.5727V1.19433L162.198 1.19433L162.431 14.2734ZM47.7513 1.19433V7.26674L40.7447 7.26674V25.0169H32.1032V7.26674L24.863 7.26674V1.19433L47.7513 1.19433ZM62.2317 6.56608L60.1297 14.7405H64.3337L62.2317 6.56608ZM67.837 25.0169L66.4357 20.5793H58.2613L56.6264 25.0169H47.9849L56.6264 1.19433L67.6035 1.19433L76.245 25.0169L67.837 25.0169ZM189.995 23.1484L187.426 16.8425C185.791 18.2438 183.923 18.9445 181.821 18.9445C178.551 18.9445 176.216 16.1418 176.216 13.1056V12.872C175.982 9.83584 178.084 7.03319 181.354 6.56608H181.821C183.923 6.56608 186.025 7.5003 187.426 8.90162L189.995 2.82921C186.959 1.19433 183.689 0.493665 180.42 0.493665C173.647 0.260111 167.808 5.63186 167.574 12.4049C167.341 19.178 172.712 25.0169 179.485 25.2504H180.653C183.923 25.7175 187.193 24.7833 189.995 23.1484ZM218.255 1.19433L210.548 12.872L219.19 25.0169L209.38 25.0169L204.009 16.3754V25.0169H195.601V1.19433L204.009 1.19433V9.83584L208.913 1.19433L218.255 1.19433ZM10.378 25.484C15.7497 25.484 21.355 23.6156 21.355 17.5431C21.355 12.1714 16.6839 10.5365 12.9471 9.83584C10.1444 9.36873 8.97663 8.90163 8.97663 7.96741C8.97663 6.56608 10.8451 6.33253 11.7793 6.33253C14.1148 6.33253 16.4504 7.26674 18.5524 8.43451L20.8879 3.06276C17.8517 1.66143 14.5819 0.960771 11.0786 0.727216C5.47331 0.727216 1.03578 3.52987 1.03578 8.90162C1.03578 13.3392 4.5391 15.2076 8.04241 15.9083C10.6115 16.6089 12.2464 16.8425 12.2464 18.0103C12.2464 19.178 11.0786 19.6451 9.67729 19.6451C7.1082 19.6451 4.5391 18.7109 2.67066 17.076L0.101562 22.2142C3.60488 24.3162 6.87464 25.2504 10.378 25.484ZM232.035 25.4863C237.407 25.4863 243.012 23.6179 243.012 17.5455C243.012 12.1737 238.341 10.5388 234.604 9.83818C231.802 9.37107 230.634 8.90396 230.634 7.96974C230.634 6.56842 232.502 6.33486 233.436 6.33486C235.772 6.33486 238.108 7.26908 240.21 8.43685L242.545 3.06509C239.509 1.66377 236.239 0.963105 232.736 0.72955C227.13 0.72955 222.693 3.5322 222.693 8.90396C222.693 13.3415 225.963 15.2099 229.933 15.9106C232.502 16.6113 234.137 16.8448 234.137 18.0126C234.137 19.1804 232.736 19.6475 231.568 19.6475C228.999 19.6475 226.43 18.7132 224.561 17.0784L221.759 22.2166C225.028 24.3186 228.532 25.2528 232.035 25.4863ZM98.9021 16.1441C101.705 14.9764 103.34 12.4073 103.34 9.37107C103.34 3.76576 99.3692 1.19666 93.9975 1.19666L81.152 1.19666V25.0192H89.5599V18.0126H91.6619L95.8659 25.0192L104.741 25.0192L98.9021 16.1441ZM95.1652 9.37107C95.1652 10.7724 94.231 11.7066 93.0632 11.9402H89.7935V6.80197L92.8297 6.80197C93.9975 6.56842 95.1652 7.50263 95.3988 8.90396C95.1652 9.13751 95.1652 9.13751 95.1652 9.37107ZM127.863 12.8744C130.666 12.6408 132.767 10.3053 132.534 7.50263C132.534 3.53221 129.498 1.19666 124.126 1.19666L110.58 1.19666V25.0192H123.659C129.965 25.0192 133.001 22.6837 133.001 18.2461C133.235 15.4435 130.899 13.1079 127.863 12.8744ZM118.754 6.33486L121.79 6.33486C123.425 6.33486 124.36 7.03553 124.36 8.43685C124.36 9.83818 123.425 10.5388 121.79 10.5388H118.754V6.33486ZM124.36 17.5455C124.36 18.9468 123.425 19.6475 121.557 19.6475H118.521V15.2099H121.559C123.428 15.4435 124.362 16.1441 124.362 17.5455H124.36Z" fill="#231815"/>
</svg>
