<svg width="250" height="41" viewBox="0 0 250 41" fill="none" xmlns="http://www.w3.org/2000/svg">
<g clip-path="url(#clip0_123_1164)">
<path fill-rule="evenodd" clip-rule="evenodd" d="M1.58091 38.8744L1.58091 31.3079C5.84354 32.6633 9.6154 33.3411 12.8965 33.3411C17.4265 33.3411 19.6919 32.1313 19.6919 29.7134C19.6919 28.812 19.3623 28.0545 18.7014 27.4412C18.0256 26.7906 16.2948 25.8887 13.5135 24.7333C8.52303 22.6601 5.26885 20.892 3.75518 19.4296C1.79331 17.4993 0.8125 15.0651 0.8125 12.1235C0.8125 8.33528 2.24176 5.44798 5.09829 3.46383C7.92319 1.49704 11.6017 0.514648 16.1394 0.514648C18.6397 0.514648 22.2584 0.979554 26.9916 1.91062V9.18937C23.4698 7.76798 20.2006 7.0588 17.1803 7.0588C12.9271 7.0588 10.8006 8.23867 10.8006 10.6037C10.8006 11.4877 11.2289 12.2087 12.0867 12.7677C12.8001 13.2201 14.7657 14.1755 17.9793 15.6372C22.6065 17.7134 25.6869 19.5182 27.2217 21.0533C29.0429 22.8741 29.9552 25.2304 29.9552 28.1184C29.9552 32.2696 28.1681 35.4362 24.5965 37.618C21.7029 39.3874 17.9507 40.2684 13.3422 40.2684C9.45031 40.2684 5.52906 39.8052 1.58091 38.8744Z" fill="#009999"/>
<path fill-rule="evenodd" clip-rule="evenodd" d="M35.9375 1.18018L46.53 1.18018L46.53 39.4939H35.9375L35.9375 1.18018Z" fill="#009999"/>
<path fill-rule="evenodd" clip-rule="evenodd" d="M56.2441 39.4939L56.2441 1.18018L83.4113 1.18018V8.10999L66.4531 8.10999V16.7613L81.2144 16.7613V23.0823L66.4531 23.0823V32.1744H83.8483V39.4939H56.2441Z" fill="#009999"/>
<path fill-rule="evenodd" clip-rule="evenodd" d="M90.7637 39.4939V1.18018L104.497 1.18018L114.039 25.6609L123.819 1.18018L136.864 1.18018V39.4939H126.821V12.3668L115.7 39.8828H109.134L98.2267 12.3668V39.4939H90.7637Z" fill="#009999"/>
<path fill-rule="evenodd" clip-rule="evenodd" d="M146.58 39.4939V1.18018L173.747 1.18018V8.10999L156.79 8.10999V16.7613L171.551 16.7613V23.0823L156.79 23.0823V32.1744H174.186V39.4939H146.58Z" fill="#009999"/>
<path fill-rule="evenodd" clip-rule="evenodd" d="M181.156 39.4939V1.18018L193.433 1.18018L206.458 26.8282V1.18018L213.919 1.18018V39.4939L201.991 39.4939L188.62 13.5007V39.4939H181.156Z" fill="#009999"/>
<path fill-rule="evenodd" clip-rule="evenodd" d="M221.439 38.8742V31.3076C225.665 32.6631 229.436 33.3408 232.756 33.3408C237.287 33.3408 239.549 32.131 239.549 29.7132C239.549 28.8118 239.228 28.0543 238.59 27.441C237.91 26.7904 236.172 25.8885 233.374 24.733C228.399 22.6769 225.141 20.9096 223.614 19.4294C221.653 17.5162 220.674 15.0729 220.674 12.0971C220.674 8.32523 222.1 5.44749 224.959 3.46334C227.78 1.49655 231.463 0.51416 236.001 0.51416C238.552 0.51416 241.859 0.923468 245.913 1.74586L246.85 1.91014V9.18888C243.328 7.76749 240.049 7.05831 237.012 7.05831C232.775 7.05831 230.662 8.23819 230.662 10.6032C230.662 11.4872 231.088 12.2082 231.944 12.7672C232.624 13.2022 234.597 14.1582 237.865 15.6367C242.457 17.7129 245.531 19.5177 247.079 21.0528C248.903 22.8737 249.813 25.2299 249.813 28.1179C249.813 32.2691 248.036 35.4357 244.483 37.6176C241.572 39.3869 237.811 40.2679 233.203 40.2679C229.307 40.2681 225.384 39.805 221.439 38.8742Z" fill="#009999"/>
</g>
<defs>
<clipPath id="clip0_123_1164">
<rect width="249" height="40" fill="white" transform="translate(0.8125 0.5)"/>
</clipPath>
</defs>
</svg>
