<svg width="184" height="61" viewBox="0 0 184 61" fill="none" xmlns="http://www.w3.org/2000/svg">
<g clip-path="url(#clip0_123_1248)">
<path d="M70.5622 52.8119C63.7404 48.4197 54.4823 47.6489 39.5514 51.7892C23.6341 55.5277 18.3271 57.9243 11.3575 53.1133C8.67987 50.75 7.71989 46.9448 8.43672 41.4637C10.0993 32.5285 14.5924 23.9298 22.5731 14.3918C27.0279 9.43018 31.16 5.17217 36.6164 3.46233C40.7983 2.3897 40.4073 5.67448 39.9013 6.14425C39.3674 6.14425 38.4704 6.22831 37.7772 6.68046C37.2146 7.11656 35.6702 8.52475 35.5872 10.419C35.4676 13.3187 38.4702 12.7152 39.7652 11.1231C41.161 9.32894 43.224 5.89322 41.6013 2.69112C40.9211 1.55138 39.7459 0.763682 38.2868 0.495467C33.2905 0.210073 28.6373 2.59057 24.343 5.22234C14.9512 11.7431 7.43847 20.7786 3.18743 30.6689C0.736493 36.6363 -1.48001 45.1844 1.84245 52.1417C4.41256 56.9691 9.74847 59.5333 16.1145 58.9971C20.5793 58.5283 25.9783 57.086 29.6094 56.2151C33.2406 55.3429 51.8281 48.9568 57.9354 60.0714C57.9354 60.0714 59.9662 56.1311 65.0416 56.047C69.2142 55.6622 75.2338 57.2543 79.6175 60.4722C78.157 58.277 74.0164 55.0417 70.5622 52.8119Z" fill="#E61D2A"/>
<path d="M41.4477 15.5146C37.9712 13.2348 30.984 17.5932 25.3875 25.0691C20.2697 31.7749 18.0599 39.5688 20.4647 43.1728C24.0423 47.4137 30.6835 41.2452 33.5078 37.9434L33.8721 37.5575C35.7928 35.4956 37.2766 33.0145 38.7128 30.634C38.7128 30.634 40.0328 28.4549 40.0958 28.3541C40.9117 28.2038 41.8943 27.9691 43.0017 27.6505C42.9859 27.7004 38.7651 34.7913 39.1957 38.3108C39.3297 39.3846 39.2273 43.307 43.059 44.497C48.1657 45.3524 52.2435 41.3959 55.841 37.8756C55.841 37.8756 56.454 37.2895 56.8007 36.9549C56.713 37.306 56.5986 37.7744 56.5986 37.7744C55.1035 42.971 57.1188 44.0613 58.3795 44.4637C62.1894 45.5707 66.7408 40.0385 66.7555 40.0385C66.6375 41.7811 66.2923 43.2228 68.1303 44.3795C69.8651 45.0002 71.6207 44.054 72.9551 43.1655C77.7619 39.7795 81.6344 34.48 84.7623 29.899H82.7671C82.7435 29.899 77.844 36.9968 74.6624 38.5394C74.6574 38.5394 74.0785 38.8365 73.7448 38.6015C73.3319 38.2492 73.4948 37.5172 73.7499 36.9986C73.7659 36.9647 86.0339 15.698 86.0339 15.698L80.2415 15.698C80.2415 15.698 79.6088 16.7212 79.5572 16.7883C79.5182 16.7549 79.4254 16.579 79.361 16.4947C75.7723 11.533 67.6454 19.1649 61.5268 28.0153C59.1712 31.4185 56.1721 35.2503 53.0623 38.016C53.0623 38.016 48.4554 42.2369 46.4868 39.2043C45.7673 37.9301 45.9886 36.0673 46.3945 34.8439C48.6864 28.3232 52.6356 22.4053 57.1296 18.8344C58.3982 17.846 59.7771 17.5602 60.4614 17.9794C61.1134 18.3655 61.2186 19.3202 60.8061 19.9741C59.7595 19.9407 58.921 20.2586 58.2392 20.9627C56.8963 22.3709 56.4297 23.7289 56.8566 25.0031C58.9308 27.9533 63.0675 22.1196 62.8675 18.5659C62.796 17.2918 62.1158 16.0851 61.1008 15.4978C59.5881 14.5931 57.2804 14.8274 55.7869 15.5487C53.7876 16.3027 50.6228 18.9343 48.7755 20.9797C46.45 23.5448 42.4615 26.3941 41.2142 26.0751C41.6228 24.985 44.9918 18.0957 41.4477 15.5146ZM69.3742 25.7063C70.501 24.1476 73.7806 19.9734 74.5802 19.2696C77.2692 16.9051 78.344 17.9455 78.437 18.6825C75.9274 23.1749 72.9655 28.3213 70.1806 32.9481C70.1864 32.9316 69.3091 34.2722 69.3091 34.2722C68.0792 36.1493 66.8407 37.7586 64.8206 38.8816C64.5326 38.9659 64.0577 38.9996 63.7417 38.7641C63.3613 38.5126 63.2112 38.0935 63.2541 37.6573C63.3751 36.2162 64.8433 31.8084 69.3742 25.7063ZM37.8626 28.4049C37.8626 28.4049 37.8122 28.5563 37.7872 28.6058C37.7808 28.6058 35.2618 32.7122 35.2618 32.7122C33.7415 34.7409 31.8433 37.2895 29.4705 38.5126C28.7672 38.7474 27.7951 38.8986 27.2996 38.2788C26.2494 37.0213 26.7907 35.278 27.2304 33.87L27.386 33.367C28.6469 29.9478 30.6475 26.9299 32.5948 24.1304C32.6191 24.114 32.6736 24.0972 32.6933 24.0972C32.6979 24.114 32.7057 24.114 32.7091 24.1476C33.931 26.494 36.2222 27.5831 37.9357 28.0868C37.946 28.0868 37.957 28.1035 37.957 28.1372C37.9573 28.1871 37.9293 28.2547 37.8626 28.4049ZM40.2492 23.561C40.2382 23.5945 39.1272 26.1422 39.1272 26.1422C38.9665 26.2762 38.7126 26.2093 38.4216 26.1422L37.9229 26.0579C36.357 25.5721 35.1759 24.5327 34.8117 23.2924C34.3094 20.8784 36.3726 18.9842 37.2817 18.2973C38.1539 17.6933 39.5099 17.3749 40.2973 17.9954C40.7829 18.5655 40.9669 19.3028 40.9669 20.1079C40.9671 21.1973 40.6307 22.4208 40.2492 23.561Z" fill="#E61D2A"/>
<path d="M113.476 31.3386C112.918 30.132 111.592 29.3608 110.179 29.4444C105.59 29.8638 101.102 33.6353 98.7453 39.0493C97.5088 41.8322 96.8339 44.1284 96.3913 47.7827C97.8181 46.1404 100.729 43.4418 104.031 41.9665C104.031 41.9665 104.481 38.4632 106.772 35.3451C107.64 34.054 109.375 31.9756 111.324 32.5285C113.026 33.0989 112.428 37.8092 110.165 42.3678C108.491 45.7208 105.929 49.0743 103.336 51.387C101.044 53.3316 97.6534 55.6782 94.6866 53.868C92.8179 52.7622 91.8648 50.4483 92.0663 47.4645C92.9591 38.9996 96.8144 31.7915 102.332 23.5778C108.02 15.9507 114.291 8.12253 122.739 3.94789C124.462 3.07636 126.058 2.87526 127.437 3.41169C127.437 3.41169 119.507 7.77002 115.727 15.8332C114.765 17.8786 113.428 20.6437 114.775 23.0913C115.479 24.365 116.728 24.4658 117.734 24.3987C122.368 23.3256 125.361 19.0009 127.807 15.0453C129.225 12.0447 130.486 9.06094 130.486 5.7418C130.486 5.33959 130.465 4.80339 130.431 4.40072C132.645 3.22777 137.184 5.30592 137.184 5.30592C140.731 6.47979 148.284 12.2633 150.832 13.3691C152.075 11.9277 154.117 9.74877 155.267 8.65896L153.603 7.63626C150.937 6.01024 148.12 4.46783 145.347 2.9426C139.05 -0.493352 133.924 0.713274 131.315 1.65214C130.29 2.02068 129.353 2.33929 129.353 2.33929C127.417 0.227234 124.242 0.42788 121.902 0.99821C113.489 3.41192 105.677 9.29548 97.3023 19.5044C91.145 27.5005 87.3257 34.407 85.2901 41.2292C83.7209 45.8218 83.2441 52.5774 87.0739 56.5839C90.3301 59.9857 94.6478 59.2488 97.6969 58.0255C104.303 54.7735 110.241 47.7662 113.199 39.7032C113.913 37.3065 114.705 33.9205 113.476 31.3386ZM128.667 6.07735C127.792 16.1017 119.996 21.9859 118.067 22.4545C116.898 22.6888 114.904 22.1696 116.684 17.9627C119.307 12.2962 123.784 7.48577 128.587 5.02144C128.704 5.4406 128.701 5.70813 128.667 6.07735Z" fill="#E61D2A"/>
<path d="M174.912 7.35079C170.718 9.73152 166.371 11.2732 161.109 10.737C159.651 12.3802 158.231 14.0731 156.922 15.8162C164.308 17.6937 172.138 13.5197 176.505 9.54736C181.124 5.54085 183.493 0.495605 183.493 0.495605C183.493 0.495605 180.03 4.45127 174.912 7.35079Z" fill="#E61D2A"/>
<path d="M92.5564 20.7373L95.6605 15.6982L90.1596 15.6982L87.0566 20.7373H92.5564Z" fill="#E61D2A"/>
<path d="M161.087 53.2783C160.495 53.6806 159.664 53.3713 159.975 52.4496C160.749 50.1028 163.826 45.3203 163.826 45.3203L172.395 30.1284H166.525C166.246 30.5865 165.649 31.6386 165.649 31.6386C165.378 31.1864 164.566 30.1809 164.231 29.9638C162.797 29.0579 160.693 29.4862 159.242 30.3073C152.93 33.9957 148.326 41.2829 144.694 46.9658C144.694 46.9658 140.872 53.2829 138.75 53.7527C137.093 53.8869 137.264 51.6565 137.336 51.1367C137.976 47.3813 139.464 43.8111 140.962 40.5758C144.011 38.4637 147.489 35.698 150.651 32.664C157.512 26.1091 163.295 18.6831 164.141 17.0237C164.141 17.0237 163.226 17.2083 162.145 17.2415C156.867 24.6004 146.066 35.2955 142.791 36.8877C144.242 33.4004 153.614 16.7552 161.59 8.79306L162.845 7.58575C164.786 5.69152 166.797 3.74713 168.364 3.42852C168.529 3.4118 168.742 3.42852 168.926 3.8147C168.996 5.28954 168.447 6.37935 167.817 7.61965L166.933 9.43027C166.933 9.43027 168.185 9.1955 169.006 8.92659C169.959 7.13383 171.015 5.12165 170.626 2.72511C170.496 1.95391 169.938 1.36732 169.208 1.23309C166.829 0.780495 164.236 2.54004 162.149 3.96541L162.065 4.01534C151.34 12.4136 142.283 24.5165 134.365 41.0449C133.791 41.4801 131.574 42.0002 131.197 41.7485C131.979 40.1397 132.963 37.9768 133.456 35.63C133.541 34.9593 133.621 34.2724 133.621 33.602C133.621 32.1592 133.274 30.8018 131.981 29.8634C130.465 29.1089 128.591 29.4612 127.328 30.0309C121.668 32.3777 117.437 38.1781 114.385 42.9549C112.743 45.9898 111.106 49.2402 110.653 52.9623C110.334 55.8785 110.984 57.756 112.643 58.6951C114.349 59.5662 116.496 58.6607 117.34 58.2253C123.074 55.2081 127.08 49.1571 130.238 43.6249C130.364 43.6084 132.088 43.5585 133.392 43.2227C133.409 43.2227 133.417 43.2227 133.446 43.2403C133.371 43.4907 132.697 45.5028 132.697 45.5028C130.695 51.3695 129.77 55.3595 131.66 57.7226C134.362 61.0587 138.835 57.6058 142.473 53.0454C141.692 58.51 144.526 59.3653 146.686 58.9466C149.167 58.2764 151.932 55.6272 153.215 54.2699C152.803 55.862 152.915 58.7121 155.172 58.9968C156.719 59.2826 157.877 58.4416 159.217 57.7205C164.022 55.1052 169.774 46.3906 171.268 43.8711H169.309C167.186 47.078 164.485 51.2826 161.087 53.2783ZM117.953 52.6947C117.648 52.2421 117.547 51.7472 117.537 51.2121C117.479 47.9253 121.017 42.0389 123.514 38.8323C123.52 38.8323 123.52 38.8323 123.52 38.8323C124.566 41.1228 126.936 42.5951 128.367 43.2156C126.59 47.1719 120.496 55.6449 117.953 52.6947ZM129.37 41.4469C129.201 41.5648 126.212 40.5586 125.634 37.7929C125.144 35.4117 126.785 33.5511 128.372 32.6132C129.054 32.0765 130.08 31.8926 130.833 32.1596C131.531 32.6296 131.721 33.4684 131.721 34.3722C131.721 34.9265 131.647 35.496 131.582 36.0154C131.582 36.0154 131.57 36.1165 131.568 36.1332C131.07 37.9933 130.308 39.8206 129.37 41.4469ZM153.34 51.6388C153.337 51.6388 152.773 52.1416 152.773 52.1416C151.967 52.8619 151.137 53.6331 150.136 53.2474C149.859 53.1469 149.664 52.7786 149.618 52.4927C149.572 50.4308 150.501 48.5203 151.402 46.66L151.633 46.1735C154.224 41.8488 157.237 36.753 161.66 33.2165C162.406 32.6789 163.215 32.2272 164.069 32.5795C164.265 32.7634 164.494 33.0822 164.494 33.4004C164.494 33.5014 164.404 33.7694 164.352 33.8528C163.117 35.8485 161.94 37.9436 160.796 39.9548C158.56 43.9279 156.24 48.0343 153.34 51.6388Z" fill="#E61D2A"/>
</g>
<defs>
<clipPath id="clip0_123_1248">
<rect width="183.333" height="60" fill="white" transform="translate(0.160156 0.472168)"/>
</clipPath>
</defs>
</svg>
