<svg width="228" height="71" viewBox="0 0 228 71" fill="none" xmlns="http://www.w3.org/2000/svg">
<path fill-rule="evenodd" clip-rule="evenodd" d="M140.472 33.1293C139.705 33.3781 138.656 33.5891 137.353 33.7519C136.731 33.833 136.041 33.8738 135.232 33.8738C133.874 33.8738 132.403 33.7656 130.978 33.6543L130.929 33.6525C129.609 33.5528 128.36 33.4592 127.162 33.4592C126.306 33.4592 125.522 33.5098 124.77 33.606C122.531 33.884 120.766 34.5868 120.766 34.5868L120.785 34.405C121.219 29.9159 124.991 26.0836 129.555 25.4774C129.976 25.4282 130.409 25.4003 130.843 25.4003C135.143 25.4003 139.313 28.6602 140.553 32.9905L140.584 33.1027L140.472 33.1293ZM145.726 35.0351L145.725 34.9739C145.706 34.6852 145.651 34.2183 145.59 33.7164C145.472 32.8056 145.273 31.9091 144.998 31.0444C142.923 24.497 137.366 20.2718 130.843 20.2718C130.192 20.2718 129.519 20.313 128.856 20.4035C120.49 21.4801 114.808 29.0619 115.915 37.6641C116.921 45.4516 123.187 50.7867 130.812 50.7867C131.455 50.7867 132.125 50.742 132.802 50.6608C136.866 50.1447 140.437 48.4424 143.112 45.1324C143.262 44.9439 143.337 44.7032 143.309 44.4872C143.285 44.2957 143.172 44.1134 142.97 43.9671C142.521 43.6443 140.919 42.867 140.048 42.452L139.47 42.1673C139.206 42.0312 139.017 41.97 138.844 41.97C138.633 41.97 138.432 42.0782 138.236 42.3159C136.512 44.3205 134.329 45.3736 132.1 45.6663C131.657 45.7204 131.229 45.7492 130.812 45.7492C126.748 45.7492 122.647 43.028 121.456 39.2931L121.426 39.1952L121.514 39.153C121.725 39.0484 123.626 38.1629 126.445 38.1629C126.794 38.1629 127.15 38.1771 127.498 38.2081C128.306 38.272 129.118 38.3771 129.974 38.4853C131.555 38.6941 133.193 38.9105 135.106 38.9105C136.285 38.9105 137.444 38.8253 138.626 38.6608C143.278 37.7643 145.123 36.4598 145.138 36.4478C145.795 36.023 145.77 35.6709 145.726 35.0351ZM218.598 21.986C218.598 21.5954 218.277 21.281 217.89 21.281H214.04C213.657 21.281 213.34 21.5954 213.34 21.986V49.3603C213.34 49.747 213.657 50.0667 214.04 50.0667H217.89C218.277 50.0667 218.598 49.747 218.598 49.3603V21.986ZM215.969 11.5176C214.055 11.5176 212.493 13.0802 212.493 14.997C212.493 16.9094 214.055 18.4685 215.969 18.4685C217.887 18.4685 219.444 16.9094 219.444 14.997C219.444 13.0802 217.887 11.5176 215.969 11.5176ZM165.004 25.4708C170.46 25.4708 174.736 29.9612 174.736 35.6971C174.736 41.4672 170.679 45.8144 165.298 45.8144C162.58 45.8144 160.062 44.8397 158.219 43.0745C156.318 41.2597 155.275 38.6968 155.275 35.8687C155.275 30.135 159.639 25.4708 165.004 25.4708ZM164.833 50.7961C165.076 50.8063 165.329 50.816 165.574 50.816C169.529 50.816 173.205 49.2889 175.937 46.5367C178.707 43.7308 180.228 39.8833 180.228 35.6971C180.228 27.048 173.569 20.2718 165.066 20.2718C158.147 20.2718 152.307 24.8278 150.521 31.6053C150.217 32.756 149.902 35.6904 149.902 38.6169V60.0957C149.902 60.4872 150.217 60.806 150.608 60.806H154.427C154.822 60.806 155.141 60.4832 155.141 60.0899L155.138 46.5597L155.339 46.7544C157.214 48.5768 160.693 50.6018 164.833 50.7961ZM96.3936 25.4708C101.845 25.4708 106.122 29.9612 106.122 35.6971C106.122 41.4672 102.067 45.8144 96.6809 45.8144C93.9571 45.8144 91.45 44.8397 89.6086 43.0745C87.7041 41.2597 86.6563 38.6968 86.6563 35.8687C86.6563 30.135 91.0244 25.4708 96.3936 25.4708ZM96.2242 50.7961C96.4677 50.8063 96.7182 50.816 96.9589 50.816C100.919 50.816 104.596 49.2889 107.323 46.5367C110.094 43.7308 111.619 39.8833 111.619 35.6971C111.619 27.048 104.955 20.2718 96.4508 20.2718C89.5345 20.2718 83.6877 24.8278 81.9061 31.6053C81.5966 32.756 81.2871 35.6904 81.2871 38.6169V60.0957C81.2871 60.4872 81.6046 60.806 81.9864 60.806H85.8165C86.2094 60.806 86.5291 60.4832 86.5291 60.0899L86.5229 46.5597L86.7162 46.7544C88.5927 48.5768 92.0713 50.6018 96.2242 50.7961ZM183.907 46.001C187.231 49.0437 190.863 50.7819 195.579 50.7819H195.728C203.867 50.7291 207.504 46.2804 207.504 41.8973C207.504 35.8346 201.784 34.1775 200.032 33.8099C199.469 33.7004 198.884 33.5905 198.285 33.4712C196.868 33.1985 195.397 32.9169 194.061 32.5476C193.124 32.2899 190.069 31.2728 190.069 28.9888C190.069 26.4746 192.86 25.1191 195.481 25.1191C197.683 25.1191 199.519 25.4898 201.868 27.3242C202.051 27.4688 202.309 27.6342 202.623 27.6342C202.856 27.6342 203.078 27.5539 203.318 27.3827C203.968 26.9034 205.158 25.8995 205.944 25.1134C206.13 24.9258 206.216 24.7205 206.205 24.5059C206.187 24.1725 205.94 23.8998 205.812 23.7947C202.671 21.3027 199.648 20.2829 195.385 20.2718H195.354C189.256 20.2718 184.652 24.1915 184.652 29.3883C184.652 33.5062 188.038 36.4309 194.174 37.6361L198.017 38.3726C200.542 38.8364 201.962 40.1777 201.913 42.0556C201.868 43.886 199.623 45.7815 195.934 45.7815C192.924 45.7815 190.272 44.6061 188.05 42.5894L188.017 42.5575C187.86 42.4152 187.673 42.2418 187.421 42.2418C187.244 42.2418 187.057 42.3238 186.855 42.4813C186.624 42.6693 184.058 44.6983 183.784 44.9852C183.658 45.12 183.599 45.2623 183.602 45.4117C183.608 45.649 183.765 45.8707 183.907 46.001ZM224.212 46.6373C224.477 46.6373 224.627 46.8444 224.627 47.071C224.627 47.286 224.477 47.4918 224.195 47.4918H223.601V46.6373H224.212ZM224.546 48.0589C225.032 47.9365 225.24 47.502 225.24 47.071C225.24 46.546 224.909 46.025 224.212 46.025H222.976V49.2047H223.601V48.1059H223.809L224.598 49.2047H225.359L224.546 48.0589ZM224.06 50.2241C225.512 50.2241 226.655 49.0548 226.655 47.6009C226.655 46.15 225.512 44.9697 224.06 44.9697C222.609 44.9697 221.463 46.15 221.463 47.6009C221.463 49.0548 222.609 50.2241 224.06 50.2241ZM224.06 44.4087C225.818 44.4087 227.216 45.8414 227.216 47.6009C227.216 49.3603 225.818 50.7819 224.06 50.7819C222.304 50.7819 220.914 49.3603 220.914 47.6009C220.914 45.8414 222.304 44.4087 224.06 44.4087Z" fill="#004883"/>
<path fill-rule="evenodd" clip-rule="evenodd" d="M59.9397 60.2493C46.2743 73.9178 24.1097 73.916 10.4451 60.2493C-3.2265 46.579 -3.2265 24.4161 10.4451 10.7502C24.1128 -2.91696 46.2743 -2.91696 59.9371 10.7516C73.6087 24.4156 73.6087 46.5785 59.9397 60.2488" fill="white"/>
<path fill-rule="evenodd" clip-rule="evenodd" d="M62.4386 17.8379C63.0944 19.9618 63.4536 22.2161 63.4536 24.5533C63.4536 32.0939 59.7463 38.7247 54.1074 42.8794C44.3019 50.1012 30.0104 50.111 10.2773 56.3289C16.2332 63.4474 25.183 67.9781 35.1916 67.9781C53.1297 67.9781 67.6704 53.4374 67.6704 35.5002C67.6704 28.9887 65.7429 22.9264 62.4386 17.8379Z" fill="#004883"/>
<path fill-rule="evenodd" clip-rule="evenodd" d="M54.6695 9.51387C49.2422 5.43451 42.4997 3.02148 35.1923 3.02148C17.2551 3.02148 2.71484 17.5653 2.71484 35.5003C2.71484 42.7199 5.07023 49.3879 9.05382 54.7793C30.8975 48.419 48.1452 31.2844 54.6695 9.51387Z" fill="#E32934"/>
</svg>
