<svg width="231" height="51" viewBox="0 0 231 51" fill="none" xmlns="http://www.w3.org/2000/svg">
<path d="M214.68 40.8208C214.68 37.5803 217.31 34.9512 220.549 34.9512C223.79 34.9512 226.417 37.5803 226.417 40.8208C226.417 44.0613 223.79 46.6886 220.549 46.6886C217.31 46.6886 214.68 44.0613 214.68 40.8208Z" fill="#86BC24"/>
<path d="M27.4864 25.2766C27.4864 21.5588 26.768 18.8006 25.3312 17.0038C23.8926 15.2086 21.7135 14.3118 18.7838 14.3118H15.6674L15.6674 37.0464H18.0517C21.3058 37.0464 23.6905 36.0817 25.2088 34.1455C26.7254 32.2128 27.4864 29.2558 27.4864 25.2766ZM38.6004 24.8894C38.6004 31.6625 36.7798 36.8815 33.1384 40.5449C29.4971 44.21 24.3783 46.0426 17.7801 46.0426H4.95898L4.95898 5.45654L18.675 5.45654C25.0372 5.45654 29.9488 7.12264 33.4101 10.4532C36.8698 13.7854 38.6004 18.5952 38.6004 24.8894Z" fill="#0F0B0B"/>
<path d="M74.1152 46.042H84.3174V5.28613L74.1152 5.28613V46.042Z" fill="#0F0B0B"/>
<path d="M98.6492 30.8398C98.6492 33.4383 98.9888 35.4203 99.6665 36.7824C100.346 38.1462 101.484 38.8272 103.084 38.8272C104.666 38.8272 105.786 38.1462 106.438 36.7824C107.09 35.4203 107.414 33.4383 107.414 30.8398C107.414 28.2549 107.085 26.3051 106.424 24.9889C105.762 23.6692 104.633 23.0085 103.031 23.0085C101.465 23.0085 100.346 23.6659 99.6665 24.9736C98.9888 26.2831 98.6492 28.2379 98.6492 30.8398ZM117.798 30.8398C117.798 35.7906 116.501 39.6527 113.899 42.421C111.299 45.1911 107.659 46.5769 102.98 46.5769C98.4929 46.5769 94.9211 45.1605 92.27 42.3276C89.6155 39.4947 88.2891 35.6666 88.2891 30.8398C88.2891 25.9043 89.5884 22.0693 92.1904 19.335C94.7921 16.6006 98.4402 15.2334 103.138 15.2334C106.041 15.2334 108.608 15.8669 110.833 17.1322C113.06 18.3975 114.779 20.2097 115.986 22.5704C117.195 24.9278 117.798 27.6859 117.798 30.8398Z" fill="#0F0B0B"/>
<path d="M121.85 46.0421H132.053V30.4443V15.7686L121.85 15.7686V46.0421Z" fill="#0F0B0B"/>
<path d="M121.85 12.1065H132.053V5.28418L121.85 5.28418V12.1065Z" fill="#0F0B0B"/>
<path d="M152.726 38.3208C154.103 38.3208 155.744 37.9709 157.658 37.2763V44.8934C156.282 45.498 154.975 45.9312 153.731 46.1876C152.488 46.4475 151.029 46.5765 149.36 46.5765C145.934 46.5765 143.465 45.7155 141.948 43.9967C140.438 42.278 139.681 39.6387 139.681 36.0772V23.5975H136.107V15.7714H139.681V8.04039L149.963 6.25195V15.7714H156.473V23.5975L149.963 23.5975V35.3809C149.963 37.3408 150.885 38.3208 152.726 38.3208Z" fill="#0F0B0B"/>
<path d="M176.343 38.3208C177.72 38.3208 179.361 37.9709 181.275 37.2763V44.8934C179.901 45.498 178.592 45.9312 177.348 46.1876C176.103 46.4475 174.65 46.5765 172.977 46.5765C169.551 46.5765 167.082 45.7155 165.568 43.9967C164.055 42.278 163.298 39.6387 163.298 36.0772V23.5975H159.723V15.7714H163.298V7.92321L173.578 6.25195V15.7714H180.091V23.5975L173.578 23.5975V35.3809C173.578 37.3408 174.5 38.3208 176.343 38.3208Z" fill="#0F0B0B"/>
<path d="M194.149 27.1519C194.288 25.4943 194.763 24.2799 195.571 23.5038C196.383 22.7293 197.385 22.3421 198.584 22.3421C199.892 22.3421 200.931 22.7768 201.702 23.6532C202.478 24.5245 202.882 25.6913 202.915 27.1519H194.149ZM208.538 18.8027C206.113 16.425 202.672 15.2344 198.22 15.2344C193.541 15.2344 189.941 16.6016 187.417 19.3359C184.895 22.0703 183.633 25.9936 183.633 31.1057C183.633 36.0565 184.997 39.8744 187.718 42.5544C190.44 45.2345 194.263 46.5762 199.187 46.5762C201.551 46.5762 203.586 46.4149 205.291 46.0939C206.986 45.7763 208.626 45.2022 210.218 44.3734L208.65 37.551C207.494 38.0232 206.393 38.3866 205.353 38.6261C203.852 38.9743 202.205 39.1492 200.411 39.1492C198.445 39.1492 196.892 38.6685 195.754 37.7073C194.616 36.7443 194.01 35.4162 193.94 33.7246H212.177V29.0761C212.177 24.6043 210.965 21.1787 208.538 18.8027Z" fill="#0F0B0B"/>
<path d="M52.1413 27.1519C52.2806 25.4943 52.7544 24.2799 53.5627 23.5038C54.3729 22.7293 55.3769 22.3421 56.5777 22.3421C57.882 22.3421 58.9213 22.7768 59.6941 23.6532C60.4702 24.5245 60.8728 25.6913 60.9085 27.1519H52.1413ZM66.5318 18.8027C64.1048 16.425 60.6655 15.2344 56.2125 15.2344C51.5316 15.2344 47.9327 16.6016 45.4105 19.3359C42.8885 22.0703 41.625 25.9936 41.625 31.1057C41.625 36.0565 42.9872 39.8744 45.7114 42.5544C48.4322 45.2345 52.2551 46.5762 57.1787 46.5762C59.5429 46.5762 61.5774 46.4149 63.2826 46.0939C64.9776 45.7763 66.6185 45.2022 68.2116 44.3734L66.6422 37.551C65.4856 38.0232 64.3849 38.3866 63.3473 38.6261C61.8425 38.9743 60.1967 39.1492 58.4031 39.1492C56.4382 39.1492 54.8844 38.6685 53.7465 37.7073C52.6068 36.7443 52.0023 35.4162 51.9327 33.7246H70.1697V29.0761C70.1697 24.6043 68.957 21.1787 66.5318 18.8027Z" fill="#0F0B0B"/>
</svg>
