<svg width="231" height="51" viewBox="0 0 231 51" fill="none" xmlns="http://www.w3.org/2000/svg">
<path d="M214.588 40.3344C214.588 37.0939 217.219 34.4648 220.457 34.4648C223.698 34.4648 226.325 37.0939 226.325 40.3344C226.325 43.5749 223.698 46.2023 220.457 46.2023C217.219 46.2023 214.588 43.5749 214.588 40.3344Z" fill="#86BC24"/>
<path d="M27.3946 24.7902C27.3946 21.0725 26.6762 18.3143 25.2394 16.5174C23.8008 14.7223 21.6217 13.8255 18.692 13.8255H15.5756L15.5756 36.56H17.9599C21.214 36.56 23.5987 35.5953 25.117 33.6592C26.6336 31.7264 27.3946 28.7695 27.3946 24.7902ZM38.5086 24.403C38.5086 31.1762 36.688 36.3952 33.0466 40.0586C29.4053 43.7237 24.2865 45.5563 17.6883 45.5563H4.86719L4.86719 4.97021L18.5832 4.97021C24.9454 4.97021 29.857 6.63631 33.3183 9.96683C36.778 13.299 38.5086 18.1088 38.5086 24.403Z" fill="#0F0B0B"/>
<path d="M74.0234 45.5557H84.2256V4.7998L74.0234 4.7998V45.5557Z" fill="#0F0B0B"/>
<path d="M98.5574 30.3535C98.5574 32.952 98.897 34.934 99.5747 36.2961C100.254 37.6599 101.392 38.3409 102.992 38.3409C104.575 38.3409 105.694 37.6599 106.346 36.2961C106.998 34.934 107.323 32.952 107.323 30.3535C107.323 27.7685 106.993 25.8188 106.332 24.5025C105.67 23.1829 104.541 22.5222 102.939 22.5222C101.373 22.5222 100.254 23.1795 99.5747 24.4873C98.897 25.7967 98.5574 27.7516 98.5574 30.3535ZM117.707 30.3535C117.707 35.3042 116.409 39.1663 113.807 41.9347C111.207 44.7048 107.567 46.0906 102.888 46.0906C98.4011 46.0906 94.8293 44.6741 92.1782 41.8412C89.5237 39.0083 88.1973 35.1803 88.1973 30.3535C88.1973 25.418 89.4966 21.583 92.0986 18.8486C94.7003 16.1142 98.3484 14.7471 103.046 14.7471C105.949 14.7471 108.517 15.3806 110.742 16.6459C112.968 17.9112 114.687 19.7233 115.894 22.0841C117.104 24.4414 117.707 27.1996 117.707 30.3535Z" fill="#0F0B0B"/>
<path d="M121.758 45.5558H131.962V29.9579V15.2822L121.758 15.2822V45.5558Z" fill="#0F0B0B"/>
<path d="M121.758 11.6202H131.962V4.79785L121.758 4.79785V11.6202Z" fill="#0F0B0B"/>
<path d="M152.634 37.8344C154.012 37.8344 155.652 37.4846 157.566 36.7899V44.4071C156.19 45.0117 154.883 45.4448 153.64 45.7013C152.396 45.9611 150.937 46.0902 149.268 46.0902C145.842 46.0902 143.373 45.2291 141.856 43.5104C140.346 41.7916 139.589 39.1524 139.589 35.5909V23.1112H136.016V15.2851H139.589V7.55406L149.871 5.76562V15.2851H156.381V23.1112L149.871 23.1112V34.8945C149.871 36.8545 150.793 37.8344 152.634 37.8344Z" fill="#0F0B0B"/>
<path d="M176.251 37.8344C177.629 37.8344 179.269 37.4846 181.183 36.7899V44.4071C179.809 45.0117 178.5 45.4448 177.256 45.7013C176.012 45.9611 174.558 46.0902 172.885 46.0902C169.459 46.0902 166.99 45.2291 165.477 43.5104C163.963 41.7916 163.206 39.1524 163.206 35.5909V23.1112H159.631V15.2851H163.206V7.43688L173.486 5.76562V15.2851H179.999V23.1112L173.486 23.1112V34.8945C173.486 36.8545 174.408 37.8344 176.251 37.8344Z" fill="#0F0B0B"/>
<path d="M194.057 26.6655C194.197 25.0079 194.671 23.7936 195.479 23.0174C196.291 22.243 197.293 21.8558 198.492 21.8558C199.8 21.8558 200.839 22.2905 201.61 23.1669C202.386 24.0381 202.791 25.2049 202.823 26.6655H194.057ZM208.446 18.3164C206.021 15.9387 202.58 14.748 198.128 14.748C193.449 14.748 189.849 16.1152 187.325 18.8496C184.803 21.584 183.541 25.5073 183.541 30.6194C183.541 35.5702 184.905 39.3881 187.626 42.0681C190.348 44.7481 194.171 46.0899 199.095 46.0899C201.459 46.0899 203.494 45.9286 205.199 45.6076C206.894 45.29 208.534 44.7159 210.126 43.8871L208.558 37.0647C207.402 37.5368 206.301 37.9003 205.262 38.1398C203.76 38.488 202.113 38.6629 200.319 38.6629C198.353 38.6629 196.8 38.1822 195.663 37.2209C194.525 36.258 193.918 34.9299 193.849 33.2383H212.086V28.5898C212.086 24.118 210.873 20.6924 208.446 18.3164Z" fill="#0F0B0B"/>
<path d="M52.0495 26.6655C52.1888 25.0079 52.6626 23.7936 53.4709 23.0174C54.2811 22.243 55.2851 21.8558 56.4859 21.8558C57.7902 21.8558 58.8295 22.2905 59.6023 23.1669C60.3784 24.0381 60.781 25.2049 60.8167 26.6655H52.0495ZM66.44 18.3164C64.0131 15.9387 60.5737 14.748 56.1207 14.748C51.4398 14.748 47.8409 16.1152 45.3187 18.8496C42.7967 21.584 41.5332 25.5073 41.5332 30.6194C41.5332 35.5702 42.8954 39.3881 45.6196 42.0681C48.3404 44.7481 52.1633 46.0899 57.087 46.0899C59.4511 46.0899 61.4857 45.9286 63.1908 45.6076C64.8858 45.29 66.5267 44.7159 68.1198 43.8871L66.5504 37.0647C65.3938 37.5368 64.2931 37.9003 63.2555 38.1398C61.7507 38.488 60.1049 38.6629 58.3113 38.6629C56.3464 38.6629 54.7926 38.1822 53.6547 37.2209C52.515 36.258 51.9105 34.9299 51.8409 33.2383H70.0779V28.5898C70.0779 24.118 68.8652 20.6924 66.44 18.3164Z" fill="#0F0B0B"/>
</svg>
