<svg width="213" height="65" viewBox="0 0 213 65" fill="none" xmlns="http://www.w3.org/2000/svg">
<path fill-rule="evenodd" clip-rule="evenodd" d="M131.41 50.5511C119.146 59.6513 101.308 64.4998 85.9221 64.4998C64.3673 64.4998 45.0423 56.5184 30.3256 43.241C29.2107 42.1968 30.1769 40.7795 31.5891 41.6C47.4208 50.8495 66.9687 56.3693 87.1856 56.3693C100.787 56.3693 115.801 53.5347 129.626 47.642C131.707 46.8215 133.417 49.0592 131.41 50.5511Z" fill="#FF9900"/>
<path fill-rule="evenodd" clip-rule="evenodd" d="M136.539 44.6585C134.978 42.6445 126.133 43.6888 122.194 44.2109C121.004 44.3601 120.781 43.3158 121.896 42.5699C128.957 37.5722 140.478 39.0641 141.816 40.7051C143.154 42.3461 141.444 53.9825 134.829 59.5023C133.789 60.3228 132.822 59.8753 133.268 58.7564C134.755 55.0268 138.1 46.747 136.539 44.6585Z" fill="#FF9900"/>
<path fill-rule="evenodd" clip-rule="evenodd" d="M122.416 7.51165V2.66317C122.416 1.91724 122.937 1.46969 123.606 1.46969L145.16 1.46969C145.829 1.46969 146.424 1.99184 146.424 2.66317V6.76573C146.424 7.43706 145.829 8.33217 144.789 9.82401L133.64 25.7867C137.802 25.7121 142.187 26.3088 145.904 28.3974C146.721 28.845 146.944 29.5909 147.019 30.2622V35.4091C147.019 36.155 146.275 36.9755 145.458 36.528C138.843 33.0221 129.998 32.6492 122.714 36.6026C121.97 36.9755 121.153 36.2296 121.153 35.4837V30.5606C121.153 29.8147 121.153 28.472 121.97 27.2785L134.903 8.70513H123.68C123.011 8.70513 122.416 8.18298 122.416 7.51165ZM43.8529 37.5722H37.3121C36.7175 37.4976 36.1972 37.0501 36.1229 36.4534L36.1229 2.73776C36.1229 2.06643 36.7175 1.54428 37.3864 1.54428L43.4812 1.54428C44.1502 1.54428 44.5961 2.06643 44.6705 2.66317V7.06409H44.8191C46.38 2.81234 49.4274 0.798364 53.441 0.798364C57.529 0.798364 60.1304 2.81234 61.9143 7.06409C63.4751 2.81234 67.1172 0.798364 70.9822 0.798364C73.7323 0.798364 76.7053 1.91724 78.5635 4.52797C80.6447 7.36246 80.1987 11.465 80.1987 15.12V36.4534C80.1987 37.1247 79.6041 37.6468 78.9351 37.6468H72.4687C71.7998 37.5722 71.2795 37.0501 71.2795 36.4534V18.5513C71.2795 17.134 71.4281 13.5536 71.1308 12.2109C70.6105 9.97318 69.1983 9.30185 67.2658 9.30185C65.7049 9.30185 63.9954 10.3462 63.3265 12.0618C62.6575 13.7774 62.7319 16.6119 62.7319 18.5513L62.7319 36.4534C62.7319 37.1247 62.1373 37.6468 61.4683 37.6468H54.9276C54.2586 37.5722 53.7383 37.0501 53.7383 36.4534L53.7383 18.5513C53.7383 14.8217 54.3329 9.22726 49.7247 9.22726C45.0421 9.22726 45.1907 14.5979 45.1907 18.5513L45.1907 36.4534C45.1164 37.0501 44.5961 37.5722 43.8529 37.5722ZM165.006 0.798364C174.742 0.798364 180.02 9.15267 180.02 19.8193C180.02 30.113 174.222 38.3182 165.006 38.3182C155.492 38.3182 150.289 29.9639 150.289 19.521C150.215 9.00349 155.492 0.798364 165.006 0.798364ZM165.006 7.73542C160.174 7.73542 159.877 14.3741 159.877 18.4767C159.877 22.5793 159.803 31.3811 164.931 31.3811C169.986 31.3811 170.283 24.2949 170.283 19.9685C170.283 17.134 170.134 13.7028 169.317 11.0175C168.573 8.63054 167.087 7.73542 165.006 7.73542ZM192.581 37.5722H186.04C185.371 37.4976 184.851 36.9755 184.851 36.3788V2.58857C184.925 1.99183 185.446 1.46969 186.114 1.46969L192.209 1.46969C192.804 1.46969 193.25 1.91725 193.399 2.4394V7.58625H193.547C195.405 2.96154 197.932 0.798364 202.466 0.798364C205.365 0.798364 208.264 1.84264 210.122 4.75173C211.832 7.43705 211.832 11.9872 211.832 15.2692V36.528C211.757 37.1247 211.237 37.5722 210.568 37.5722H204.027C203.433 37.4976 202.912 37.0501 202.838 36.528V18.1783C202.838 14.4487 203.284 9.07809 198.75 9.07809C197.189 9.07809 195.703 10.1224 194.959 11.7634C194.067 13.852 193.919 15.8659 193.919 18.1783V36.3788C193.844 37.0501 193.25 37.5722 192.581 37.5722ZM105.247 21.4604C105.247 23.9965 105.321 26.1597 104.058 28.472C103.017 30.3368 101.382 31.4557 99.5237 31.4557C96.9966 31.4557 95.51 29.5163 95.51 26.6818C95.51 21.0874 100.49 20.0431 105.247 20.0431V21.4604ZM111.862 37.4977C111.416 37.8706 110.821 37.9452 110.301 37.6468C108.146 35.8566 107.7 34.9615 106.51 33.2459C102.943 36.9009 100.341 38.0198 95.733 38.0198C90.2328 38.0198 85.9219 34.5886 85.9219 27.8007C85.9219 22.4301 88.8206 18.8496 92.9086 17.0594C96.4763 15.493 101.456 15.1946 105.247 14.7471V13.9266C105.247 12.3601 105.396 10.4953 104.429 9.15268C103.612 7.95921 102.125 7.43705 100.787 7.43705C98.2601 7.43705 96.0303 8.70513 95.51 11.3904C95.3614 11.9872 94.9897 12.5839 94.3951 12.5839L88.0773 11.9126C87.5571 11.7634 86.9624 11.3904 87.1111 10.5699C88.5976 2.81235 95.51 0.5 101.753 0.5C104.95 0.5 109.112 1.32051 111.639 3.78205C114.835 6.76573 114.538 10.7937 114.538 15.12V25.3391C114.538 28.3974 115.801 29.7401 116.99 31.4557C117.436 32.0524 117.511 32.7984 116.99 33.1713C115.578 34.2902 113.2 36.3788 111.862 37.4977ZM19.3993 21.4604C19.3993 23.9965 19.4736 26.1597 18.2101 28.472C17.1695 30.3368 15.5343 31.4557 13.6761 31.4557C11.149 31.4557 9.66249 29.5163 9.66249 26.6818C9.66249 21.0874 14.6424 20.0431 19.3993 20.0431V21.4604ZM25.9401 37.4977C25.4941 37.8706 24.8995 37.9452 24.3792 37.6468C22.2237 35.8566 21.7778 34.9615 20.5885 33.2459C17.0208 36.9009 14.4194 38.0198 9.81114 38.0198C4.31096 38.0198 0 34.5886 0 27.8007C0 22.4301 2.89874 18.8496 6.98672 17.0594C10.5544 15.493 15.5343 15.1946 19.325 14.7471V13.9266C19.325 12.3601 19.4736 10.4953 18.5074 9.15268C17.6898 7.95921 16.2033 7.43705 14.8654 7.43705C12.3383 7.43705 10.1084 8.70513 9.58816 11.3904C9.43951 11.9872 9.06787 12.5839 8.47326 12.5839L2.15547 11.9126C1.63519 11.7634 1.04058 11.3904 1.18923 10.5699C2.67577 2.81235 9.58817 0.5 15.8316 0.5C19.0277 0.5 23.19 1.32051 25.7171 3.78205C28.9132 6.76573 28.6158 10.7937 28.6158 15.12V25.3391C28.6158 28.3974 29.8794 29.7401 31.0686 31.4557C31.5146 32.0524 31.5889 32.7984 31.0686 33.1713C29.6564 34.2902 27.278 36.3788 25.9401 37.4977Z" fill="black"/>
</svg>
