<svg width="200" height="41" viewBox="0 0 200 41" fill="none" xmlns="http://www.w3.org/2000/svg">
<g clip-path="url(#clip0_123_1224)">
<path fill-rule="evenodd" clip-rule="evenodd" d="M198.19 39.4522V11.6522L193.65 11.6522C193.5 11.7322 193.51 11.7722 193.44 11.9222C191.92 14.8822 190.18 17.9522 188.64 20.9222C187.82 22.5022 186.98 24.0022 186.16 25.5722L184.31 29.0422C184.11 29.4122 183.87 29.8322 183.7 30.2022C183.56 30.0722 183.45 29.8022 183.35 29.6122C183.25 29.4022 183.14 29.2422 183.04 29.0422L181.19 25.5622C180.39 23.9922 179.53 22.5022 178.73 20.9422C177.37 18.2822 175.81 15.5022 174.4 12.8222C174.21 12.4622 173.94 12.0222 173.79 11.6522L169.17 11.6722V39.4522H173.53L173.54 20.7322L177.34 27.5722C178.54 29.8322 179.89 32.1522 181.14 34.4222C181.83 35.6822 182.98 37.8622 183.67 38.9822C183.95 38.5822 184.65 37.2422 184.95 36.7222L188.73 29.9022C189.97 27.6022 191.28 25.3422 192.52 23.0422L193.46 21.3422C193.51 21.2422 193.71 20.8322 193.81 20.7822V39.4522H198.19ZM150.13 15.2222C154.07 14.8122 158.11 17.1722 159.88 20.6622C160.49 21.8522 160.9 23.0922 161.01 24.6422C161.42 30.5222 157.01 35.0722 151.66 35.5422C150.11 35.6822 148.55 35.4022 147.27 34.9022C145.01 34.0322 142.95 32.2622 141.88 30.1022C140.09 26.4722 140.37 22.4422 142.76 19.2722C142.94 19.0222 143.13 18.8222 143.32 18.5822C143.47 18.4022 143.77 18.0922 143.96 17.9222C144.16 17.7322 144.4 17.5322 144.64 17.3522C146.26 16.0822 147.94 15.4522 150.13 15.2222ZM136.37 26.3922C136.74 30.8622 138.85 34.1322 141.12 36.1722C143.62 38.4022 147.18 40.2122 151.92 39.9122C154.1 39.7722 155.88 39.1422 157.58 38.3022C159.31 37.4422 160.62 36.2622 161.67 35.1222C163.8 32.8022 165.75 28.8722 165.38 24.3722C164.88 18.3722 161.06 13.6622 156.14 11.7922C152.17 10.2822 147.96 10.4822 144.17 12.4422C143.33 12.8722 142.62 13.3522 141.94 13.8722C141.18 14.4622 140.68 14.9722 140.07 15.6122C137.97 17.8622 136.01 21.9522 136.37 26.3922ZM80.8205 15.2122C82.5005 15.1222 84.7905 15.2022 86.3605 15.5022C91.4505 16.4822 94.0005 19.6222 94.0005 25.4722C94.0005 31.2722 91.3805 34.5022 86.3405 35.4222C84.9105 35.6822 82.2305 35.8322 80.8005 35.6922L80.8205 15.2122ZM82.9705 39.9222C87.1905 39.9222 91.2805 38.8922 94.3805 36.3322C95.7205 35.2222 96.7905 33.5722 97.4605 31.9122C98.2205 30.0722 98.5805 27.8322 98.5905 25.5722C98.6005 20.2522 96.9305 15.8222 92.3805 13.1922C90.4405 12.0722 87.8705 11.3722 85.2805 11.1322C83.5305 10.9722 78.1405 10.9522 76.2605 11.0022V39.9322L82.9705 39.9222ZM133.32 18.0622C132.94 17.9322 130.67 15.2322 126.22 15.2322C120.68 15.2322 116.08 19.7922 116.08 25.2822V25.5122C116.08 33.4222 125.16 38.3622 131.88 33.8122L133.26 32.7322L136.34 35.7822C135.75 36.4922 134.06 37.6322 133.27 38.0822C129.38 40.3222 124.21 40.4922 120.29 38.6622C117.69 37.4522 115.81 35.8122 114.42 33.8422C113.02 31.8622 111.72 28.9422 111.72 25.8022V24.9722C111.72 21.8822 113.04 18.9122 114.41 16.9722C119.01 10.4522 128.18 8.82217 134.88 13.7622C135.16 13.9722 136.19 14.7922 136.32 15.0222C136.19 15.2222 135.79 15.5922 135.6 15.7922C135.1 16.2922 133.65 17.6722 133.32 18.0622ZM59.7305 39.9122C62.7605 40.0522 66.2905 39.4822 68.4505 38.1722C69.5805 37.4822 70.4105 36.6922 71.0905 35.5822C72.7905 32.8122 72.5505 29.8322 72.5505 26.6322V11.0022L67.8305 11.0122C67.7705 13.7222 67.8305 16.5022 67.8305 19.2222C67.8305 21.9522 67.8305 24.6822 67.8305 27.4222C67.8305 28.7522 67.8505 30.1022 67.6705 31.3722C67.4805 32.7222 67.0905 33.4322 66.3205 34.1022C64.7705 35.4622 62.2705 35.6722 59.7305 35.7222L59.7305 39.9122ZM102.42 36.5822C102.62 37.9722 103.92 39.1722 105.61 38.9422C107 38.7522 108.19 37.4322 107.96 35.7622C107.76 34.3622 106.45 33.1622 104.79 33.4022C103.41 33.6022 102.18 34.9022 102.42 36.5822Z" fill="#D42927"/>
<path fill-rule="evenodd" clip-rule="evenodd" d="M26.92 35.1821C27.16 34.5521 27.41 33.9321 27.65 33.3021C24.84 34.6921 23.99 33.5221 23.69 31.6221C23.09 34.0421 24.61 35.5421 26.92 35.1821Z" fill="url(#paint0_linear_123_1224)"/>
<path fill-rule="evenodd" clip-rule="evenodd" d="M50.0298 3.26193C43.6798 -0.288074 30.9298 1.20193 22.8198 4.35193C18.6898 5.85193 15.1598 7.74193 12.6098 10.2519C10.3798 12.4919 10.3698 14.9819 12.3998 17.6819C15.7298 21.5919 21.9198 25.5419 30.3098 27.1919C30.2298 27.5319 30.1398 27.8719 30.0598 28.2119C27.6598 32.2819 25.2698 36.3519 22.8698 40.4319C23.2298 40.4319 23.5898 40.4319 23.9498 40.4319C25.8598 38.0419 27.5398 36.3519 28.8498 35.7719C28.8498 37.4819 28.8298 39.1419 28.6398 40.4319C29.1098 40.4319 29.5898 40.4319 30.0598 40.4319C30.3998 38.6419 30.8598 37.1519 31.5198 36.1519C32.1598 35.1719 33.0798 34.9719 33.6298 36.1519C34.1598 37.3919 34.5098 38.7819 34.6398 40.4319C35.1598 40.4319 35.5698 40.4119 36.0898 40.4119C36.0598 36.2319 36.1298 32.0719 36.0998 27.8919C36.0998 27.5719 36.0998 27.2419 36.0998 26.9219C40.3398 26.0019 44.5698 23.7219 48.8098 17.8919C52.1998 12.7919 53.9598 5.16193 50.0298 3.26193Z" fill="url(#paint1_linear_123_1224)"/>
<path fill-rule="evenodd" clip-rule="evenodd" d="M49.3505 17.0418C49.7605 16.3518 50.1405 15.6318 50.4805 14.9018C48.1105 16.6818 44.6805 17.5318 41.1705 17.3718C36.8605 17.1718 32.4405 15.4618 29.7205 12.4118C28.8305 11.4118 27.9605 12.0818 28.7105 13.1018C32.9005 18.1118 41.8205 20.3518 49.3505 17.0418Z" fill="#010101"/>
<path fill-rule="evenodd" clip-rule="evenodd" d="M24.8906 39.2924C26.4106 37.5124 27.7606 36.2624 28.8506 35.7724C28.8906 35.1124 28.7506 34.6324 28.5106 34.2324C28.4006 34.0024 28.1406 34.1524 28.0306 34.3924L24.8906 39.2924Z" fill="url(#paint2_linear_123_1224)"/>
<path fill-rule="evenodd" clip-rule="evenodd" d="M30.1895 39.782C30.5095 38.282 30.9395 37.032 31.5195 36.152C32.1595 35.172 33.0795 34.972 33.6295 36.152C34.1595 37.392 34.5095 38.782 34.6395 40.432C34.8995 40.432 35.1295 40.422 35.3695 40.422C35.1995 36.592 34.4495 34.092 32.9595 34.002C31.8895 34.072 30.6095 36.762 30.1895 39.782Z" fill="url(#paint3_linear_123_1224)"/>
<path fill-rule="evenodd" clip-rule="evenodd" d="M29.6492 8.80209C30.4492 8.80209 31.0992 8.20209 31.0992 7.47209C31.0992 6.74209 30.4492 6.14209 29.6492 6.14209C28.8492 6.14209 28.1992 6.74209 28.1992 7.47209C28.1992 8.20209 28.8592 8.80209 29.6492 8.80209Z" fill="#010101"/>
<path fill-rule="evenodd" clip-rule="evenodd" d="M45.6804 2.42214C48.0204 2.29214 49.9404 3.06214 49.9704 3.87214C50.0804 5.26214 48.1204 5.66214 45.7804 5.80214C43.4404 5.93214 41.5204 5.28214 41.4904 4.35214C41.4704 3.42214 43.3404 2.55214 45.6804 2.42214Z" fill="url(#paint4_linear_123_1224)"/>
<path fill-rule="evenodd" clip-rule="evenodd" d="M30.0605 28.2219C30.1405 27.8819 30.2305 27.5419 30.3105 27.2019C32.5905 27.4419 34.6105 27.4219 36.1105 26.9219C36.1105 27.2419 36.1105 27.5719 36.1105 27.8919C34.7905 28.7519 32.5205 28.5919 30.0605 28.2219Z" fill="#952A22"/>
<path fill-rule="evenodd" clip-rule="evenodd" d="M12.3404 13.9121C12.2604 13.0221 12.0204 12.1921 11.6804 11.3921C10.5104 10.7721 9.34035 10.1521 8.17035 9.53215C6.89035 8.91215 5.55035 9.82215 5.39035 11.1721C4.61035 15.8121 2.91035 17.0121 1.85035 20.1721C1.31035 21.8021 1.62035 22.8621 2.37035 23.4021C3.19035 23.9621 3.61035 24.2021 5.67035 23.4021C9.64035 21.7621 11.4104 19.5321 10.3204 14.0921C10.7504 14.3421 11.1804 14.6021 11.6004 14.8521C12.1104 15.1221 12.4104 14.9421 12.3404 13.9121Z" fill="url(#paint5_linear_123_1224)"/>
<path fill-rule="evenodd" clip-rule="evenodd" d="M3.34961 23.8824C3.83961 23.9724 4.47961 23.8524 5.65961 23.4024C9.62961 21.7624 11.3996 19.5324 10.3096 14.0924C9.30961 13.2924 8.30961 12.4924 7.30961 11.6924C6.50961 16.4724 5.35961 20.7724 3.34961 23.8824Z" fill="url(#paint6_linear_123_1224)"/>
</g>
<defs>
<linearGradient id="paint0_linear_123_1224" x1="24.2164" y1="33.3571" x2="26.4148" y2="33.6037" gradientUnits="userSpaceOnUse">
<stop stop-color="#D9D8D8"/>
<stop offset="1" stop-color="#BEBDC0"/>
</linearGradient>
<linearGradient id="paint1_linear_123_1224" x1="34.743" y1="3.26283" x2="24.9606" y2="29.4218" gradientUnits="userSpaceOnUse">
<stop stop-color="white"/>
<stop offset="1" stop-color="#CECCCE"/>
</linearGradient>
<linearGradient id="paint2_linear_123_1224" x1="28.1297" y1="35.4701" x2="25.5093" y2="38.9089" gradientUnits="userSpaceOnUse">
<stop stop-color="#A8A7AB"/>
<stop offset="1" stop-color="white"/>
</linearGradient>
<linearGradient id="paint3_linear_123_1224" x1="33.8377" y1="32.3285" x2="32.207" y2="44.2864" gradientUnits="userSpaceOnUse">
<stop stop-color="#929497"/>
<stop offset="1" stop-color="white"/>
</linearGradient>
<linearGradient id="paint4_linear_123_1224" x1="45.6609" y1="4.76264" x2="46.572" y2="-2.24136" gradientUnits="userSpaceOnUse">
<stop stop-color="#231F20"/>
<stop offset="1" stop-color="white"/>
</linearGradient>
<linearGradient id="paint5_linear_123_1224" x1="8.50765" y1="13.9502" x2="2.62925" y2="24.4358" gradientUnits="userSpaceOnUse">
<stop stop-color="#EFEFF1"/>
<stop offset="1" stop-color="#D8D8D9"/>
</linearGradient>
<linearGradient id="paint6_linear_123_1224" x1="9.71401" y1="13.7595" x2="5.25341" y2="22.4946" gradientUnits="userSpaceOnUse">
<stop stop-color="#A8A7AB"/>
<stop offset="1" stop-color="#D4D3D2"/>
</linearGradient>
<clipPath id="clip0_123_1224">
<rect width="200" height="40" fill="white" transform="translate(0 0.472168)"/>
</clipPath>
</defs>
</svg>
