<svg width="266" height="38" viewBox="0 0 266 38" fill="none" xmlns="http://www.w3.org/2000/svg">
<g clip-path="url(#clip0_1_3931)">
<g filter="url(#filter0_b_1_3931)">
<path d="M232.746 9.16067C227.122 6.42516 221.315 4.1253 215.386 2.25977C213.246 2.88117 211.169 3.56538 209.15 4.24958C215.264 6.11381 221.254 8.47647 227 11.2748C228.895 10.5278 230.789 9.84357 232.746 9.16067Z" fill="#EE2A24"/>
</g>
<g filter="url(#filter1_b_1_3931)">
<path d="M241.473 6.32085C235.821 3.78287 229.928 1.67744 223.912 0.00585938C221.968 0.377176 220.084 0.809728 218.201 1.30612C224.155 3.10147 229.988 5.33067 235.578 8.05497C237.523 7.4348 239.528 6.81594 241.473 6.32085Z" fill="#EE2A24"/>
</g>
<g filter="url(#filter2_b_1_3931)">
<path d="M256 11.2747C241.721 16.1135 228.353 23.0354 216.261 31.6729C219.299 33.5716 222.216 35.5321 225.072 37.6757C236.495 28.5484 249.194 20.9524 262.806 15.1945C260.557 13.7856 258.309 12.4992 256 11.2747Z" fill="#EE2A24"/>
</g>
<g filter="url(#filter3_b_1_3931)">
<path d="M246.176 6.44531C231.383 10.3593 217.498 16.7213 204.948 25.1619C207.737 26.5687 210.526 28.0359 213.255 29.6267C225.563 21.0639 239.204 14.3351 253.755 9.93199C251.269 8.70798 248.784 7.48527 246.176 6.44531Z" fill="#EE2A24"/>
</g>
<g filter="url(#filter4_b_1_3931)">
<path d="M64.345 23.1873C63.3195 23.1873 62.3991 23.0066 61.6096 22.6503C60.8539 22.3093 60.21 21.804 59.6958 21.1486C59.2003 20.517 58.8219 19.7424 58.5713 18.8462C58.3273 17.974 58.2036 16.9851 58.2036 15.907C58.2036 13.8018 58.7374 12.0202 59.7474 10.7549C60.2712 10.0985 60.9173 9.59038 61.6676 9.24468C62.4535 8.88258 63.3543 8.69897 64.345 8.69897C65.3356 8.69897 66.2364 8.88258 67.0222 9.24468C67.7725 9.59039 68.4185 10.0985 68.9424 10.7549C69.9523 12.0202 70.4861 13.8018 70.4861 15.907C70.4861 18.081 69.9612 19.8935 68.9682 21.1486C68.4501 21.8034 67.8051 22.3086 67.0512 22.6503C66.265 23.0066 65.3545 23.1873 64.345 23.1873ZM64.345 11.4986C63.1433 11.4986 62.7576 12.5698 62.7576 15.907C62.7576 19.2152 63.173 20.3877 64.345 20.3877C65.517 20.3877 65.9324 19.2152 65.9324 15.907C65.9324 12.5698 65.5467 11.4986 64.345 11.4986Z" fill="#0067B1"/>
</g>
<g filter="url(#filter5_b_1_3931)">
<path d="M73.6095 12.1865H71.7793V9.11533H73.6095V7.57911C73.6095 4.1593 75.2984 2.90356 78.2546 2.90356C79.0977 2.90356 79.8021 3.04252 80.5064 3.112V6.5331C80.295 6.46233 79.9421 6.39286 79.662 6.39286C78.4647 6.39286 78.0431 6.88177 78.0431 7.71807V9.11533H80.5064V12.1865H78.0431V22.8654H73.6095V12.1865Z" fill="#0067B1"/>
</g>
<g filter="url(#filter6_b_1_3931)">
<path d="M18.7387 23.1873C17.6245 23.1873 16.6304 22.796 15.9395 22.0855C15.2216 21.3472 14.8599 20.3175 14.8938 19.1076C14.9247 17.5131 15.7511 16.2533 17.3499 15.3634C18.5145 14.7151 20.0642 14.2712 21.9559 14.044V12.9188C21.9559 12.0117 21.5585 11.5121 20.837 11.5121C19.7545 11.5121 19.3688 12.457 19.3688 13.3412L15.4533 12.4973C15.5708 11.8545 15.8114 11.2755 16.1684 10.7761C16.4998 10.3123 16.9324 9.91512 17.4541 9.5957C17.9413 9.29742 18.5019 9.06892 19.1205 8.91655C19.7066 8.77218 20.3314 8.69897 20.9775 8.69897C23.6139 8.69897 26.4309 9.80753 26.4309 12.9188V20.6555C26.4309 22.2939 26.6707 22.7246 26.8512 22.906H22.2354C22.1643 22.4762 22.0949 21.8496 22.0949 21.6407C21.3294 22.4106 19.9944 23.1873 18.7387 23.1873ZM21.9559 16.2246C20.1205 16.3928 19.2283 17.221 19.2283 18.7564C19.2283 19.7085 19.7003 20.2328 20.5573 20.2328C21.0358 20.2328 21.5979 19.8937 21.9559 19.3889V16.2246Z" fill="#0067B1"/>
</g>
<g filter="url(#filter7_b_1_3931)">
<path d="M33.2318 12.9764V22.8654H28.79V9.04929H33.0936L33.1627 10.4518C34.1337 9.4707 35.3145 8.69897 37.0492 8.69897C38.9925 8.69897 40.103 10.0317 40.103 11.9255V22.8654H35.6612V13.3268C35.6612 12.5563 35.3836 12.1349 34.6198 12.1349C34.1337 12.1349 33.6488 12.4154 33.2318 12.9764Z" fill="#0067B1"/>
</g>
<g filter="url(#filter8_b_1_3931)">
<path d="M43.0122 3.22559H47.504V13.1851H47.5739L50.8729 9.04772H55.2948L51.5753 13.2562L55.2948 22.8654H50.6633L48.4872 16.8338H48.4161L47.504 17.8863V22.8654H43.0122V3.22559Z" fill="#0067B1"/>
</g>
<g filter="url(#filter9_b_1_3931)">
<path d="M7.49631 22.8653H0.0229492V3.22559H7.70495C8.55558 3.22559 9.35239 3.35024 10.0732 3.59608C10.7637 3.83154 11.371 4.17302 11.8783 4.61102C12.8805 5.4762 13.4324 6.67802 13.4324 7.99509C13.4324 9.1631 13.08 10.1751 12.385 11.0031C11.7146 11.8017 10.8757 12.2498 10.2899 12.4851V12.6247C11.3597 12.9832 12.2593 13.6079 12.8912 14.431C13.2209 14.8605 13.4758 15.3412 13.6488 15.86C13.8299 16.4032 13.9217 16.9901 13.9217 17.6046C13.9217 19.2242 13.2997 20.5703 12.123 21.4975C10.9874 22.3923 9.3875 22.8653 7.49631 22.8653ZM4.77204 14.3079V19.2182H6.58732C7.34334 19.2182 9.10176 18.979 9.10176 16.7632C9.10176 15.2487 8.13828 14.3079 6.58732 14.3079H4.77204ZM4.77204 6.73307V11.0112H6.44833C7.97918 11.0112 8.89312 10.2248 8.89312 8.90768C8.89312 8.0596 8.63454 7.45482 8.12454 7.11015C7.74389 6.85289 7.23339 6.73307 6.51798 6.73307H4.77204Z" fill="#0067B1"/>
</g>
<g filter="url(#filter10_b_1_3931)">
<path d="M166.777 23.1873C165.68 23.1873 164.689 22.7905 163.988 22.07C163.264 21.3252 162.898 20.3008 162.931 19.1076C162.993 17.5128 163.84 16.253 165.449 15.3634C166.621 14.7149 168.174 14.271 170.064 14.044V12.9188C170.064 12.038 169.619 11.5121 168.875 11.5121C168.401 11.5121 168.03 11.7133 167.774 12.1102C167.522 12.499 167.435 12.9942 167.406 13.3412L163.561 12.4973C163.679 11.8545 163.92 11.2755 164.277 10.7761C164.608 10.3123 165.041 9.91512 165.562 9.5957C166.52 9.00906 167.738 8.69897 169.084 8.69897C171.721 8.69897 174.539 9.80753 174.539 12.9188V20.6555C174.539 21.8131 174.653 22.5493 174.888 22.906H170.343C170.274 22.4887 170.204 21.8502 170.204 21.6407C169.493 22.3543 168.169 23.1873 166.777 23.1873ZM170.064 16.2246C168.228 16.393 167.336 17.2211 167.336 18.7564C167.336 19.6947 167.795 20.2328 168.595 20.2328C169.099 20.2328 169.579 19.9568 170.064 19.3889V16.2246Z" fill="#0067B1"/>
</g>
<g filter="url(#filter11_b_1_3931)">
<path d="M126.164 23.1873C125.136 23.1873 124.204 22.9867 123.392 22.5912C122.634 22.2219 121.981 21.6835 121.452 20.9911C120.953 20.3383 120.57 19.5571 120.313 18.6694C120.065 17.8169 119.94 16.888 119.94 15.9085C119.94 14.9217 120.072 13.9864 120.331 13.1284C120.596 12.2518 120.988 11.4798 121.496 10.8339C122.593 9.4372 124.184 8.69897 126.094 8.69897C127.113 8.69897 128.024 8.91316 128.801 9.33558C129.512 9.72206 130.116 10.2851 130.596 11.009C131.036 11.6707 131.371 12.4633 131.592 13.3646C131.796 14.195 131.899 15.0977 131.899 16.0478V16.9585H124.416C124.364 17.8339 124.536 19.0123 125.178 19.6932C125.524 20.0608 125.974 20.2472 126.515 20.2472C127.534 20.2472 128.466 19.4352 128.682 18.3584L131.689 19.4072C131.56 19.7945 130.308 23.1873 126.164 23.1873ZM126.094 11.4986C125.704 11.4986 125.366 11.6461 125.091 11.9369C124.529 12.5317 124.374 13.5467 124.416 14.2982H127.773C127.772 13.7024 127.74 12.9455 127.488 12.3792C127.224 11.7866 126.768 11.4986 126.094 11.4986Z" fill="#0067B1"/>
</g>
<g filter="url(#filter12_b_1_3931)">
<path d="M143.535 9.021H148.06V22.8655H143.535V9.021Z" fill="#0067B1"/>
</g>
<g filter="url(#filter13_b_1_3931)">
<path d="M143.535 3.22559H148.06V7.08916H143.535V3.22559Z" fill="#0067B1"/>
</g>
<g filter="url(#filter14_b_1_3931)">
<path d="M157.826 14.2286C157.826 13.6686 157.826 12.9694 157.618 12.4791C157.41 11.9192 157.064 11.4986 156.372 11.4986C154.918 11.4986 154.71 13.319 154.71 16.1186C154.71 19.1982 155.194 20.2484 156.372 20.2484C157.895 20.2484 158.034 18.6383 158.034 17.5881L161.497 18.0784C161.151 21.4379 159.212 23.1874 156.025 23.1874C152.077 23.1874 150 19.6885 150 16.258C150 12.4791 152.077 8.69897 156.233 8.69897C160.874 8.69897 161.636 12.8287 161.636 14.2286H157.826Z" fill="#0067B1"/>
</g>
<g filter="url(#filter15_b_1_3931)">
<path d="M98.6068 22.8657H98.6064L93.8681 22.8653L93.1014 18.8667L88.5724 18.8667L87.6655 22.8653L83.415 22.8653L88.0149 3.22559H94.495L98.6067 22.8653L98.6068 22.8657ZM90.8716 7.43372L89.1992 15.43L92.4053 15.43L91.0115 7.43372H90.8716Z" fill="#0067B1"/>
</g>
<g filter="url(#filter16_b_1_3931)">
<path d="M133.515 9.04929H137.844V10.8733H137.913C138.821 9.3996 140.496 8.69897 142.242 8.69897V13.1871C141.682 12.9764 141.195 12.8368 140.427 12.8368C139.24 12.8368 138.472 13.2569 137.983 13.8878V22.8654H133.515V9.04929Z" fill="#0067B1"/>
</g>
<g filter="url(#filter17_b_1_3931)">
<path d="M111.135 12.9764V22.8654H106.766V13.3979C106.766 12.6261 106.557 12.1349 105.725 12.1349C105.31 12.1349 104.616 12.4852 104.269 12.9764V22.8654H99.8999V9.04929H104.2L104.269 10.4518C105.241 9.54051 106.628 8.69897 108.222 8.69897C109.609 8.69897 110.511 9.4707 110.926 10.5216H110.996C111.759 9.68012 113.077 8.69897 114.88 8.69897C116.752 8.69897 118.001 9.89082 118.001 11.8544V22.8654H113.631V13.3979C113.631 12.6261 113.423 12.1349 112.591 12.1349C112.036 12.1349 111.412 12.6261 111.135 12.9764Z" fill="#0067B1"/>
</g>
<g filter="url(#filter18_b_1_3931)">
<path d="M178.479 23.1872C177.937 23.1872 177.436 22.987 177.069 22.6234C176.705 22.2633 176.504 21.7775 176.504 21.2555C176.504 20.733 176.705 20.247 177.069 19.8872C177.436 19.5238 177.937 19.3237 178.479 19.3237C178.991 19.3237 179.47 19.5238 179.828 19.8872C180.186 20.2505 180.383 20.7364 180.383 21.2555C180.383 21.7741 180.186 22.2599 179.828 22.6234C179.47 22.987 178.99 23.1872 178.479 23.1872ZM178.479 19.681C177.584 19.681 176.857 20.3873 176.857 21.2555C176.857 22.1117 177.554 22.7574 178.479 22.7574C179.348 22.7574 180.03 22.0977 180.03 21.2555C180.03 20.402 179.319 19.681 178.479 19.681Z" fill="#0067B1"/>
</g>
<g filter="url(#filter19_b_1_3931)">
<path d="M177.798 22.2219L177.474 22.2216V20.2898H178.379C178.508 20.2898 178.702 20.2898 178.832 20.354C179.018 20.4781 179.09 20.6046 179.09 20.8052C179.09 21.2702 178.638 21.3204 178.443 21.3204L179.026 22.221L178.702 22.2216L178.121 21.3204H177.798V22.2219ZM177.798 20.4834V21.0628H178.121C178.156 21.0628 178.194 21.064 178.234 21.0653C178.275 21.0666 178.318 21.068 178.361 21.068C178.448 21.068 178.56 21.0628 178.641 21.0229C178.725 20.9817 178.766 20.9105 178.766 20.8052C178.766 20.5827 178.627 20.4834 178.315 20.4834H177.798Z" fill="#0067B1"/>
</g>
<g filter="url(#filter20_b_1_3931)">
<path d="M260.793 19.8141C260.918 20.1819 261.232 20.3045 261.544 20.3045C261.732 20.3045 261.919 20.3045 262.044 20.1819C262.107 20.1199 262.169 19.9974 262.169 19.8748C262.169 19.6296 261.982 19.507 261.732 19.507L261.293 19.3844C261.168 19.3237 260.98 19.3237 260.856 19.2012C260.73 19.0786 260.668 18.894 260.668 18.7095C260.668 18.2191 261.106 18.0359 261.544 18.0359C261.919 18.0359 262.295 18.2191 262.419 18.6488L262.107 18.7095C262.107 18.4643 261.794 18.2811 261.482 18.2811C261.293 18.2811 260.98 18.4037 260.98 18.6488C260.98 18.956 261.168 19.0166 261.419 19.0786L261.794 19.1392C261.982 19.2012 262.169 19.2618 262.295 19.3237C262.419 19.507 262.482 19.6296 262.482 19.8748C262.482 20.0593 262.419 20.3045 262.232 20.4271C262.044 20.5497 261.794 20.6116 261.544 20.6116C261.043 20.6116 260.73 20.3651 260.543 19.8748L260.793 19.8141Z" fill="#0067B1"/>
</g>
<g filter="url(#filter21_b_1_3931)">
<path d="M263.038 20.6116H262.806V18.0359H263.212L263.966 20.0967L264.604 18.0359H265.068V20.6116H264.779V18.3584L264.024 20.6116H263.792L263.038 18.3584V20.6116Z" fill="#0067B1"/>
</g>
<g filter="url(#filter22_b_1_3931)">
<path d="M217.842 9.34302C220.029 10.1919 222.216 11.102 224.342 12.1334C217.538 14.8637 210.916 18.1392 204.661 21.8996C202.534 20.8082 200.348 19.7156 198.161 18.7455C204.478 15.1063 211.038 11.9521 217.842 9.34302Z" fill="#0067B1"/>
</g>
<g filter="url(#filter23_b_1_3931)">
<path d="M209.445 6.44531C202.403 8.72316 195.606 11.6787 189.11 15.2496C191.173 16.0504 193.237 16.8511 195.241 17.7141C201.493 13.9578 208.109 10.817 214.968 8.35389C213.148 7.67753 211.327 6.99987 209.445 6.44531Z" fill="#0067B1"/>
</g>
</g>
<defs>
<filter id="filter0_b_1_3931" x="206.148" y="-0.742188" width="29.5996" height="15.0188" filterUnits="userSpaceOnUse" color-interpolation-filters="sRGB">
<feFlood flood-opacity="0" result="BackgroundImageFix"/>
<feGaussianBlur in="BackgroundImageFix" stdDeviation="1.50098"/>
<feComposite in2="SourceAlpha" operator="in" result="effect1_backgroundBlur_1_3931"/>
<feBlend mode="normal" in="SourceGraphic" in2="effect1_backgroundBlur_1_3931" result="shape"/>
</filter>
<filter id="filter1_b_1_3931" x="215.199" y="-2.99609" width="29.2764" height="14.053" filterUnits="userSpaceOnUse" color-interpolation-filters="sRGB">
<feFlood flood-opacity="0" result="BackgroundImageFix"/>
<feGaussianBlur in="BackgroundImageFix" stdDeviation="1.50098"/>
<feComposite in2="SourceAlpha" operator="in" result="effect1_backgroundBlur_1_3931"/>
<feBlend mode="normal" in="SourceGraphic" in2="effect1_backgroundBlur_1_3931" result="shape"/>
</filter>
<filter id="filter2_b_1_3931" x="213.259" y="8.2727" width="52.5483" height="32.405" filterUnits="userSpaceOnUse" color-interpolation-filters="sRGB">
<feFlood flood-opacity="0" result="BackgroundImageFix"/>
<feGaussianBlur in="BackgroundImageFix" stdDeviation="1.50098"/>
<feComposite in2="SourceAlpha" operator="in" result="effect1_backgroundBlur_1_3931"/>
<feBlend mode="normal" in="SourceGraphic" in2="effect1_backgroundBlur_1_3931" result="shape"/>
</filter>
<filter id="filter3_b_1_3931" x="201.946" y="3.44336" width="54.811" height="29.1853" filterUnits="userSpaceOnUse" color-interpolation-filters="sRGB">
<feFlood flood-opacity="0" result="BackgroundImageFix"/>
<feGaussianBlur in="BackgroundImageFix" stdDeviation="1.50098"/>
<feComposite in2="SourceAlpha" operator="in" result="effect1_backgroundBlur_1_3931"/>
<feBlend mode="normal" in="SourceGraphic" in2="effect1_backgroundBlur_1_3931" result="shape"/>
</filter>
<filter id="filter4_b_1_3931" x="55.2017" y="5.69702" width="18.2866" height="20.4922" filterUnits="userSpaceOnUse" color-interpolation-filters="sRGB">
<feFlood flood-opacity="0" result="BackgroundImageFix"/>
<feGaussianBlur in="BackgroundImageFix" stdDeviation="1.50098"/>
<feComposite in2="SourceAlpha" operator="in" result="effect1_backgroundBlur_1_3931"/>
<feBlend mode="normal" in="SourceGraphic" in2="effect1_backgroundBlur_1_3931" result="shape"/>
</filter>
<filter id="filter5_b_1_3931" x="68.7773" y="-0.0983891" width="14.731" height="25.9656" filterUnits="userSpaceOnUse" color-interpolation-filters="sRGB">
<feFlood flood-opacity="0" result="BackgroundImageFix"/>
<feGaussianBlur in="BackgroundImageFix" stdDeviation="1.50098"/>
<feComposite in2="SourceAlpha" operator="in" result="effect1_backgroundBlur_1_3931"/>
<feBlend mode="normal" in="SourceGraphic" in2="effect1_backgroundBlur_1_3931" result="shape"/>
</filter>
<filter id="filter6_b_1_3931" x="11.8896" y="5.69702" width="17.9634" height="20.4922" filterUnits="userSpaceOnUse" color-interpolation-filters="sRGB">
<feFlood flood-opacity="0" result="BackgroundImageFix"/>
<feGaussianBlur in="BackgroundImageFix" stdDeviation="1.50098"/>
<feComposite in2="SourceAlpha" operator="in" result="effect1_backgroundBlur_1_3931"/>
<feBlend mode="normal" in="SourceGraphic" in2="effect1_backgroundBlur_1_3931" result="shape"/>
</filter>
<filter id="filter7_b_1_3931" x="25.7881" y="5.69702" width="17.3169" height="20.1704" filterUnits="userSpaceOnUse" color-interpolation-filters="sRGB">
<feFlood flood-opacity="0" result="BackgroundImageFix"/>
<feGaussianBlur in="BackgroundImageFix" stdDeviation="1.50098"/>
<feComposite in2="SourceAlpha" operator="in" result="effect1_backgroundBlur_1_3931"/>
<feBlend mode="normal" in="SourceGraphic" in2="effect1_backgroundBlur_1_3931" result="shape"/>
</filter>
<filter id="filter8_b_1_3931" x="40.0103" y="0.223632" width="18.2866" height="25.6438" filterUnits="userSpaceOnUse" color-interpolation-filters="sRGB">
<feFlood flood-opacity="0" result="BackgroundImageFix"/>
<feGaussianBlur in="BackgroundImageFix" stdDeviation="1.50098"/>
<feComposite in2="SourceAlpha" operator="in" result="effect1_backgroundBlur_1_3931"/>
<feBlend mode="normal" in="SourceGraphic" in2="effect1_backgroundBlur_1_3931" result="shape"/>
</filter>
<filter id="filter9_b_1_3931" x="-2.979" y="0.223632" width="19.9028" height="25.6436" filterUnits="userSpaceOnUse" color-interpolation-filters="sRGB">
<feFlood flood-opacity="0" result="BackgroundImageFix"/>
<feGaussianBlur in="BackgroundImageFix" stdDeviation="1.50098"/>
<feComposite in2="SourceAlpha" operator="in" result="effect1_backgroundBlur_1_3931"/>
<feBlend mode="normal" in="SourceGraphic" in2="effect1_backgroundBlur_1_3931" result="shape"/>
</filter>
<filter id="filter10_b_1_3931" x="159.927" y="5.69702" width="17.9634" height="20.4922" filterUnits="userSpaceOnUse" color-interpolation-filters="sRGB">
<feFlood flood-opacity="0" result="BackgroundImageFix"/>
<feGaussianBlur in="BackgroundImageFix" stdDeviation="1.50098"/>
<feComposite in2="SourceAlpha" operator="in" result="effect1_backgroundBlur_1_3931"/>
<feBlend mode="normal" in="SourceGraphic" in2="effect1_backgroundBlur_1_3931" result="shape"/>
</filter>
<filter id="filter11_b_1_3931" x="116.938" y="5.69702" width="17.9634" height="20.4922" filterUnits="userSpaceOnUse" color-interpolation-filters="sRGB">
<feFlood flood-opacity="0" result="BackgroundImageFix"/>
<feGaussianBlur in="BackgroundImageFix" stdDeviation="1.50098"/>
<feComposite in2="SourceAlpha" operator="in" result="effect1_backgroundBlur_1_3931"/>
<feBlend mode="normal" in="SourceGraphic" in2="effect1_backgroundBlur_1_3931" result="shape"/>
</filter>
<filter id="filter12_b_1_3931" x="140.533" y="6.01904" width="10.5293" height="19.8484" filterUnits="userSpaceOnUse" color-interpolation-filters="sRGB">
<feFlood flood-opacity="0" result="BackgroundImageFix"/>
<feGaussianBlur in="BackgroundImageFix" stdDeviation="1.50098"/>
<feComposite in2="SourceAlpha" operator="in" result="effect1_backgroundBlur_1_3931"/>
<feBlend mode="normal" in="SourceGraphic" in2="effect1_backgroundBlur_1_3931" result="shape"/>
</filter>
<filter id="filter13_b_1_3931" x="140.533" y="0.223632" width="10.5293" height="9.86743" filterUnits="userSpaceOnUse" color-interpolation-filters="sRGB">
<feFlood flood-opacity="0" result="BackgroundImageFix"/>
<feGaussianBlur in="BackgroundImageFix" stdDeviation="1.50098"/>
<feComposite in2="SourceAlpha" operator="in" result="effect1_backgroundBlur_1_3931"/>
<feBlend mode="normal" in="SourceGraphic" in2="effect1_backgroundBlur_1_3931" result="shape"/>
</filter>
<filter id="filter14_b_1_3931" x="146.998" y="5.69702" width="17.6401" height="20.4922" filterUnits="userSpaceOnUse" color-interpolation-filters="sRGB">
<feFlood flood-opacity="0" result="BackgroundImageFix"/>
<feGaussianBlur in="BackgroundImageFix" stdDeviation="1.50098"/>
<feComposite in2="SourceAlpha" operator="in" result="effect1_backgroundBlur_1_3931"/>
<feBlend mode="normal" in="SourceGraphic" in2="effect1_backgroundBlur_1_3931" result="shape"/>
</filter>
<filter id="filter15_b_1_3931" x="80.4131" y="0.223632" width="21.1958" height="25.644" filterUnits="userSpaceOnUse" color-interpolation-filters="sRGB">
<feFlood flood-opacity="0" result="BackgroundImageFix"/>
<feGaussianBlur in="BackgroundImageFix" stdDeviation="1.50098"/>
<feComposite in2="SourceAlpha" operator="in" result="effect1_backgroundBlur_1_3931"/>
<feBlend mode="normal" in="SourceGraphic" in2="effect1_backgroundBlur_1_3931" result="shape"/>
</filter>
<filter id="filter16_b_1_3931" x="130.513" y="5.69702" width="14.731" height="20.1704" filterUnits="userSpaceOnUse" color-interpolation-filters="sRGB">
<feFlood flood-opacity="0" result="BackgroundImageFix"/>
<feGaussianBlur in="BackgroundImageFix" stdDeviation="1.50098"/>
<feComposite in2="SourceAlpha" operator="in" result="effect1_backgroundBlur_1_3931"/>
<feBlend mode="normal" in="SourceGraphic" in2="effect1_backgroundBlur_1_3931" result="shape"/>
</filter>
<filter id="filter17_b_1_3931" x="96.8979" y="5.69702" width="24.1045" height="20.1704" filterUnits="userSpaceOnUse" color-interpolation-filters="sRGB">
<feFlood flood-opacity="0" result="BackgroundImageFix"/>
<feGaussianBlur in="BackgroundImageFix" stdDeviation="1.50098"/>
<feComposite in2="SourceAlpha" operator="in" result="effect1_backgroundBlur_1_3931"/>
<feBlend mode="normal" in="SourceGraphic" in2="effect1_backgroundBlur_1_3931" result="shape"/>
</filter>
<filter id="filter18_b_1_3931" x="173.502" y="16.3218" width="9.88281" height="9.86743" filterUnits="userSpaceOnUse" color-interpolation-filters="sRGB">
<feFlood flood-opacity="0" result="BackgroundImageFix"/>
<feGaussianBlur in="BackgroundImageFix" stdDeviation="1.50098"/>
<feComposite in2="SourceAlpha" operator="in" result="effect1_backgroundBlur_1_3931"/>
<feBlend mode="normal" in="SourceGraphic" in2="effect1_backgroundBlur_1_3931" result="shape"/>
</filter>
<filter id="filter19_b_1_3931" x="174.472" y="17.2878" width="7.62012" height="7.93604" filterUnits="userSpaceOnUse" color-interpolation-filters="sRGB">
<feFlood flood-opacity="0" result="BackgroundImageFix"/>
<feGaussianBlur in="BackgroundImageFix" stdDeviation="1.50098"/>
<feComposite in2="SourceAlpha" operator="in" result="effect1_backgroundBlur_1_3931"/>
<feBlend mode="normal" in="SourceGraphic" in2="effect1_backgroundBlur_1_3931" result="shape"/>
</filter>
<filter id="filter20_b_1_3931" x="257.541" y="15.0339" width="7.94336" height="8.57959" filterUnits="userSpaceOnUse" color-interpolation-filters="sRGB">
<feFlood flood-opacity="0" result="BackgroundImageFix"/>
<feGaussianBlur in="BackgroundImageFix" stdDeviation="1.50098"/>
<feComposite in2="SourceAlpha" operator="in" result="effect1_backgroundBlur_1_3931"/>
<feBlend mode="normal" in="SourceGraphic" in2="effect1_backgroundBlur_1_3931" result="shape"/>
</filter>
<filter id="filter21_b_1_3931" x="259.804" y="15.0339" width="8.2666" height="8.57959" filterUnits="userSpaceOnUse" color-interpolation-filters="sRGB">
<feFlood flood-opacity="0" result="BackgroundImageFix"/>
<feGaussianBlur in="BackgroundImageFix" stdDeviation="1.50098"/>
<feComposite in2="SourceAlpha" operator="in" result="effect1_backgroundBlur_1_3931"/>
<feBlend mode="normal" in="SourceGraphic" in2="effect1_backgroundBlur_1_3931" result="shape"/>
</filter>
<filter id="filter22_b_1_3931" x="195.159" y="6.34106" width="32.1851" height="18.5605" filterUnits="userSpaceOnUse" color-interpolation-filters="sRGB">
<feFlood flood-opacity="0" result="BackgroundImageFix"/>
<feGaussianBlur in="BackgroundImageFix" stdDeviation="1.50098"/>
<feComposite in2="SourceAlpha" operator="in" result="effect1_backgroundBlur_1_3931"/>
<feBlend mode="normal" in="SourceGraphic" in2="effect1_backgroundBlur_1_3931" result="shape"/>
</filter>
<filter id="filter23_b_1_3931" x="186.108" y="3.44336" width="31.8618" height="17.2727" filterUnits="userSpaceOnUse" color-interpolation-filters="sRGB">
<feFlood flood-opacity="0" result="BackgroundImageFix"/>
<feGaussianBlur in="BackgroundImageFix" stdDeviation="1.50098"/>
<feComposite in2="SourceAlpha" operator="in" result="effect1_backgroundBlur_1_3931"/>
<feBlend mode="normal" in="SourceGraphic" in2="effect1_backgroundBlur_1_3931" result="shape"/>
</filter>
<clipPath id="clip0_1_3931">
<rect width="265.173" height="37.6912" fill="white"/>
</clipPath>
</defs>
</svg>
