<svg width="65" height="65" viewBox="0 0 65 65" fill="none" xmlns="http://www.w3.org/2000/svg">
<g clip-path="url(#clip0_1_3932)">
<rect width="65" height="65" fill="url(#paint0_radial_1_3932)"/>
<g filter="url(#filter0_b_1_3932)">
<path d="M24.971 37.5062L24.9117 37.5653C23.9586 38.546 22.8547 39.0651 21.7187 39.0651C19.3467 39.0651 17.6234 37.2682 17.6234 34.7892C17.6234 32.3145 19.3467 30.5162 21.7187 30.5162C22.8547 30.5162 23.9586 31.0368 24.9117 32.0196L24.971 32.0795L26.4971 30.2162L26.4557 30.1665C25.1882 28.6522 23.6642 27.9167 21.7923 27.9167C19.9147 27.9167 18.1971 28.5549 16.9596 29.705C15.6143 30.9517 14.9048 32.709 14.9048 34.7892C14.9048 36.8688 15.6143 38.6311 16.9596 39.8778C18.1971 41.0329 19.9147 41.6667 21.7923 41.6667C23.6642 41.6667 25.1882 40.9305 26.4557 39.4163L26.4971 39.3702L24.971 37.5062Z" fill="white"/>
</g>
<g filter="url(#filter1_b_1_3932)">
<path d="M28.1533 41.2501H30.6374V27.9167H28.1533V41.2501Z" fill="white"/>
</g>
<g filter="url(#filter2_b_1_3932)">
<path d="M41.6586 38.1765C40.9424 38.6151 40.278 38.8373 39.6804 38.8373C38.8152 38.8373 38.4241 38.3757 38.4241 37.3487V30.3436H41.1525V27.8581H38.4241V23.75L35.7993 25.1691V27.8581H33.5352V30.3436H35.7993V37.7959C35.7993 39.8242 36.9903 41.2117 38.769 41.249C39.9757 41.2719 40.7032 40.9092 41.1447 40.6434L41.1724 40.6247L41.8154 38.079L41.6586 38.1765Z" fill="white"/>
</g>
<g filter="url(#filter3_b_1_3932)">
<path d="M43.8857 41.2501H46.3698V27.9167H43.8857V41.2501Z" fill="white"/>
</g>
<g filter="url(#filter4_b_1_3932)">
<path d="M48.3139 25.6514C45.8211 22.1119 41.6804 20 37.4673 20C33.2557 20 29.1136 22.1119 26.6244 25.6514L26.4971 25.8333H29.6373L29.6706 25.7949C31.8089 23.5858 34.5983 22.4164 37.4673 22.4164C40.3356 22.4164 43.125 23.5858 45.2662 25.7949L45.3024 25.8333H48.4397L48.3139 25.6514Z" fill="#EC131C"/>
</g>
</g>
<defs>
<filter id="filter0_b_1_3932" x="-20.7524" y="-7.74039" width="82.9066" height="85.0643" filterUnits="userSpaceOnUse" color-interpolation-filters="sRGB">
<feFlood flood-opacity="0" result="BackgroundImageFix"/>
<feGaussianBlur in="BackgroundImageFix" stdDeviation="17.8286"/>
<feComposite in2="SourceAlpha" operator="in" result="effect1_backgroundBlur_1_3932"/>
<feBlend mode="normal" in="SourceGraphic" in2="effect1_backgroundBlur_1_3932" result="shape"/>
</filter>
<filter id="filter1_b_1_3932" x="-7.50382" y="-7.74039" width="73.7982" height="84.6475" filterUnits="userSpaceOnUse" color-interpolation-filters="sRGB">
<feFlood flood-opacity="0" result="BackgroundImageFix"/>
<feGaussianBlur in="BackgroundImageFix" stdDeviation="17.8286"/>
<feComposite in2="SourceAlpha" operator="in" result="effect1_backgroundBlur_1_3932"/>
<feBlend mode="normal" in="SourceGraphic" in2="effect1_backgroundBlur_1_3932" result="shape"/>
</filter>
<filter id="filter2_b_1_3932" x="-2.12199" y="-11.9071" width="79.5946" height="88.8143" filterUnits="userSpaceOnUse" color-interpolation-filters="sRGB">
<feFlood flood-opacity="0" result="BackgroundImageFix"/>
<feGaussianBlur in="BackgroundImageFix" stdDeviation="17.8286"/>
<feComposite in2="SourceAlpha" operator="in" result="effect1_backgroundBlur_1_3932"/>
<feBlend mode="normal" in="SourceGraphic" in2="effect1_backgroundBlur_1_3932" result="shape"/>
</filter>
<filter id="filter3_b_1_3932" x="8.2286" y="-7.74039" width="73.7982" height="84.6475" filterUnits="userSpaceOnUse" color-interpolation-filters="sRGB">
<feFlood flood-opacity="0" result="BackgroundImageFix"/>
<feGaussianBlur in="BackgroundImageFix" stdDeviation="17.8286"/>
<feComposite in2="SourceAlpha" operator="in" result="effect1_backgroundBlur_1_3932"/>
<feBlend mode="normal" in="SourceGraphic" in2="effect1_backgroundBlur_1_3932" result="shape"/>
</filter>
<filter id="filter4_b_1_3932" x="-9.16007" y="-15.6571" width="93.2572" height="77.1475" filterUnits="userSpaceOnUse" color-interpolation-filters="sRGB">
<feFlood flood-opacity="0" result="BackgroundImageFix"/>
<feGaussianBlur in="BackgroundImageFix" stdDeviation="17.8286"/>
<feComposite in2="SourceAlpha" operator="in" result="effect1_backgroundBlur_1_3932"/>
<feBlend mode="normal" in="SourceGraphic" in2="effect1_backgroundBlur_1_3932" result="shape"/>
</filter>
<radialGradient id="paint0_radial_1_3932" cx="0" cy="0" r="1" gradientUnits="userSpaceOnUse" gradientTransform="translate(32.5 36.7945) scale(32.5)">
<stop stop-color="#20BEF1"/>
<stop offset="1" stop-color="#084B86"/>
</radialGradient>
<clipPath id="clip0_1_3932">
<rect width="65" height="65" fill="white"/>
</clipPath>
</defs>
</svg>
