<svg width="184" height="40" viewBox="0 0 184 40" fill="none" xmlns="http://www.w3.org/2000/svg">
<g clip-path="url(#clip0_1_3927)">
<g filter="url(#filter0_b_1_3927)">
<path d="M182.374 26.5491C182.256 26.5491 182.145 26.527 182.043 26.4834C181.939 26.4398 181.849 26.3802 181.775 26.3061C181.7 26.2324 181.64 26.1445 181.596 26.0449C181.553 25.946 181.531 25.8385 181.531 25.7255C181.531 25.6111 181.552 25.5065 181.596 25.4058C181.64 25.3046 181.7 25.2163 181.775 25.1434C181.85 25.0685 181.94 25.0089 182.043 24.9665C182.144 24.9237 182.255 24.902 182.374 24.902C182.492 24.902 182.599 24.9231 182.701 24.9665C182.801 25.0089 182.891 25.0684 182.968 25.1434C183.042 25.2161 183.102 25.3044 183.147 25.4058C183.19 25.506 183.212 25.6136 183.212 25.7255C183.212 25.8376 183.19 25.9451 183.147 26.0449C183.102 26.1448 183.042 26.2326 182.968 26.3061C182.892 26.3802 182.802 26.4399 182.701 26.4834C182.599 26.527 182.49 26.5491 182.374 26.5491ZM182.374 25.0856C182.284 25.0856 182.199 25.1023 182.121 25.1351C182.041 25.1692 181.973 25.2137 181.916 25.2712C181.859 25.3291 181.813 25.3977 181.78 25.475C181.747 25.552 181.731 25.6363 181.731 25.7255C181.731 25.8144 181.747 25.8987 181.78 25.9761C181.813 26.0527 181.858 26.1213 181.916 26.1799C181.974 26.2371 182.043 26.2831 182.121 26.3168C182.2 26.3504 182.285 26.3675 182.374 26.3675C182.462 26.3675 182.546 26.3504 182.623 26.3168C182.699 26.2832 182.767 26.2371 182.825 26.1799C182.883 26.1215 182.929 26.053 182.961 25.9761C182.994 25.8971 183.011 25.8128 183.011 25.7255C183.011 25.6379 182.994 25.5536 182.961 25.475C182.928 25.3975 182.883 25.3289 182.825 25.2712C182.767 25.2137 182.701 25.1691 182.623 25.1351C182.547 25.1023 182.463 25.0856 182.374 25.0856ZM173.162 26.4438C172.165 26.4438 171.227 26.2682 170.377 25.9218C169.527 25.5762 168.784 25.093 168.167 24.4857C167.551 23.8779 167.061 23.1504 166.71 22.3233C166.36 21.4955 166.182 20.5837 166.182 19.6132C166.182 18.6429 166.36 17.7308 166.71 16.9023C167.061 16.0759 167.551 15.3488 168.167 14.7411C168.784 14.1335 169.527 13.6501 170.377 13.3041C171.227 12.9577 172.165 12.7821 173.162 12.7821C174.161 12.7821 175.098 12.9577 175.948 13.3041C176.799 13.6505 177.544 14.134 178.164 14.7411C178.786 15.3495 179.279 16.0766 179.628 16.9023C179.979 17.7296 180.157 18.6417 180.157 19.6132C180.157 20.5849 179.979 21.4967 179.628 22.3233C179.279 23.1497 178.786 23.8772 178.164 24.4857C177.544 25.0925 176.799 25.5757 175.948 25.9218C175.098 26.2682 174.161 26.4438 173.162 26.4438ZM173.162 15.4522C172.587 15.4522 172.044 15.5549 171.55 15.7573C171.054 15.9601 170.621 16.2472 170.262 16.6106C169.901 16.9767 169.614 17.4193 169.408 17.9261C169.201 18.4338 169.096 19.0015 169.096 19.6132C169.096 20.2247 169.201 20.7925 169.408 21.3007C169.614 21.8079 169.901 22.2501 170.262 22.6149C170.623 22.9799 171.056 23.2673 171.55 23.469C172.044 23.6712 172.586 23.7737 173.162 23.7737C173.739 23.7737 174.282 23.6712 174.775 23.469C175.269 23.2673 175.705 22.9799 176.07 22.6149C176.434 22.2506 176.724 21.8084 176.931 21.3007C177.138 20.7912 177.243 20.2235 177.243 19.6132C177.243 19.0027 177.138 18.4351 176.931 17.9261C176.724 17.4189 176.435 16.9763 176.07 16.6106C175.706 16.2471 175.271 15.9601 174.775 15.7573C174.281 15.5549 173.738 15.4522 173.162 15.4522ZM150.602 26.4284C148.979 26.4284 147.832 26.0121 147.096 25.1556C146.422 24.3722 146.094 23.2163 146.094 21.622V15.7027H143.46V13.1232H146.094L146.094 9.18628H148.945L148.946 13.1232H153.562V15.7027H148.946V21.5678C148.946 22.2705 149.079 22.7856 149.353 23.1426C149.662 23.5446 150.142 23.7401 150.819 23.7401C151.593 23.7401 152.527 23.4661 153.318 23.0071L154.133 25.424C153.256 26.0344 151.87 26.4284 150.602 26.4284ZM135.619 26.4284C133.436 26.4284 131.492 25.8463 129.998 24.7449L131.328 22.5453C132.132 23.1645 133.532 23.9027 135.646 23.9027C137.555 23.9027 138.606 23.3436 138.606 22.3284C138.606 21.6108 137.903 21.192 136.325 20.9706L134.994 20.7806C132.063 20.3694 130.514 19.0454 130.514 16.9517C130.514 15.6924 131.022 14.6397 131.984 13.9073C132.937 13.1813 134.297 12.7975 135.918 12.7975C136.954 12.7975 137.934 12.9129 138.831 13.1404C139.742 13.3716 140.543 13.7129 141.213 14.1549L139.991 16.4361C139.325 16.0225 137.724 15.3224 135.945 15.3224C134.397 15.3224 133.474 15.891 133.474 16.8433C133.474 17.7496 134.561 17.9708 135.674 18.1196L137.004 18.3092C138.459 18.519 139.578 18.9359 140.331 19.5483C141.133 20.2002 141.539 21.0898 141.539 22.1923C141.539 23.4299 141.002 24.4828 139.985 25.237C138.933 26.0164 137.424 26.4284 135.619 26.4284ZM122.123 26.4284C121.164 26.4284 120.263 26.2654 119.445 25.9439C118.639 25.6274 117.931 25.1647 117.34 24.5684C116.116 23.3343 115.469 21.6208 115.469 19.6132C115.469 18.6197 115.629 17.6871 115.944 16.8412C116.252 16.0174 116.699 15.2929 117.275 14.688C117.85 14.0844 118.538 13.6152 119.319 13.2935C120.118 12.9644 120.998 12.7975 121.933 12.7975C123.718 12.7975 125.252 13.4512 126.369 14.688C127.486 15.924 128.084 17.6271 128.097 19.6132C128.097 19.9881 128.07 20.3424 128.044 20.685L128.043 20.6987H118.402C118.884 23.463 121.042 23.8758 122.285 23.8758C123.606 23.8758 124.982 23.381 126.061 22.5184L127.445 24.6091C125.996 25.8335 124.255 26.4284 122.123 26.4284ZM121.878 15.3224C120.005 15.3224 118.748 16.4705 118.429 18.4722H125.164C124.862 16.4412 123.695 15.3224 121.878 15.3224ZM105.804 26.4284C104.028 26.4284 102.391 25.7461 101.194 24.5072C99.9813 23.2523 99.3134 21.5143 99.3134 19.6132C99.3134 17.7117 99.9813 15.9735 101.194 14.7186C102.391 13.4798 104.028 12.7975 105.804 12.7975C106.696 12.7975 107.506 12.9699 108.21 13.3099C108.873 13.6294 109.442 14.0964 109.904 14.6979V13.1232H112.729V19.6132V26.1027H109.904V24.528C109.442 25.1298 108.872 25.5966 108.21 25.9159C107.506 26.256 106.696 26.4284 105.804 26.4284ZM106.157 15.4585C103.838 15.4585 102.219 17.167 102.219 19.6132C102.219 22.0591 103.838 23.7674 106.157 23.7674C108.423 23.7674 110.068 22.0203 110.068 19.6132C110.068 17.2058 108.423 15.4585 106.157 15.4585ZM182.233 26.1055H182.233L182.07 26.1051V25.3401H182.423C182.521 25.3401 182.597 25.3622 182.65 25.4058C182.703 25.4486 182.73 25.5085 182.73 25.5839C182.73 25.6466 182.709 25.6994 182.667 25.7406C182.624 25.7817 182.564 25.8066 182.485 25.8166L182.735 26.1044L182.54 26.1051L182.308 25.8182H182.233V26.1055ZM182.233 25.483V25.6872H182.421C182.465 25.6872 182.498 25.679 182.524 25.6622C182.55 25.6452 182.563 25.6188 182.563 25.5839C182.563 25.5506 182.55 25.5253 182.524 25.5087C182.498 25.4916 182.464 25.483 182.421 25.483H182.233ZM87.9344 26.1031H87.9339L85.083 26.1027V18.8802C85.083 16.6417 84.1064 15.4585 82.2589 15.4585C80.2692 15.4585 79.0814 16.7476 79.0814 18.9067V26.1027H76.23V13.1232H79.0545V14.7252C79.97 13.41 81.1782 12.7975 82.8561 12.7975C83.818 12.7975 84.6769 13.0042 85.4089 13.4119C86.1032 13.7986 86.6881 14.3683 87.1472 15.1052C88.1533 13.5732 89.647 12.7965 91.5861 12.7965C91.6271 12.7965 91.6681 12.7968 91.709 12.7975C93.2444 12.8106 94.5357 13.3082 95.4432 14.2365C96.3404 15.1542 96.8146 16.4405 96.8146 17.9561V26.1023L93.9632 26.1027V18.8802C93.9632 17.7712 93.7268 16.918 93.2604 16.3444C92.7825 15.7566 92.0597 15.4585 91.1118 15.4585C89.1222 15.4585 87.9344 16.7476 87.9344 18.9067V26.1027V26.1031ZM159.942 26.1027H159.941H157.118V13.1232H159.915V14.6979C160.737 13.4191 161.857 12.7975 163.337 12.7975C163.847 12.7975 164.68 12.8899 165.347 13.1501L164.478 15.8116C163.941 15.592 163.364 15.4851 162.712 15.4851C160.9 15.4851 159.942 16.6401 159.942 18.8252V26.1027Z" fill="black"/>
</g>
<g filter="url(#filter1_b_1_3927)">
<path d="M23.125 34.8695H40.2037V4.18188H23.125V34.8695Z" fill="#7673C0"/>
</g>
<g filter="url(#filter2_b_1_3927)">
<path d="M24.2091 19.5258C24.2091 13.3 27.1245 7.75572 31.6643 4.18202C28.3439 1.56843 24.1549 0.00927734 19.6015 0.00927734C8.82209 0.00927734 0.0834961 8.74727 0.0834961 19.5258C0.0834961 30.3044 8.82209 39.0424 19.6015 39.0424C24.1549 39.0424 28.3439 37.4832 31.6643 34.8696C27.1245 31.2959 24.2091 25.7516 24.2091 19.5258Z" fill="#EB001B"/>
</g>
<g filter="url(#filter3_b_1_3927)">
<path d="M61.9238 31.6199L61.7845 31.6194V30.8616H61.9824L62.2095 31.3832L62.4375 30.8616H62.6354V31.619L62.4953 31.6194V31.0468L62.2824 31.5407H62.1375L61.9238 31.048V31.6194V31.6199ZM61.3824 31.6194H61.2439V30.991H60.9902V30.8632H61.6353V30.991H61.3824V31.619V31.6194Z" fill="#00A1DF"/>
</g>
<g filter="url(#filter4_b_1_3927)">
<path d="M63.2443 19.5258C63.2443 30.3044 54.5058 39.0424 43.7263 39.0424C39.173 39.0424 34.9839 37.4832 31.6641 34.8696C36.2039 31.2959 39.1187 25.7516 39.1187 19.5258C39.1187 13.3 36.2039 7.75572 31.6641 4.18202C34.9839 1.56843 39.173 0.00927734 43.7263 0.00927734C54.5058 0.00927734 63.2443 8.74727 63.2443 19.5258Z" fill="#00A1DF"/>
</g>
</g>
<defs>
<filter id="filter0_b_1_3927" x="72.932" y="5.88834" width="113.578" height="23.9587" filterUnits="userSpaceOnUse" color-interpolation-filters="sRGB">
<feFlood flood-opacity="0" result="BackgroundImageFix"/>
<feGaussianBlur in="BackgroundImageFix" stdDeviation="1.64897"/>
<feComposite in2="SourceAlpha" operator="in" result="effect1_backgroundBlur_1_3927"/>
<feBlend mode="normal" in="SourceGraphic" in2="effect1_backgroundBlur_1_3927" result="shape"/>
</filter>
<filter id="filter1_b_1_3927" x="19.8271" y="0.88395" width="23.6745" height="37.2834" filterUnits="userSpaceOnUse" color-interpolation-filters="sRGB">
<feFlood flood-opacity="0" result="BackgroundImageFix"/>
<feGaussianBlur in="BackgroundImageFix" stdDeviation="1.64897"/>
<feComposite in2="SourceAlpha" operator="in" result="effect1_backgroundBlur_1_3927"/>
<feBlend mode="normal" in="SourceGraphic" in2="effect1_backgroundBlur_1_3927" result="shape"/>
</filter>
<filter id="filter2_b_1_3927" x="-3.21444" y="-3.28866" width="38.1769" height="45.6291" filterUnits="userSpaceOnUse" color-interpolation-filters="sRGB">
<feFlood flood-opacity="0" result="BackgroundImageFix"/>
<feGaussianBlur in="BackgroundImageFix" stdDeviation="1.64897"/>
<feComposite in2="SourceAlpha" operator="in" result="effect1_backgroundBlur_1_3927"/>
<feBlend mode="normal" in="SourceGraphic" in2="effect1_backgroundBlur_1_3927" result="shape"/>
</filter>
<filter id="filter3_b_1_3927" x="57.6923" y="27.5636" width="8.24089" height="7.35417" filterUnits="userSpaceOnUse" color-interpolation-filters="sRGB">
<feFlood flood-opacity="0" result="BackgroundImageFix"/>
<feGaussianBlur in="BackgroundImageFix" stdDeviation="1.64897"/>
<feComposite in2="SourceAlpha" operator="in" result="effect1_backgroundBlur_1_3927"/>
<feBlend mode="normal" in="SourceGraphic" in2="effect1_backgroundBlur_1_3927" result="shape"/>
</filter>
<filter id="filter4_b_1_3927" x="28.3661" y="-3.28866" width="38.1759" height="45.6291" filterUnits="userSpaceOnUse" color-interpolation-filters="sRGB">
<feFlood flood-opacity="0" result="BackgroundImageFix"/>
<feGaussianBlur in="BackgroundImageFix" stdDeviation="1.64897"/>
<feComposite in2="SourceAlpha" operator="in" result="effect1_backgroundBlur_1_3927"/>
<feBlend mode="normal" in="SourceGraphic" in2="effect1_backgroundBlur_1_3927" result="shape"/>
</filter>
<clipPath id="clip0_1_3927">
<rect width="183.365" height="39.1355" fill="white"/>
</clipPath>
</defs>
</svg>
