<svg width="164" height="40" viewBox="0 0 164 40" fill="none" xmlns="http://www.w3.org/2000/svg">
<g clip-path="url(#clip0_1_3925)">
<g filter="url(#filter0_b_1_3925)">
<path d="M157.02 9.78359L153.35 33.1326C153.278 33.5852 153.628 33.9939 154.086 33.9939H157.777C158.389 33.9939 158.909 33.549 159.004 32.9453L162.623 10.0155C162.695 9.56295 162.345 9.15381 161.887 9.15381H157.756C157.389 9.15381 157.077 9.42107 157.02 9.78359Z" fill="#009CDE"/>
</g>
<g filter="url(#filter1_b_1_3925)">
<path d="M138.838 34.3913C137.696 34.3913 136.674 34.2191 135.798 33.8793C134.869 33.5187 134.077 32.9585 133.445 32.2141C132.023 30.5413 131.442 28.1437 131.851 25.6359C132.631 20.6451 136.651 17.0227 141.409 17.0227C142.542 17.0227 143.537 17.155 144.364 17.4158C145.327 17.7193 146.035 18.1913 146.467 18.8186L146.766 19.2524L146.955 18.055C147.012 17.6905 147.322 17.426 147.691 17.426H151.973C152.191 17.426 152.398 17.5213 152.54 17.6875C152.681 17.8532 152.743 18.0717 152.709 18.2869L150.394 32.9454C150.298 33.5529 149.782 33.9939 149.167 33.9939H145.311C145.092 33.9939 144.886 33.8986 144.744 33.7325C144.602 33.5665 144.541 33.3476 144.575 33.132L144.766 31.9431C144.766 31.9431 144.764 31.9451 144.763 31.9466C144.666 32.0538 144.135 32.6162 143.232 33.1666C142.314 33.7253 140.808 34.3913 138.838 34.3913ZM142.424 21.5655C139.985 21.5655 138.011 23.2598 137.626 25.6857C137.425 26.8754 137.663 27.9436 138.297 28.6938C138.936 29.4498 139.93 29.8494 141.172 29.8494C143.65 29.8494 145.592 28.2061 146.005 25.7602C146.193 24.5761 145.935 23.5007 145.28 22.7319C144.628 21.9689 143.641 21.5655 142.424 21.5655Z" fill="#009CDE"/>
</g>
<g filter="url(#filter2_b_1_3925)">
<path d="M116.783 33.9939H112.195C111.977 33.9939 111.77 33.8986 111.628 33.7324C111.486 33.5665 111.425 33.3479 111.459 33.1325L115.075 10.2027C115.171 9.59493 115.687 9.15381 116.302 9.15381H125.244C128.236 9.15381 130.49 9.94375 131.762 11.4382C132.919 12.7973 133.303 14.7391 132.903 17.2098C132.682 18.6157 132.299 19.8645 131.766 20.9215C131.233 21.9786 130.534 22.8726 129.689 23.5787C128.844 24.2853 127.83 24.8229 126.675 25.1767C125.519 25.5308 124.189 25.7104 122.724 25.7104H119.895C119.28 25.7104 118.764 26.1515 118.668 26.7593L117.642 33.2595C117.576 33.685 117.214 33.9939 116.783 33.9939ZM121.299 14.1161C120.929 14.1161 120.62 14.3806 120.563 14.7451L119.616 20.7383H120.965C123.336 20.7383 125.788 20.7383 126.277 17.5283C126.454 16.4012 126.312 15.5858 125.842 15.0358C125.056 14.1161 123.531 14.1161 121.917 14.1161H121.299Z" fill="#009CDE"/>
</g>
<g filter="url(#filter3_b_1_3925)">
<path d="M110.998 17.4258H106.694C106.282 17.4258 105.897 17.6299 105.666 17.9704L99.7293 26.7146L97.2129 18.312C97.0558 17.7863 96.5719 17.4258 96.0229 17.4258H91.7921C91.2812 17.4258 90.9215 17.9282 91.0863 18.4117L95.8256 32.3224L91.368 38.6122C91.018 39.1057 91.3713 39.7885 91.9761 39.7885H96.2761C96.6836 39.7885 97.065 39.5888 97.2973 39.2536L111.611 18.5961C111.953 18.1018 111.6 17.4258 110.998 17.4258Z" fill="#003087"/>
</g>
<g filter="url(#filter4_b_1_3925)">
<path d="M75.0566 34.3913C73.9151 34.3913 72.8924 34.2191 72.017 33.8793C71.0879 33.5187 70.2961 32.9585 69.6637 32.2141C68.2412 30.5409 67.6603 28.1432 68.0697 25.6359C68.8503 20.6451 72.8702 17.0227 77.6282 17.0227C78.7615 17.0227 79.7557 17.155 80.5832 17.4158C81.5464 17.7193 82.2537 18.1913 82.6856 18.8186L82.9852 19.2524L83.1737 18.055C83.2309 17.6905 83.5405 17.426 83.9099 17.426H88.192C88.4104 17.426 88.617 17.5212 88.7588 17.6871C88.9004 17.8528 88.9622 18.0715 88.9282 18.2869L86.6133 32.9454C86.5172 33.5529 86.0011 33.9939 85.3863 33.9939H81.5299C81.3115 33.9939 81.1048 33.8985 80.963 33.7324C80.8212 33.5663 80.7595 33.3475 80.7937 33.132L80.9846 31.9431C80.9846 31.9431 80.9831 31.9451 80.9817 31.9466C80.8846 32.0538 80.3544 32.6162 79.4507 33.1666C78.5334 33.7253 77.0265 34.3913 75.0566 34.3913ZM78.6434 21.5655C76.2041 21.5655 74.2309 23.2598 73.8449 25.6857C73.6443 26.8755 73.8827 27.9438 74.516 28.6938C75.1546 29.4498 76.1488 29.8494 77.3913 29.8494C79.8686 29.8494 81.8109 28.2061 82.2244 25.7602C82.412 24.5761 82.1542 23.5007 81.4985 22.7319C80.8466 21.9689 79.8594 21.5655 78.6434 21.5655Z" fill="#003087"/>
</g>
<g filter="url(#filter5_b_1_3925)">
<path d="M52.6839 33.9939H48.4143C48.196 33.9939 47.9895 33.8987 47.8477 33.7328C47.7059 33.5669 47.6441 33.3481 47.6781 33.1325L51.294 10.2027C51.3902 9.59493 51.9062 9.15381 52.521 9.15381H61.464C64.4556 9.15381 66.7093 9.94375 67.9812 11.4382C69.1382 12.7976 69.5222 14.7394 69.1225 17.2098C68.9014 18.6157 68.5188 19.8645 67.9855 20.9215C67.4521 21.9786 66.7534 22.8726 65.9088 23.5787C65.0636 24.2853 64.0494 24.8229 62.8943 25.1767C61.738 25.5308 60.4089 25.7104 58.944 25.7104H56.1141C55.4988 25.7104 54.9827 26.1515 54.8871 26.7593L53.9113 32.9455C53.8156 33.553 53.2994 33.9939 52.6839 33.9939ZM57.5178 14.1161C57.1493 14.1161 56.8395 14.3806 56.7812 14.7451L55.8355 20.7383H57.1845C59.5553 20.7383 62.0068 20.7383 62.4958 17.5283C62.6739 16.4015 62.5316 15.5861 62.0606 15.0358C61.2751 14.1161 59.7503 14.1161 58.1361 14.1161H57.5178Z" fill="#003087"/>
</g>
<g filter="url(#filter6_b_1_3925)">
<path d="M30.135 10.3545C30.6165 7.28519 30.1318 5.19649 28.4716 3.30473C26.6437 1.22206 23.3416 0.329834 19.1168 0.329834H6.85272C5.98943 0.329834 5.25435 0.95801 5.11971 1.81085L0.0131144 34.1935C-0.0877635 34.8325 0.406177 35.4101 1.05284 35.4101H8.62391L8.10144 38.7238C8.01342 39.2828 8.44507 39.7884 9.01095 39.7884H15.3924C16.148 39.7884 16.791 39.2386 16.9088 38.4927L16.9715 38.1683L18.1736 30.545L18.2511 30.1238C18.3689 29.3775 19.0119 28.8281 19.7671 28.8281H20.7216C26.9041 28.8281 31.7451 26.3162 33.1594 19.0521C33.7506 16.017 33.4451 13.4834 31.8821 11.7021C31.4091 11.1636 30.8211 10.7179 30.135 10.3545Z" fill="#009CDE"/>
</g>
<g filter="url(#filter7_b_1_3925)">
<path d="M30.135 10.3545C30.6165 7.28519 30.1318 5.19649 28.4716 3.30473C26.6437 1.22206 23.3417 0.329834 19.1168 0.329834H6.85272C5.98943 0.329834 5.25435 0.95801 5.11971 1.81085L0.0131144 34.1935C-0.0877635 34.8325 0.406177 35.41 1.05284 35.41H8.62391L10.5257 23.3505L10.4666 23.7287C10.6013 22.8759 11.3303 22.2473 12.1936 22.2473H15.7923C22.8594 22.2473 28.3928 19.3761 30.0096 11.0727C30.0575 10.8272 30.0985 10.5888 30.135 10.3545Z" fill="#012169"/>
</g>
<g filter="url(#filter8_b_1_3925)">
<path d="M12.5686 10.3955C12.6498 9.88229 12.9789 9.46231 13.4222 9.2497C13.624 9.15324 13.8491 9.09939 14.085 9.09939H23.6981C24.8371 9.09939 25.899 9.17414 26.8696 9.33048C27.1473 9.37509 27.417 9.42653 27.6794 9.48481C27.9414 9.54269 28.1963 9.60779 28.4426 9.68014C28.566 9.71591 28.687 9.75368 28.8063 9.79347C29.283 9.95142 29.7267 10.1383 30.135 10.3545C30.6165 7.28519 30.1318 5.19649 28.4716 3.30473C26.6437 1.22206 23.3417 0.329834 19.1168 0.329834H6.85272C5.98943 0.329834 5.25435 0.95801 5.11971 1.81085L0.0131144 34.1935C-0.0877635 34.8325 0.406177 35.41 1.05284 35.41H8.62391L12.5686 10.3955Z" fill="#003087"/>
</g>
</g>
<defs>
<filter id="filter0_b_1_3925" x="143.371" y="-0.815703" width="29.231" height="44.7791" filterUnits="userSpaceOnUse" color-interpolation-filters="sRGB">
<feFlood flood-opacity="0" result="BackgroundImageFix"/>
<feGaussianBlur in="BackgroundImageFix" stdDeviation="4.98476"/>
<feComposite in2="SourceAlpha" operator="in" result="effect1_backgroundBlur_1_3925"/>
<feBlend mode="normal" in="SourceGraphic" in2="effect1_backgroundBlur_1_3925" result="shape"/>
</filter>
<filter id="filter1_b_1_3925" x="121.753" y="7.05319" width="40.9346" height="37.3077" filterUnits="userSpaceOnUse" color-interpolation-filters="sRGB">
<feFlood flood-opacity="0" result="BackgroundImageFix"/>
<feGaussianBlur in="BackgroundImageFix" stdDeviation="4.98476"/>
<feComposite in2="SourceAlpha" operator="in" result="effect1_backgroundBlur_1_3925"/>
<feBlend mode="normal" in="SourceGraphic" in2="effect1_backgroundBlur_1_3925" result="shape"/>
</filter>
<filter id="filter2_b_1_3925" x="101.48" y="-0.815703" width="41.5455" height="44.7791" filterUnits="userSpaceOnUse" color-interpolation-filters="sRGB">
<feFlood flood-opacity="0" result="BackgroundImageFix"/>
<feGaussianBlur in="BackgroundImageFix" stdDeviation="4.98476"/>
<feComposite in2="SourceAlpha" operator="in" result="effect1_backgroundBlur_1_3925"/>
<feBlend mode="normal" in="SourceGraphic" in2="effect1_backgroundBlur_1_3925" result="shape"/>
</filter>
<filter id="filter3_b_1_3925" x="81.0764" y="7.45627" width="40.6378" height="42.3018" filterUnits="userSpaceOnUse" color-interpolation-filters="sRGB">
<feFlood flood-opacity="0" result="BackgroundImageFix"/>
<feGaussianBlur in="BackgroundImageFix" stdDeviation="4.98476"/>
<feComposite in2="SourceAlpha" operator="in" result="effect1_backgroundBlur_1_3925"/>
<feBlend mode="normal" in="SourceGraphic" in2="effect1_backgroundBlur_1_3925" result="shape"/>
</filter>
<filter id="filter4_b_1_3925" x="57.9719" y="7.05319" width="40.9351" height="37.3077" filterUnits="userSpaceOnUse" color-interpolation-filters="sRGB">
<feFlood flood-opacity="0" result="BackgroundImageFix"/>
<feGaussianBlur in="BackgroundImageFix" stdDeviation="4.98476"/>
<feComposite in2="SourceAlpha" operator="in" result="effect1_backgroundBlur_1_3925"/>
<feBlend mode="normal" in="SourceGraphic" in2="effect1_backgroundBlur_1_3925" result="shape"/>
</filter>
<filter id="filter5_b_1_3925" x="37.6994" y="-0.815703" width="41.5455" height="44.7791" filterUnits="userSpaceOnUse" color-interpolation-filters="sRGB">
<feFlood flood-opacity="0" result="BackgroundImageFix"/>
<feGaussianBlur in="BackgroundImageFix" stdDeviation="4.98476"/>
<feComposite in2="SourceAlpha" operator="in" result="effect1_backgroundBlur_1_3925"/>
<feBlend mode="normal" in="SourceGraphic" in2="effect1_backgroundBlur_1_3925" result="shape"/>
</filter>
<filter id="filter6_b_1_3925" x="-9.96951" y="-9.63968" width="53.379" height="59.3975" filterUnits="userSpaceOnUse" color-interpolation-filters="sRGB">
<feFlood flood-opacity="0" result="BackgroundImageFix"/>
<feGaussianBlur in="BackgroundImageFix" stdDeviation="4.98476"/>
<feComposite in2="SourceAlpha" operator="in" result="effect1_backgroundBlur_1_3925"/>
<feBlend mode="normal" in="SourceGraphic" in2="effect1_backgroundBlur_1_3925" result="shape"/>
</filter>
<filter id="filter7_b_1_3925" x="-9.96951" y="-9.63968" width="50.251" height="55.0193" filterUnits="userSpaceOnUse" color-interpolation-filters="sRGB">
<feFlood flood-opacity="0" result="BackgroundImageFix"/>
<feGaussianBlur in="BackgroundImageFix" stdDeviation="4.98476"/>
<feComposite in2="SourceAlpha" operator="in" result="effect1_backgroundBlur_1_3925"/>
<feBlend mode="normal" in="SourceGraphic" in2="effect1_backgroundBlur_1_3925" result="shape"/>
</filter>
<filter id="filter8_b_1_3925" x="-9.96951" y="-9.63968" width="50.251" height="55.0193" filterUnits="userSpaceOnUse" color-interpolation-filters="sRGB">
<feFlood flood-opacity="0" result="BackgroundImageFix"/>
<feGaussianBlur in="BackgroundImageFix" stdDeviation="4.98476"/>
<feComposite in2="SourceAlpha" operator="in" result="effect1_backgroundBlur_1_3925"/>
<feBlend mode="normal" in="SourceGraphic" in2="effect1_backgroundBlur_1_3925" result="shape"/>
</filter>
<clipPath id="clip0_1_3925">
<rect width="163.5" height="39.878" fill="white"/>
</clipPath>
</defs>
</svg>
