<svg width="82" height="53" viewBox="0 0 82 53" fill="none" xmlns="http://www.w3.org/2000/svg">
<g clip-path="url(#clip0_1_3928)">
<g filter="url(#filter0_b_1_3928)">
<path d="M57.522 0.126191L49.4932 0.123779L57.4761 0.128948C57.4913 0.128948 57.5064 0.126191 57.522 0.126191Z" fill="#CD4045"/>
</g>
<g filter="url(#filter1_b_1_3928)">
<path d="M18.7415 47.0694L28.2392 5.14291C28.8649 2.40072 32.345 0.177577 35.1109 0.12113L16.6858 0.115967C13.9045 0.115967 10.3385 2.36493 9.70245 5.14291L0.204694 47.0694C0.147095 47.3252 0.115018 47.5761 0.0957031 47.8212V48.599C0.281609 50.6022 1.81473 52.0606 4.01801 52.094H22.5548C19.8183 52.0527 18.1138 49.8168 18.7415 47.0694Z" fill="#D8232A"/>
</g>
<g filter="url(#filter2_b_1_3928)">
<path d="M49.4935 0.123892L35.2212 0.115967C35.1853 0.115967 35.1481 0.118723 35.1108 0.121135L49.4935 0.123892Z" fill="#2D4C6C"/>
</g>
<g filter="url(#filter3_b_1_3928)">
<path d="M41.1622 47.0694L50.6572 5.14287C51.2829 2.42099 54.7182 0.213338 57.4764 0.12901L49.4935 0.123847L35.1108 0.121094C32.345 0.177541 28.8648 2.40069 28.2392 5.14287L18.7414 47.0694C18.1137 49.8168 19.8182 52.0526 22.5547 52.0939H44.9766C42.2387 52.0526 40.5366 49.8168 41.1622 47.0694Z" fill="#0067A5"/>
</g>
<g filter="url(#filter4_b_1_3928)">
<path d="M77.6053 0.131384L57.5274 0.126221C57.525 0.126221 57.5222 0.126221 57.5222 0.126221C57.5067 0.126221 57.4915 0.128974 57.4764 0.128974C54.7181 0.213302 51.2828 2.42096 50.6572 5.14284L41.1622 47.0694C40.5365 49.8167 42.2386 52.0526 44.9765 52.0939H66.0694C68.7659 51.9607 71.3862 49.7785 72.0012 47.0873L81.4965 5.16074C82.1322 2.38516 80.389 0.131384 77.6053 0.131384Z" fill="#009294"/>
</g>
<g filter="url(#filter5_b_1_3928)">
<path d="M45.7367 40.9857C45.4286 40.9858 45.1933 40.9059 45.0375 40.7484C44.8726 40.5819 44.7909 40.3228 44.7944 39.9782L44.9534 35.8543H47.0325L46.9938 36.7519H47.5474C47.8248 36.7519 47.9655 36.6625 47.9655 36.4863L48.1297 35.9053H49.8578L49.6271 36.7519C49.5299 37.1031 49.35 37.3745 49.0922 37.5586C48.8349 37.7423 48.4921 37.8446 48.0734 37.8626H46.966L46.9609 39.3974C46.9539 39.4827 46.9765 39.5544 47.0281 39.6105C47.1246 39.7153 47.3245 39.7685 47.622 39.7685H48.663L48.327 40.9835H45.8301C45.7984 40.985 45.7669 40.9857 45.7367 40.9857ZM39.3474 40.9835H35.4442C35.1072 40.9835 34.8682 40.8941 34.7339 40.718C34.5746 40.5092 34.5574 40.1716 34.6827 39.7148L35.4237 37.0183H33.8291L34.2341 35.537H35.8286L36.2196 34.1071H34.6956L35.1008 32.6258H41.4748L41.0685 34.1071H38.5051L38.1139 35.537H40.6083L40.2021 37.0183H37.7077L37.1282 39.1311C37.0693 39.276 37.0665 39.3897 37.1198 39.4689C37.1838 39.5639 37.3304 39.6121 37.5555 39.6121C37.5977 39.6121 37.6433 39.6104 37.6911 39.6071H39.724L39.3474 40.9835ZM43.4951 40.9297H41.2071C40.6694 40.9297 40.3197 40.8288 40.1679 40.6299C40.073 40.5054 40.0529 40.3395 40.1084 40.1368L43.1358 28.9882H45.2742L45.1743 29.8554L45.176 29.8536C45.3023 29.7616 46.4398 28.9546 47.4681 28.9546H51.5033L49.9602 34.5289C49.8966 34.8459 49.7258 35.0869 49.4526 35.2451C49.1798 35.4031 48.7968 35.4832 48.3142 35.4832H43.7407L42.6694 39.3974C42.6396 39.4988 42.6447 39.5771 42.6844 39.6302C42.7264 39.6863 42.8076 39.7148 42.9257 39.7148H43.8255L43.4951 40.9297ZM44.4329 32.9431L44.1306 34.0531H47.3865C47.4203 34.0577 47.4526 34.06 47.4826 34.06C47.6908 34.06 47.8041 33.951 47.8196 33.736L48.04 32.9431H44.4329ZM45.0897 30.564L44.6589 32.0681L44.6598 32.0669C44.7246 32.0227 45.3201 31.6349 46.2609 31.6205C46.5556 31.6159 46.8918 31.6136 47.2602 31.6136C47.8912 31.6136 48.3966 31.6204 48.4016 31.6205L48.6913 30.564H45.0897ZM37.0029 32.1014C36.9726 32.1014 36.9415 32.1005 36.9105 32.0988H35.1071L35.4992 30.6712L35.848 30.6712C36.1694 30.6712 36.3837 30.5636 36.4849 30.3516L37.3911 28.9983H39.8174L39.3115 29.8883H42.2207L41.8516 31.2522H38.3898C38.2018 31.5344 37.99 31.7488 37.7606 31.8894C37.5309 32.0301 37.276 32.1014 37.0029 32.1014Z" fill="#FFFFFE"/>
</g>
<g filter="url(#filter6_b_1_3928)">
<path d="M60.9078 40.9975C60.8707 40.9975 60.8323 40.9962 60.7937 40.9938H58.6325L59.0531 39.5125H59.7274C59.9993 39.5125 60.2332 39.3912 60.4422 39.1417L62.2756 36.4964H59.912L60.3503 34.9638H62.9135L63.3213 33.537H60.7551L61.1934 32.0017H68.6174L68.1818 33.537H65.8182L65.4127 34.9638H67.7741L67.3357 36.4964H64.7057L64.1107 37.3947H65.3977L65.6952 39.1926C65.7303 39.3694 65.8873 39.459 66.1617 39.459H66.5614L66.1413 40.9399H64.726C64.6793 40.9422 64.6333 40.9433 64.5894 40.9433C64.2692 40.9433 64.0223 40.8809 63.8556 40.7579C63.689 40.6349 63.5972 40.4474 63.5827 40.2007L63.2417 38.5584L62.0702 40.3059C61.8126 40.7648 61.4215 40.9974 60.9078 40.9975ZM57.8866 40.9938H55.5252L55.7228 40.3059H51.0649L51.5189 38.7194H51.9856L54.2616 30.7328H53.7901L54.2721 29.0393H56.71L56.6049 29.6609L56.6081 29.6589C56.7387 29.5955 57.9087 29.0393 58.7478 29.0393H61.7624L61.2833 30.7328H60.8091L58.5351 38.7194H59.0091L58.5582 40.3059H58.0839L57.8866 40.9938ZM54.6159 37.0774L54.1464 38.7194H55.9689L56.4356 37.0774H54.6159ZM55.5124 33.9076L54.89 36.1717L54.8943 36.1692C55.0958 36.0727 56.1385 35.5892 56.874 35.5446C57.1039 34.6815 57.3382 33.9152 57.3405 33.9076L55.5124 33.9076ZM56.4203 30.7328L55.7999 32.8942C55.8001 32.8937 55.8021 32.893 55.8054 32.8917C55.9893 32.8233 56.9485 32.4768 57.7766 32.3728C57.9774 31.6236 58.2402 30.7416 58.2428 30.7328H56.4203ZM62.8379 31.5286C62.266 31.5286 61.9739 31.285 61.9447 30.784L61.8651 28.9343H64.1571L64.2543 29.7787C64.2477 29.8721 64.2688 29.9456 64.3168 29.9971C64.3789 30.0637 64.4842 30.096 64.6389 30.096H65.0436L64.6339 31.5256H62.9494C62.9113 31.5276 62.8738 31.5286 62.8379 31.5286Z" fill="#FFFFFE"/>
</g>
<g filter="url(#filter7_b_1_3928)">
<path d="M19.7589 21.5615C19.4771 22.9404 18.8232 23.9994 17.8095 24.7515C16.8044 25.4908 15.5086 25.8619 13.9216 25.8619C12.4285 25.8619 11.3338 25.4833 10.6354 24.7233C10.1508 24.1836 9.90967 23.498 9.90967 22.6691C9.90967 22.3263 9.95106 21.958 10.0328 21.5615L11.7235 13.4265H14.2769L12.6093 21.4693C12.5579 21.692 12.5375 21.8992 12.5399 22.0857C12.5375 22.4977 12.64 22.8354 12.8476 23.0987C13.1501 23.4904 13.6409 23.6849 14.3242 23.6849C15.1099 23.6849 15.7573 23.4928 16.2598 23.1066C16.7623 22.7228 17.0903 22.178 17.2376 21.4693L18.9104 13.4265H21.4507L19.7589 21.5615Z" fill="#FFFFFE"/>
</g>
<g filter="url(#filter8_b_1_3928)">
<path d="M22.1112 18.3585H23.9147L23.7085 19.4076L23.9672 19.1081C24.5518 18.4841 25.262 18.1743 26.1001 18.1743C26.8589 18.1743 27.4063 18.3943 27.7498 18.8369C28.0881 19.2795 28.1806 19.8908 28.0202 20.6763L27.0269 25.6237H25.1733L26.0708 21.1392C26.1629 20.6763 26.1373 20.331 25.9949 20.1083C25.8542 19.8856 25.5848 19.7758 25.1964 19.7758C24.7198 19.7758 24.3186 19.9242 23.9917 20.2185C23.6633 20.5152 23.4467 20.9272 23.3405 21.4514L22.5137 25.6237H20.6567L22.1112 18.3585Z" fill="#FFFFFE"/>
</g>
<g filter="url(#filter9_b_1_3928)">
<path d="M42.7924 18.3585H44.5973L44.3924 19.4076L44.6483 19.1081C45.2333 18.4841 45.9459 18.1743 46.7816 18.1743C47.5404 18.1743 48.0888 18.3943 48.4296 18.8369C48.7659 19.2795 48.8631 19.8908 48.6989 20.6763L47.7094 25.6237H45.8534L46.7509 21.1392C46.8433 20.6763 46.8171 20.331 46.6764 20.1083C46.5302 19.8856 46.2663 19.7758 45.8793 19.7758C45.4023 19.7758 45.0025 19.9242 44.6718 20.2185C44.3434 20.5152 44.1258 20.9272 44.0234 21.4514L43.1928 25.6237H41.3379L42.7924 18.3585Z" fill="#FFFFFE"/>
</g>
<g filter="url(#filter10_b_1_3928)">
<path d="M30.9154 25.6216L30.9149 25.6215L28.9199 25.6216L30.4823 18.3614H32.4819L30.9154 25.6216ZM32.7525 17.4786H30.7349L31.1118 15.7163H33.1291L32.7525 17.4786Z" fill="#FFFFFE"/>
</g>
<g filter="url(#filter11_b_1_3928)">
<path d="M36.3861 25.808C35.4881 25.808 34.7702 25.5593 34.2523 25.0688C33.7306 24.5715 33.4649 23.8899 33.4624 23.0429C33.4624 22.8919 33.4719 22.7258 33.4908 22.5493C33.5126 22.3413 33.5381 22.168 33.5689 22.0196C33.8053 20.8433 34.3167 19.8992 35.0891 19.2133C35.8631 18.5224 36.8088 18.1721 37.9001 18.1721C38.7961 18.1721 39.5135 18.4251 40.0325 18.9241C40.5523 19.4259 40.8158 20.1154 40.8158 20.9736C40.8158 21.1141 40.8055 21.2835 40.7852 21.477C40.7627 21.6587 40.7355 21.8362 40.7018 22.0196C40.4699 23.1811 39.9607 24.1116 39.1884 24.7851C38.4148 25.4638 37.472 25.808 36.3861 25.808ZM37.5807 19.776C37.0312 19.776 36.5742 19.9722 36.2224 20.3592C35.8677 20.7459 35.6164 21.3216 35.4542 22.1192C35.4356 22.2223 35.4183 22.3329 35.3979 22.4778C35.3862 22.5901 35.3814 22.7027 35.3839 22.8124C35.3839 23.2554 35.4994 23.6022 35.7273 23.8433C35.9568 24.088 36.2759 24.2069 36.7027 24.2069C37.2541 24.2069 37.7117 24.0133 38.0628 23.6314C38.4128 23.2528 38.6681 22.6708 38.8215 21.9018C38.8479 21.7649 38.8663 21.6437 38.8778 21.5312C38.8898 21.416 38.8959 21.3006 38.8959 21.1883C38.8959 20.7414 38.7802 20.3911 38.5521 20.1471C38.3263 19.9008 37.9995 19.776 37.5807 19.776Z" fill="#FFFFFE"/>
</g>
<g filter="url(#filter12_b_1_3928)">
<path d="M51.7263 25.6237H49.2935L51.7138 13.8562H56.9534C57.9578 13.8562 58.7392 14.0834 59.2758 14.5316C59.8068 14.9825 60.076 15.6384 60.076 16.4809V16.5065C60.076 16.6852 60.0622 16.8888 60.0501 17.0461C60.0229 17.2514 59.9894 17.4464 59.9477 17.6424C59.7192 18.7523 59.1827 19.6621 58.3531 20.3464C57.5242 21.0253 56.5324 21.3695 55.4053 21.3695H52.5953L51.7263 25.6237ZM53.7334 15.8721L53.0234 19.3233H55.3536C55.9589 19.3233 56.4437 19.1821 56.7945 18.9035C57.1407 18.6243 57.3722 18.201 57.502 17.6092C57.515 17.5405 57.525 17.4766 57.5346 17.4147C57.5399 17.3801 57.5451 17.3471 57.5505 17.315C57.5519 17.3004 57.5533 17.2858 57.5547 17.2713C57.5615 17.2028 57.5685 17.132 57.5685 17.0644C57.5685 16.6499 57.4185 16.3443 57.1226 16.156C56.8267 15.9649 56.3654 15.8721 55.7126 15.8721H53.7334Z" fill="#FFFFFE"/>
</g>
<g filter="url(#filter13_b_1_3928)">
<path d="M70.9654 27.0285C70.1966 28.6606 69.4633 29.612 69.0328 30.0546C68.6017 30.4924 67.7484 31.5105 65.6924 31.4334L65.8693 30.1878C67.5994 29.6557 68.5351 27.2584 69.0684 26.1969L68.4327 18.3792L69.7709 18.3613H70.8936L71.0143 23.2654L73.1186 18.3613H75.2491L70.9654 27.0285Z" fill="#FFFFFE"/>
</g>
<g filter="url(#filter14_b_1_3928)">
<path d="M60.8313 25.6699C59.5705 25.6699 59.1261 24.8533 58.9753 24.1683C58.7966 23.3568 58.9338 22.2502 59.3424 21.2082C59.746 20.1788 60.3326 19.4043 60.9117 19.1363C61.4551 18.8847 61.9288 18.7625 62.3597 18.7625C63.0389 18.7625 63.5527 19.0573 64.1615 19.533L65.0081 18.9523L67.0022 18.7781L65.4922 25.6238L63.1926 25.565L62.8595 25.1711C62.0799 25.5021 61.3974 25.6699 60.8313 25.6699ZM62.9702 20.3216C62.3568 20.3217 61.6786 21.01 61.3576 21.9581C61.1197 22.6506 61.1192 23.3706 61.3563 23.8373C61.4758 24.0726 61.65 24.2312 61.86 24.2961C61.9329 24.3193 62.0098 24.331 62.0886 24.331C62.7003 24.331 63.3782 23.6429 63.7006 22.6948C63.9392 22.0042 63.9402 21.2849 63.7033 20.8175C63.5834 20.5811 63.4086 20.4217 63.1979 20.3565C63.1254 20.3334 63.0488 20.3216 62.9702 20.3216Z" fill="#FFFFFE"/>
</g>
</g>
<defs>
<filter id="filter0_b_1_3928" x="47.2614" y="-2.10797" width="12.4923" height="4.46863" filterUnits="userSpaceOnUse" color-interpolation-filters="sRGB">
<feFlood flood-opacity="0" result="BackgroundImageFix"/>
<feGaussianBlur in="BackgroundImageFix" stdDeviation="1.11588"/>
<feComposite in2="SourceAlpha" operator="in" result="effect1_backgroundBlur_1_3928"/>
<feBlend mode="normal" in="SourceGraphic" in2="effect1_backgroundBlur_1_3928" result="shape"/>
</filter>
<filter id="filter1_b_1_3928" x="-2.13605" y="-2.11579" width="39.4786" height="56.4415" filterUnits="userSpaceOnUse" color-interpolation-filters="sRGB">
<feFlood flood-opacity="0" result="BackgroundImageFix"/>
<feGaussianBlur in="BackgroundImageFix" stdDeviation="1.11588"/>
<feComposite in2="SourceAlpha" operator="in" result="effect1_backgroundBlur_1_3928"/>
<feBlend mode="normal" in="SourceGraphic" in2="effect1_backgroundBlur_1_3928" result="shape"/>
</filter>
<filter id="filter2_b_1_3928" x="32.8791" y="-2.11579" width="18.8463" height="4.47132" filterUnits="userSpaceOnUse" color-interpolation-filters="sRGB">
<feFlood flood-opacity="0" result="BackgroundImageFix"/>
<feGaussianBlur in="BackgroundImageFix" stdDeviation="1.11588"/>
<feComposite in2="SourceAlpha" operator="in" result="effect1_backgroundBlur_1_3928"/>
<feBlend mode="normal" in="SourceGraphic" in2="effect1_backgroundBlur_1_3928" result="shape"/>
</filter>
<filter id="filter3_b_1_3928" x="16.3796" y="-2.11066" width="43.3287" height="56.4364" filterUnits="userSpaceOnUse" color-interpolation-filters="sRGB">
<feFlood flood-opacity="0" result="BackgroundImageFix"/>
<feGaussianBlur in="BackgroundImageFix" stdDeviation="1.11588"/>
<feComposite in2="SourceAlpha" operator="in" result="effect1_backgroundBlur_1_3928"/>
<feBlend mode="normal" in="SourceGraphic" in2="effect1_backgroundBlur_1_3928" result="shape"/>
</filter>
<filter id="filter4_b_1_3928" x="38.801" y="-2.10553" width="45.0582" height="56.4313" filterUnits="userSpaceOnUse" color-interpolation-filters="sRGB">
<feFlood flood-opacity="0" result="BackgroundImageFix"/>
<feGaussianBlur in="BackgroundImageFix" stdDeviation="1.11588"/>
<feComposite in2="SourceAlpha" operator="in" result="effect1_backgroundBlur_1_3928"/>
<feBlend mode="normal" in="SourceGraphic" in2="effect1_backgroundBlur_1_3928" result="shape"/>
</filter>
<filter id="filter5_b_1_3928" x="31.5973" y="26.7228" width="22.1378" height="16.4948" filterUnits="userSpaceOnUse" color-interpolation-filters="sRGB">
<feFlood flood-opacity="0" result="BackgroundImageFix"/>
<feGaussianBlur in="BackgroundImageFix" stdDeviation="1.11588"/>
<feComposite in2="SourceAlpha" operator="in" result="effect1_backgroundBlur_1_3928"/>
<feBlend mode="normal" in="SourceGraphic" in2="effect1_backgroundBlur_1_3928" result="shape"/>
</filter>
<filter id="filter6_b_1_3928" x="48.8332" y="26.7026" width="22.0158" height="16.5267" filterUnits="userSpaceOnUse" color-interpolation-filters="sRGB">
<feFlood flood-opacity="0" result="BackgroundImageFix"/>
<feGaussianBlur in="BackgroundImageFix" stdDeviation="1.11588"/>
<feComposite in2="SourceAlpha" operator="in" result="effect1_backgroundBlur_1_3928"/>
<feBlend mode="normal" in="SourceGraphic" in2="effect1_backgroundBlur_1_3928" result="shape"/>
</filter>
<filter id="filter7_b_1_3928" x="7.67791" y="11.1948" width="16.0045" height="16.8988" filterUnits="userSpaceOnUse" color-interpolation-filters="sRGB">
<feFlood flood-opacity="0" result="BackgroundImageFix"/>
<feGaussianBlur in="BackgroundImageFix" stdDeviation="1.11588"/>
<feComposite in2="SourceAlpha" operator="in" result="effect1_backgroundBlur_1_3928"/>
<feBlend mode="normal" in="SourceGraphic" in2="effect1_backgroundBlur_1_3928" result="shape"/>
</filter>
<filter id="filter8_b_1_3928" x="18.425" y="15.9426" width="11.9034" height="11.913" filterUnits="userSpaceOnUse" color-interpolation-filters="sRGB">
<feFlood flood-opacity="0" result="BackgroundImageFix"/>
<feGaussianBlur in="BackgroundImageFix" stdDeviation="1.11588"/>
<feComposite in2="SourceAlpha" operator="in" result="effect1_backgroundBlur_1_3928"/>
<feBlend mode="normal" in="SourceGraphic" in2="effect1_backgroundBlur_1_3928" result="shape"/>
</filter>
<filter id="filter9_b_1_3928" x="39.1061" y="15.9426" width="11.9025" height="11.913" filterUnits="userSpaceOnUse" color-interpolation-filters="sRGB">
<feFlood flood-opacity="0" result="BackgroundImageFix"/>
<feGaussianBlur in="BackgroundImageFix" stdDeviation="1.11588"/>
<feComposite in2="SourceAlpha" operator="in" result="effect1_backgroundBlur_1_3928"/>
<feBlend mode="normal" in="SourceGraphic" in2="effect1_backgroundBlur_1_3928" result="shape"/>
</filter>
<filter id="filter10_b_1_3928" x="26.6882" y="13.4846" width="8.67249" height="14.3688" filterUnits="userSpaceOnUse" color-interpolation-filters="sRGB">
<feFlood flood-opacity="0" result="BackgroundImageFix"/>
<feGaussianBlur in="BackgroundImageFix" stdDeviation="1.11588"/>
<feComposite in2="SourceAlpha" operator="in" result="effect1_backgroundBlur_1_3928"/>
<feBlend mode="normal" in="SourceGraphic" in2="effect1_backgroundBlur_1_3928" result="shape"/>
</filter>
<filter id="filter11_b_1_3928" x="31.2306" y="15.9404" width="11.817" height="12.0992" filterUnits="userSpaceOnUse" color-interpolation-filters="sRGB">
<feFlood flood-opacity="0" result="BackgroundImageFix"/>
<feGaussianBlur in="BackgroundImageFix" stdDeviation="1.11588"/>
<feComposite in2="SourceAlpha" operator="in" result="effect1_backgroundBlur_1_3928"/>
<feBlend mode="normal" in="SourceGraphic" in2="effect1_backgroundBlur_1_3928" result="shape"/>
</filter>
<filter id="filter12_b_1_3928" x="47.0617" y="11.6244" width="15.2462" height="16.2311" filterUnits="userSpaceOnUse" color-interpolation-filters="sRGB">
<feFlood flood-opacity="0" result="BackgroundImageFix"/>
<feGaussianBlur in="BackgroundImageFix" stdDeviation="1.11588"/>
<feComposite in2="SourceAlpha" operator="in" result="effect1_backgroundBlur_1_3928"/>
<feBlend mode="normal" in="SourceGraphic" in2="effect1_backgroundBlur_1_3928" result="shape"/>
</filter>
<filter id="filter13_b_1_3928" x="63.4606" y="16.1296" width="14.0201" height="17.5397" filterUnits="userSpaceOnUse" color-interpolation-filters="sRGB">
<feFlood flood-opacity="0" result="BackgroundImageFix"/>
<feGaussianBlur in="BackgroundImageFix" stdDeviation="1.11588"/>
<feComposite in2="SourceAlpha" operator="in" result="effect1_backgroundBlur_1_3928"/>
<feBlend mode="normal" in="SourceGraphic" in2="effect1_backgroundBlur_1_3928" result="shape"/>
</filter>
<filter id="filter14_b_1_3928" x="56.6667" y="16.5307" width="12.567" height="11.371" filterUnits="userSpaceOnUse" color-interpolation-filters="sRGB">
<feFlood flood-opacity="0" result="BackgroundImageFix"/>
<feGaussianBlur in="BackgroundImageFix" stdDeviation="1.11588"/>
<feComposite in2="SourceAlpha" operator="in" result="effect1_backgroundBlur_1_3928"/>
<feBlend mode="normal" in="SourceGraphic" in2="effect1_backgroundBlur_1_3928" result="shape"/>
</filter>
<clipPath id="clip0_1_3928">
<rect width="81.738" height="52.1672" fill="white"/>
</clipPath>
</defs>
</svg>
