<svg width="132" height="40" viewBox="0 0 132 40" fill="none" xmlns="http://www.w3.org/2000/svg">
<g clip-path="url(#clip0_1_3926)">
<g filter="url(#filter0_b_1_3926)">
<path d="M132 40.0005H132L122.299 40C122.292 39.97 121.341 35.4456 121.028 34.0504C120.237 34.0504 117.006 34.0455 113.882 34.0407L113.67 34.0404C110.861 34.0361 108.209 34.032 107.646 34.032C107.238 35.0971 105.464 39.9518 105.446 40H94.466L109.989 3.60561C110.515 2.36962 111.238 1.51397 112.2 0.989744C113.049 0.527094 114.087 0.311607 115.465 0.311607H123.537L132 40L132 40.0005ZM114.811 14.8104L114.811 14.8116L114.802 14.8358C114.462 15.7443 111.461 23.7738 110.651 25.912H119.327C118.911 23.9382 116.922 14.5216 116.905 14.442L116.196 11.018C115.902 11.8529 115.489 12.964 115.188 13.7752C114.958 14.3937 114.806 14.8022 114.81 14.8115L114.811 14.8104ZM76.2828 40C74.0354 39.9783 71.6908 39.7574 69.5024 39.3611C67.4989 38.9983 65.7007 38.498 64.4392 37.9524L65.9324 29.344L67.3012 29.952C70.6983 31.3466 72.949 31.9688 77.3052 31.9688C80.3509 31.9688 83.6432 30.7949 83.6744 28.2176C83.6899 26.5377 82.2982 25.3348 78.1588 23.4504C74.1314 21.6146 68.7839 18.5341 68.8416 13.0024C68.9064 5.53024 76.2962 0.311607 86.8124 0.311607C91.078 0.311607 94.3495 1.19214 96.3428 1.9308L94.9016 10.262L93.944 9.818C92.2143 9.13101 89.7872 8.34245 86.3427 8.34245C86.2259 8.34245 86.1073 8.34337 85.99 8.3452C84.0803 8.3452 82.4878 8.71012 81.3845 9.4005C80.4406 9.99113 79.8992 10.8121 79.8992 11.6528C79.8759 13.4571 82.1541 14.6387 85.8732 16.4172C92.0008 19.1624 94.8365 22.4816 94.7972 26.8628C94.7564 30.7822 92.9939 34.0894 89.7003 36.4267C86.4062 38.7644 81.7665 40 76.2828 40ZM57.9292 40L57.9283 39.9999L47.5488 40L54.0412 0.311607H64.4392L57.9292 40ZM21.4156 40L11.9036 5.2812C8.36304 3.32043 4.35802 1.81116 0 0.795607L0.129607 0H17.5828C18.887 0.0482051 19.8967 0.28918 20.6695 0.736701C21.5822 1.26527 22.1763 2.07875 22.4856 3.22361L26.2736 20.7892C26.0572 20.2552 25.819 19.7171 25.5648 19.19C25.999 20.1102 26.3556 21.0261 26.6256 21.912L27.74 27.4188L38.1572 0.311607H49.4256L32.674 39.984L21.4156 40Z" fill="#16216A"/>
</g>
</g>
<defs>
<filter id="filter0_b_1_3926" x="-3.33333" y="-3.33333" width="138.667" height="46.6672" filterUnits="userSpaceOnUse" color-interpolation-filters="sRGB">
<feFlood flood-opacity="0" result="BackgroundImageFix"/>
<feGaussianBlur in="BackgroundImageFix" stdDeviation="1.66667"/>
<feComposite in2="SourceAlpha" operator="in" result="effect1_backgroundBlur_1_3926"/>
<feBlend mode="normal" in="SourceGraphic" in2="effect1_backgroundBlur_1_3926" result="shape"/>
</filter>
<clipPath id="clip0_1_3926">
<rect width="132" height="40" fill="white"/>
</clipPath>
</defs>
</svg>
